NotoSansSymbols2.glyphspackage
{
glyphname = numbersign;
layers = (
{
anchors = (
{
name = top;
pos = (551,715);
}
);
layerId = "6E183CFB-E55F-4C96-8804-AC4D4AF4B24B";
shapes = (
{
closed = 1;
nodes = (
(475,82,l),
(499,236,l),
(565,236,l),
(540,82,l),
(618,82,l),
(644,236,l),
(750,236,l),
(750,312,l),
(655,312,l),
(671,404,l),
(772,404,l),
(772,480,l),
(683,480,l),
(708,632,l),
(631,632,l),
(606,480,l),
(539,480,l),
(565,632,l),
(487,632,l),
(461,480,l),
(356,480,l),
(356,404,l),
(450,404,l),
(435,312,l),
(334,312,l),
(334,236,l),
(422,236,l),
(398,82,l)
);
},
{
closed = 1;
nodes = (
(528,404,l),
(594,404,l),
(578,312,l),
(512,312,l)
);
}
);
userData = {
public.verticalOrigin = 1069;
};
width = 1102;
}
);
unicode = 35;
}
{
glyphname = asterisk;
layers = (
{
anchors = (
{
name = top;
pos = (551,715);
}
);
layerId = "6E183CFB-E55F-4C96-8804-AC4D4AF4B24B";
shapes = (
{
closed = 1;
nodes = (
(684,343,l),
(608,441,l),
(724,455,l),
(707,539,l),
(586,505,l),
(596,632,l),
(506,632,l),
(516,506,l),
(396,537,l),
(378,457,l),
(494,441,l),
(419,343,l),
(493,299,l),
(550,409,l),
(609,298,l)
);
}
);
userData = {
public.verticalOrigin = 1069;
};
width = 1102;
}
);
unicode = 42;
}
{
glyphname = zero;
layers = (
{
anchors = (
{
name = top;
pos = (551,715);
}
);
layerId = "6E183CFB-E55F-4C96-8804-AC4D4AF4B24B";
shapes = (
{
closed = 1;
nodes = (
(695,75,o),
(743,189,o),
(743,353,cs),
(743,539,o),
(682,639,o),
(549,639,cs),
(419,639,o),
(359,543,o),
(359,360,cs),
(359,175,o),
(419,75,o),
(553,75,cs)
);
},
{
closed = 1;
nodes = (
(487,165,o),
(466,227,o),
(466,353,cs),
(466,479,o),
(487,546,o),
(550,546,cs),
(616,546,o),
(633,472,o),
(633,352,cs),
(633,227,o),
(614,165,o),
(550,165,cs)
);
}
);
userData = {
public.verticalOrigin = 1069;
};
width = 1102;
}
);
unicode = 48;
}
{
glyphname = one;
layers = (
{
anchors = (
{
name = top;
pos = (551,715);
}
);
layerId = "6E183CFB-E55F-4C96-8804-AC4D4AF4B24B";
shapes = (
{
closed = 1;
nodes = (
(631,82,l),
(631,632,l),
(540,632,l),
(379,545,l),
(429,455,l),
(481,484,l),
(493,491,o),
(507,499,o),
(523,509,c),
(520,473,o),
(520,440,o),
(520,400,c),
(520,82,l)
);
}
);
userData = {
public.verticalOrigin = 1069;
};
width = 1102;
}
);
unicode = 49;
}
{
glyphname = two;
layers = (
{
anchors = (
{
name = top;
pos = (551,715);
}
);
layerId = "6E183CFB-E55F-4C96-8804-AC4D4AF4B24B";
shapes = (
{
closed = 1;
nodes = (
(743,84,l),
(743,179,l),
(503,179,l),
(503,187,l),
(574,249,ls),
(657,322,o),
(729,390,o),
(729,488,cs),
(729,575,o),
(663,640,o),
(551,640,cs),
(464,640,o),
(419,614,o),
(359,562,c),
(422,487,l),
(466,525,o),
(502,544,o),
(543,544,cs),
(584,544,o),
(613,518,o),
(613,474,cs),
(613,413,o),
(559,363,o),
(494,298,cs),
(360,164,l),
(360,84,l)
);
}
);
userData = {
public.verticalOrigin = 1069;
};
width = 1102;
}
);
unicode = 50;
}
{
glyphname = three;
layers = (
{
anchors = (
{
name = top;
pos = (551,715);
}
);
layerId = "6E183CFB-E55F-4C96-8804-AC4D4AF4B24B";
shapes = (
{
closed = 1;
nodes = (
(640,75,o),
(730,125,o),
(730,242,cs),
(730,313,o),
(693,357,o),
(607,369,c),
(607,372,l),
(676,389,o),
(714,444,o),
(714,508,cs),
(714,601,o),
(635,639,o),
(547,639,cs),
(486,639,o),
(423,620,o),
(372,585,c),
(422,505,l),
(471,532,o),
(509,544,o),
(541,544,cs),
(591,544,o),
(608,517,o),
(608,483,cs),
(608,435,o),
(574,409,o),
(496,409,cs),
(453,409,l),
(453,320,l),
(495,320,ls),
(583,320,o),
(616,301,o),
(616,248,cs),
(616,196,o),
(585,169,o),
(520,169,cs),
(476,169,o),
(419,182,o),
(373,203,c),
(373,105,l),
(423,85,o),
(479,75,o),
(529,75,cs)
);
}
);
userData = {
public.verticalOrigin = 1069;
};
width = 1102;
}
);
unicode = 51;
}
{
glyphname = four;
layers = (
{
anchors = (
{
name = top;
pos = (551,715);
}
);
layerId = "6E183CFB-E55F-4C96-8804-AC4D4AF4B24B";
shapes = (
{
closed = 1;
nodes = (
(680,82,l),
(680,196,l),
(751,196,l),
(751,286,l),
(680,286,l),
(680,632,l),
(576,632,l),
(351,277,l),
(351,196,l),
(574,196,l),
(574,82,l)
);
},
{
closed = 1;
nodes = (
(543,437,ls),
(556,458,o),
(567,476,o),
(576,497,c),
(579,497,l),
(578,489,o),
(574,402,o),
(574,379,cs),
(574,286,l),
(453,286,l)
);
}
);
userData = {
public.verticalOrigin = 1069;
};
width = 1102;
}
);
unicode = 52;
}
{
glyphname = five;
layers = (
{
anchors = (
{
name = top;
pos = (551,715);
}
);
layerId = "6E183CFB-E55F-4C96-8804-AC4D4AF4B24B";
shapes = (
{
closed = 1;
nodes = (
(632,74,o),
(723,136,o),
(723,260,cs),
(723,370,o),
(652,430,o),
(559,430,cs),
(544,430,o),
(524,429,o),
(500,424,c),
(509,535,l),
(693,535,l),
(693,630,l),
(409,630,l),
(387,350,l),
(433,327,l),
(453,336,o),
(486,340,o),
(515,340,cs),
(562,340,o),
(606,318,o),
(606,252,cs),
(606,197,o),
(576,170,o),
(516,170,cs),
(473,170,o),
(422,181,o),
(378,204,c),
(378,104,l),
(416,84,o),
(468,74,o),
(514,74,cs)
);
}
);
userData = {
public.verticalOrigin = 1069;
};
width = 1102;
}
);
unicode = 53;
}
{
glyphname = six;
layers = (
{
anchors = (
{
name = top;
pos = (551,715);
}
);
layerId = "6E183CFB-E55F-4C96-8804-AC4D4AF4B24B";
shapes = (
{
closed = 1;
nodes = (
(663,74,o),
(729,147,o),
(729,265,cs),
(729,371,o),
(678,439,o),
(581,439,cs),
(526,439,o),
(489,417,o),
(464,375,c),
(459,375,l),
(469,490,o),
(518,547,o),
(622,547,cs),
(646,547,o),
(669,544,o),
(691,539,c),
(691,632,l),
(673,636,o),
(649,637,o),
(626,637,cs),
(441,637,o),
(353,533,o),
(353,333,cs),
(353,163,o),
(429,74,o),
(548,74,c)
);
},
{
closed = 1;
nodes = (
(498,171,o),
(468,207,o),
(468,259,cs),
(468,317,o),
(505,350,o),
(548,350,cs),
(595,350,o),
(617,317,o),
(617,264,cs),
(617,202,o),
(592,171,o),
(546,171,cs)
);
}
);
userData = {
public.verticalOrigin = 1069;
};
width = 1102;
}
);
unicode = 54;
}
{
glyphname = seven;
layers = (
{
anchors = (
{
name = top;
pos = (551,715);
}
);
layerId = "6E183CFB-E55F-4C96-8804-AC4D4AF4B24B";
shapes = (
{
closed = 1;
nodes = (
(546,82,l),
(753,558,l),
(753,631,l),
(369,631,l),
(369,536,l),
(630,536,l),
(424,82,l)
);
}
);
userData = {
public.verticalOrigin = 1069;
};
width = 1102;
}
);
unicode = 55;
}
{
glyphname = eight;
layers = (
{
anchors = (
{
name = top;
pos = (551,715);
}
);
layerId = "6E183CFB-E55F-4C96-8804-AC4D4AF4B24B";
shapes = (
{
closed = 1;
nodes = (
(653,75,o),
(736,127,o),
(736,225,cs),
(736,282,o),
(705,328,o),
(628,372,c),
(692,407,o),
(719,450,o),
(719,506,cs),
(719,595,o),
(643,638,o),
(551,638,cs),
(460,638,o),
(383,593,o),
(383,507,cs),
(383,453,o),
(406,408,o),
(463,369,c),
(395,332,o),
(366,285,o),
(366,222,cs),
(366,120,o),
(445,75,o),
(551,75,cs)
);
},
{
closed = 1;
nodes = (
(503,165,o),
(473,189,o),
(473,228,cs),
(473,266,o),
(497,297,o),
(546,322,c),
(603,288,o),
(629,261,o),
(629,228,cs),
(629,191,o),
(603,165,o),
(549,165,cs)
);
},
{
closed = 1;
nodes = (
(515,441,o),
(492,461,o),
(492,498,cs),
(492,528,o),
(516,548,o),
(550,548,cs),
(586,548,o),
(610,528,o),
(610,498,cs),
(610,466,o),
(595,444,o),
(551,421,c)
);
}
);
userData = {
public.verticalOrigin = 1069;
};
width = 1102;
}
);
unicode = 56;
}
{
glyphname = nine;
layers = (
{
anchors = (
{
name = top;
pos = (551,715);
}
);
layerId = "6E183CFB-E55F-4C96-8804-AC4D4AF4B24B";
shapes = (
{
closed = 1;
nodes = (
(660,75,o),
(749,179,o),
(749,386,cs),
(749,550,o),
(673,640,o),
(554,640,cs),
(439,640,o),
(373,566,o),
(373,447,cs),
(373,342,o),
(424,275,o),
(521,275,cs),
(576,275,o),
(613,296,o),
(637,337,c),
(642,337,l),
(633,229,o),
(590,166,o),
(479,166,cs),
(454,166,o),
(432,168,o),
(409,173,c),
(409,80,l),
(427,76,o),
(452,75,o),
(474,75,cs)
);
},
{
closed = 1;
nodes = (
(507,364,o),
(485,396,o),
(485,449,cs),
(485,511,o),
(510,543,o),
(556,543,cs),
(604,543,o),
(634,506,o),
(634,451,cs),
(634,396,o),
(597,364,o),
(554,364,cs)
);
}
);
userData = {
public.verticalOrigin = 1069;
};
width = 1102;
}
);
unicode = 57;
}
{
glyphname = bullet;
layers = (
{
layerId = "6E183CFB-E55F-4C96-8804-AC4D4AF4B24B";
shapes = (
{
closed = 1;
nodes = (
(314,192,o),
(391,268,o),
(391,362,cs),
(391,455,o),
(314,532,o),
(221,532,cs),
(128,532,o),
(51,457,o),
(51,362,cs),
(51,267,o),
(128,192,o),
(221,192,cs)
);
}
);
userData = {
public.verticalOrigin = 1069;
};
width = 442;
}
);
unicode = 8226;
}
{
glyphname = enclosingscreencomb;
layers = (
{
layerId = "6E183CFB-E55F-4C96-8804-AC4D4AF4B24B";
shapes = (
{
closed = 1;
nodes = (
(1197,-193,o),
(1518,-164,o),
(1675,-124,c),
(1731,47,o),
(1751,171,o),
(1751,361,cs),
(1751,551,o),
(1731,676,o),
(1675,848,c),
(1518,888,o),
(1195,917,o),
(879,917,cs),
(564,917,o),
(242,888,o),
(85,848,c),
(32,679,o),
(11,547,o),
(11,361,cs),
(11,176,o),
(31,47,o),
(85,-124,c),
(238,-164,o),
(563,-193,o),
(880,-193,cs)
);
},
{
closed = 1;
nodes = (
(619,-90,o),
(291,-63,o),
(174,-35,c),
(138,53,o),
(117,197,o),
(117,361,cs),
(117,530,o),
(136,662,o),
(174,759,c),
(316,789,o),
(622,814,o),
(880,814,cs),
(1145,814,o),
(1449,789,o),
(1589,759,c),
(1629,643,o),
(1645,514,o),
(1645,361,cs),
(1645,200,o),
(1626,67,o),
(1589,-35,c),
(1470,-63,o),
(1145,-90,o),
(880,-90,cs)
);
}
);
userData = {
public.verticalOrigin = 1069;
};
width = 1762;
}
);
unicode = 8418;
}
{
glyphname = enclosingkeycapcomb;
layers = (
{
anchors = (
{
name = _top;
pos = (511,715);
}
);
layerId = "6E183CFB-E55F-4C96-8804-AC4D4AF4B24B";
shapes = (
{
closed = 1;
nodes = (
(910,-142,ls),
(972,-142,o),
(1011,-102,o),
(1011,-41,cs),
(1011,755,ls),
(1011,817,o),
(972,856,o),
(910,856,cs),
(113,856,ls),
(51,856,o),
(11,817,o),
(11,755,cs),
(11,-41,ls),
(11,-102,o),
(51,-142,o),
(113,-142,cs)
);
},
{
closed = 1;
nodes = (
(207,0,o),
(185,24,o),
(185,85,cs),
(185,629,ls),
(185,689,o),
(207,714,o),
(268,714,cs),
(755,714,ls),
(818,714,o),
(839,692,o),
(839,629,cs),
(839,85,ls),
(839,19,o),
(818,0,o),
(755,0,cs),
(268,0,ls)
);
},
{
closed = 1;
nodes = (
(889,0,l),
(889,660,ls),
(889,741,o),
(861,763,o),
(784,763,cs),
(167,763,l),
(90,827,l),
(891,827,ls),
(955,827,o),
(983,792,o),
(983,732,cs),
(983,-68,l)
);
}
);
userData = {
public.verticalOrigin = 1069;
};
width = 1022;
}
);
note = uni20E3;
unicode = 8419;
}
{
glyphname = downZigzagArrow;
layers = (
{
layerId = "6E183CFB-E55F-4C96-8804-AC4D4AF4B24B";
shapes = (
{
closed = 1;
nodes = (
(266,5,o),
(316,32,o),
(376,52,c),
(389,84,l),
(344,82,o),
(305,76,o),
(277,68,c),
(419,408,l),
(174,291,l),
(256,552,l),
(214,562,l),
(106,216,l),
(338,325,l),
(239,83,l),
(226,108,o),
(204,138,o),
(173,173,c),
(160,141,l),
(189,84,o),
(206,29,o),
(210,-23,c),
(227,-30,l)
);
}
);
userData = {
public.verticalOrigin = 1069;
};
width = 526;
}
);
unicode = 8623;
}
{
glyphname = leftWhiteArrow;
layers = (
{
layerId = "6E183CFB-E55F-4C96-8804-AC4D4AF4B24B";
shapes = (
{
closed = 1;
nodes = (
(331,215,l),
(764,215,l),
(764,469,l),
(331,469,l),
(331,622,l),
(51,342,l),
(331,62,l)
);
},
{
closed = 1;
nodes = (
(94,342,l),
(301,549,l),
(301,439,l),
(734,439,l),
(734,245,l),
(301,245,l),
(301,135,l)
);
}
);
userData = {
public.verticalOrigin = 1069;
};
width = 815;
}
);
note = uni21E6;
unicode = 8678;
}
{
glyphname = downWhiteArrow;
layers = (
{
layerId = "6E183CFB-E55F-4C96-8804-AC4D4AF4B24B";
shapes = (
{
closed = 1;
nodes = (
(611,250,l),
(458,250,l),
(458,683,l),
(204,683,l),
(204,250,l),
(51,250,l),
(331,-30,l)
);
},
{
closed = 1;
nodes = (
(124,220,l),
(234,220,l),
(234,653,l),
(428,653,l),
(428,220,l),
(538,220,l),
(331,13,l)
);
}
);
userData = {
public.verticalOrigin = 1069;
};
width = 662;
}
);
note = uni21E9;
unicode = 8681;
}
{
glyphname = upDownWhiteArrow;
layers = (
{
layerId = "6E183CFB-E55F-4C96-8804-AC4D4AF4B24B";
shapes = (
{
closed = 1;
nodes = (
(611,180,l),
(458,180,l),
(458,483,l),
(611,483,l),
(331,763,l),
(51,483,l),
(204,483,l),
(204,180,l),
(51,180,l),
(331,-100,l)
);
},
{
closed = 1;
nodes = (
(124,150,l),
(234,150,l),
(234,513,l),
(124,513,l),
(331,720,l),
(538,513,l),
(428,513,l),
(428,150,l),
(538,150,l),
(331,-57,l)
);
}
);
userData = {
public.verticalOrigin = 1069;
};
width = 662;
}
);
note = uni21F3;
unicode = 8691;
}
{
glyphname = ringoperator;
layers = (
{
layerId = "6E183CFB-E55F-4C96-8804-AC4D4AF4B24B";
shapes = (
{
closed = 1;
nodes = (
(186,275,o),
(225,314,o),
(225,362,cs),
(225,410,o),
(186,449,o),
(138,449,cs),
(90,449,o),
(51,410,o),
(51,362,cs),
(51,314,o),
(90,275,o),
(138,275,cs)
);
},
{
closed = 1;
nodes = (
(111,312,o),
(88,335,o),
(88,362,cs),
(88,389,o),
(111,412,o),
(138,412,cs),
(165,412,o),
(188,389,o),
(188,362,cs),
(188,335,o),
(165,312,o),
(138,312,cs)
);
}
);
userData = {
public.verticalOrigin = 1069;
};
width = 276;
}
);
unicode = 8728;
}
{
glyphname = bulletoperator;
layers = (
{
layerId = "6E183CFB-E55F-4C96-8804-AC4D4AF4B24B";
shapes = (
{
closed = 1;
nodes = (
(181,278,o),
(219,316,o),
(219,362,cs),
(219,408,o),
(181,446,o),
(135,446,cs),
(89,446,o),
(51,408,o),
(51,362,cs),
(51,316,o),
(89,278,o),
(135,278,cs)
);
}
);
userData = {
public.verticalOrigin = 1069;
};
width = 270;
}
);
note = uni2219;
unicode = 8729;
}
{
glyphname = operator.circled;
layers = (
{
layerId = "6E183CFB-E55F-4C96-8804-AC4D4AF4B24B";
shapes = (
{
closed = 1;
nodes = (
(666,-34,o),
(843,143,o),
(843,362,cs),
(843,581,o),
(666,758,o),
(447,758,cs),
(229,758,o),
(51,581,o),
(51,362,cs),
(51,143,o),
(229,-34,o),
(447,-34,cs)
);
},
{
closed = 1;
nodes = (
(266,35,o),
(120,181,o),
(120,362,cs),
(120,543,o),
(266,689,o),
(447,689,cs),
(628,689,o),
(774,543,o),
(774,362,cs),
(774,181,o),
(628,35,o),
(447,35,cs)
);
},
{
closed = 1;
nodes = (
(496,273,o),
(536,313,o),
(536,362,cs),
(536,411,o),
(496,451,o),
(447,451,cs),
(398,451,o),
(358,411,o),
(358,362,cs),
(358,313,o),
(398,273,o),
(447,273,cs)
);
}
);
userData = {
public.verticalOrigin = 1069;
};
width = 894;
}
);
note = uni2299;
unicode = 8857;
}
{
glyphname = diamondoperator;
layers = (
{
layerId = "6E183CFB-E55F-4C96-8804-AC4D4AF4B24B";
shapes = (
{
closed = 1;
nodes = (
(247,362,l),
(149,460,l),
(51,362,l),
(149,264,l)
);
}
);
userData = {
public.verticalOrigin = 1069;
};
width = 298;
}
);
unicode = 8900;
}
{
glyphname = dotmath;
layers = (
{
layerId = "6E183CFB-E55F-4C96-8804-AC4D4AF4B24B";
shapes = (
{
closed = 1;
nodes = (
(150,298,o),
(179,327,o),
(179,362,cs),
(179,397,o),
(150,426,o),
(115,426,cs),
(80,426,o),
(51,397,o),
(51,362,cs),
(51,327,o),
(80,298,o),
(115,298,cs)
);
}
);
userData = {
public.verticalOrigin = 1069;
};
width = 230;
}
);
note = dotmath;
unicode = 8901;
}
{
glyphname = staroperator;
layers = (
{
layerId = "6E183CFB-E55F-4C96-8804-AC4D4AF4B24B";
shapes = (
{
closed = 1;
nodes = (
(177,309,l),
(259,250,l),
(228,344,l),
(303,395,l),
(210,395,l),
(177,495,l),
(144,395,l),
(51,395,l),
(126,344,l),
(95,250,l)
);
}
);
userData = {
public.verticalOrigin = 1069;
};
width = 354;
}
);
unicode = 8902;
}
{
glyphname = positionIndicator;
layers = (
{
layerId = "6E183CFB-E55F-4C96-8804-AC4D4AF4B24B";
shapes = (
{
closed = 1;
nodes = (
(503,122,o),
(607,226,o),
(607,354,cs),
(607,482,o),
(503,586,o),
(375,586,cs),
(247,586,o),
(143,482,o),
(143,354,cs),
(143,226,o),
(247,122,o),
(375,122,cs)
);
},
{
closed = 1;
nodes = (
(352,342,l),
(352,367,l),
(11,367,l),
(11,342,l)
);
},
{
closed = 1;
nodes = (
(388,-9,l),
(388,332,l),
(362,332,l),
(362,-9,l)
);
},
{
closed = 1;
nodes = (
(263,151,o),
(172,242,o),
(172,354,cs),
(172,466,o),
(263,557,o),
(375,557,cs),
(487,557,o),
(578,466,o),
(578,354,cs),
(578,242,o),
(487,151,o),
(375,151,cs)
);
},
{
closed = 1;
nodes = (
(388,377,l),
(388,718,l),
(362,718,l),
(362,377,l)
);
},
{
closed = 1;
nodes = (
(739,342,l),
(739,367,l),
(398,367,l),
(398,342,l)
);
}
);
userData = {
public.verticalOrigin = 1069;
};
width = 750;
}
);
note = uni2316;
unicode = 8982;
}
{
glyphname = propellor;
layers = (
{
layerId = "6E183CFB-E55F-4C96-8804-AC4D4AF4B24B";
shapes = (
{
closed = 1;
nodes = (
(316,0,o),
(352,70,o),
(352,154,cs),
(352,566,ls),
(352,650,o),
(316,720,o),
(204,720,cs),
(111,720,o),
(51,661,o),
(51,569,cs),
(51,472,o),
(109,415,o),
(223,415,cs),
(591,415,ls),
(705,415,o),
(763,472,o),
(763,569,cs),
(763,661,o),
(703,720,o),
(610,720,cs),
(498,720,o),
(462,650,o),
(462,566,cs),
(462,154,ls),
(462,70,o),
(498,0,o),
(610,0,cs),
(703,0,o),
(763,59,o),
(763,151,cs),
(763,248,o),
(705,305,o),
(591,305,cs),
(223,305,ls),
(109,305,o),
(51,248,o),
(51,151,cs),
(51,59,o),
(111,0,o),
(204,0,cs)
);
},
{
closed = 1;
nodes = (
(157,69,o),
(122,92,o),
(122,151,cs),
(122,208,o),
(152,237,o),
(223,237,cs),
(591,237,ls),
(662,237,o),
(692,208,o),
(692,151,cs),
(692,92,o),
(657,69,o),
(610,69,cs),
(558,69,o),
(532,101,o),
(532,152,cs),
(532,568,ls),
(532,619,o),
(558,651,o),
(610,651,cs),
(657,651,o),
(692,628,o),
(692,569,cs),
(692,512,o),
(662,483,o),
(591,483,cs),
(223,483,ls),
(152,483,o),
(122,512,o),
(122,569,cs),
(122,628,o),
(157,651,o),
(204,651,cs),
(256,651,o),
(282,619,o),
(282,568,cs),
(282,152,ls),
(282,101,o),
(256,69,o),
(204,69,cs)
);
}
);
userData = {
public.verticalOrigin = 1069;
};
width = 814;
}
);
note = uni2318;
unicode = 8984;
}
{
glyphname = watch;
layers = (
{
layerId = "6E183CFB-E55F-4C96-8804-AC4D4AF4B24B";
shapes = (
{
closed = 1;
nodes = (
(548,-137,l),
(548,11,l),
(671,72,o),
(749,193,o),
(749,328,cs),
(749,464,o),
(668,585,o),
(548,643,c),
(548,793,l),
(252,793,l),
(252,643,l),
(128,585,o),
(51,465,o),
(51,328,cs),
(51,192,o),
(127,71,o),
(252,11,c),
(252,-137,l)
);
},
{
closed = 1;
nodes = (
(293,100,o),
(304,111,o),
(304,123,cs),
(304,136,o),
(293,145,o),
(282,145,cs),
(270,145,o),
(260,136,o),
(260,123,cs),
(260,111,o),
(270,100,o),
(282,100,cs)
);
},
{
closed = 1;
nodes = (
(207,188,o),
(218,197,o),
(218,209,cs),
(218,220,o),
(207,231,o),
(195,231,cs),
(184,231,o),
(173,220,o),
(173,209,cs),
(173,197,o),
(184,188,o),
(195,188,cs)
);
},
{
closed = 1;
nodes = (
(412,69,o),
(423,79,o),
(423,91,cs),
(423,102,o),
(412,113,o),
(400,113,cs),
(388,113,o),
(377,102,o),
(377,91,cs),
(377,79,o),
(388,69,o),
(400,69,cs)
);
},
{
closed = 1;
nodes = (
(176,306,o),
(186,317,o),
(186,328,cs),
(186,340,o),
(176,351,o),
(164,351,cs),
(152,351,o),
(141,340,o),
(141,328,cs),
(141,317,o),
(152,306,o),
(164,306,cs)
);
},
{
closed = 1;
nodes = (
(531,100,o),
(540,111,o),
(540,123,cs),
(540,136,o),
(531,145,o),
(518,145,cs),
(507,145,o),
(496,136,o),
(496,123,cs),
(496,111,o),
(507,100,o),
(518,100,cs)
);
},
{
closed = 1;
nodes = (
(207,424,o),
(218,433,o),
(218,445,cs),
(218,457,o),
(207,467,o),
(195,467,cs),
(184,467,o),
(173,457,o),
(173,445,cs),
(173,433,o),
(184,424,o),
(195,424,cs)
);
},
{
closed = 1;
nodes = (
(253,60,o),
(132,181,o),
(132,328,cs),
(132,476,o),
(253,597,o),
(400,597,cs),
(548,597,o),
(668,477,o),
(668,328,cs),
(668,181,o),
(547,60,o),
(400,60,cs)
);
},
{
closed = 1;
nodes = (
(419,286,o),
(438,301,o),
(440,326,c),
(565,420,l),
(578,386,l),
(610,468,l),
(519,469,l),
(546,445,l),
(428,358,l),
(419,366,o),
(411,372,o),
(400,372,cs),
(387,372,o),
(375,366,o),
(364,355,c),
(297,398,l),
(325,425,l),
(237,420,l),
(269,338,l),
(282,374,l),
(355,326,l),
(358,301,o),
(375,286,o),
(396,286,cs)
);
},
{
closed = 1;
nodes = (
(293,509,o),
(304,519,o),
(304,532,cs),
(304,544,o),
(293,555,o),
(282,555,cs),
(270,555,o),
(260,544,o),
(260,532,cs),
(260,519,o),
(270,509,o),
(282,509,cs)
);
},
{
closed = 1;
nodes = (
(616,188,o),
(627,197,o),
(627,209,cs),
(627,220,o),
(616,231,o),
(605,231,cs),
(593,231,o),
(582,220,o),
(582,209,cs),
(582,197,o),
(593,188,o),
(605,188,cs)
);
},
{
closed = 1;
nodes = (
(412,542,o),
(423,551,o),
(423,562,cs),
(423,574,o),
(412,585,o),
(400,585,cs),
(388,585,o),
(377,574,o),
(377,562,cs),
(377,551,o),
(388,542,o),
(400,542,cs)
);
},
{
closed = 1;
nodes = (
(648,306,o),
(659,317,o),
(659,328,cs),
(659,340,o),
(648,351,o),
(636,351,cs),
(624,351,o),
(614,340,o),
(614,328,cs),
(614,317,o),
(624,306,o),
(636,306,cs)
);
},
{
closed = 1;
nodes = (
(531,509,o),
(540,519,o),
(540,532,cs),
(540,544,o),
(531,555,o),
(518,555,cs),
(507,555,o),
(496,544,o),
(496,532,cs),
(496,519,o),
(507,509,o),
(518,509,cs)
);
}
);
userData = {
public.verticalOrigin = 1069;
};
width = 800;
}
);
note = uni231A;
unicode = 8986;
}
{
glyphname = hourglass;
layers = (
{
layerId = "6E183CFB-E55F-4C96-8804-AC4D4AF4B24B";
shapes = (
{
closed = 1;
nodes = (
(675,0,l),
(675,43,l),
(594,43,l),
(594,215,ls),
(594,275,o),
(554,329,o),
(478,361,cs),
(437,378,l),
(433,385,o),
(432,394,o),
(432,405,cs),
(432,417,o),
(433,426,o),
(437,433,c),
(478,450,ls),
(554,482,o),
(594,537,o),
(594,596,cs),
(594,769,l),
(675,769,l),
(675,812,l),
(51,812,l),
(51,769,l),
(132,769,l),
(132,596,ls),
(132,538,o),
(170,482,o),
(248,450,cs),
(289,433,l),
(293,424,o),
(294,415,o),
(294,405,cs),
(294,395,o),
(293,386,o),
(289,378,c),
(248,361,ls),
(170,329,o),
(132,274,o),
(132,215,cs),
(132,43,l),
(51,43,l),
(51,0,l)
);
},
{
closed = 1;
nodes = (
(522,66,l),
(522,202,ls),
(522,255,o),
(465,298,o),
(362,298,cs),
(258,298,o),
(201,254,o),
(201,202,cs),
(201,66,l)
);
},
{
closed = 1;
nodes = (
(177,215,ls),
(177,268,o),
(214,306,o),
(275,331,cs),
(317,348,l),
(330,357,o),
(335,376,o),
(335,405,cs),
(335,434,o),
(330,454,o),
(317,463,c),
(275,480,ls),
(209,507,o),
(177,545,o),
(177,596,cs),
(177,769,l),
(549,769,l),
(549,596,ls),
(549,545,o),
(517,507,o),
(451,480,cs),
(409,463,l),
(398,454,o),
(391,434,o),
(391,405,cs),
(391,376,o),
(398,357,o),
(409,348,c),
(451,331,ls),
(511,307,o),
(549,269,o),
(549,215,cs),
(549,43,l),
(177,43,l)
);
}
);
userData = {
public.verticalOrigin = 1069;
};
width = 726;
}
);
note = uni231B;
unicode = 8987;
}
{
glyphname = upBetweenTwoHorizontalBarsArrowHead;
layers = (
{
layerId = "6E183CFB-E55F-4C96-8804-AC4D4AF4B24B";
shapes = (
{
closed = 1;
nodes = (
(305,140,l),
(444,406,l),
(583,140,l),
(664,140,l),
(454,536,l),
(434,536,l),
(224,140,l)
);
},
{
closed = 1;
nodes = (
(298,465,l),
(298,536,l),
(51,536,l),
(51,465,l)
);
},
{
closed = 1;
nodes = (
(837,465,l),
(837,536,l),
(590,536,l),
(590,465,l)
);
}
);
userData = {
public.verticalOrigin = 1069;
};
width = 888;
}
);
note = uni2324;
unicode = 8996;
}
{
glyphname = optionKey;
layers = (
{
layerId = "6E183CFB-E55F-4C96-8804-AC4D4AF4B24B";
shapes = (
{
closed = 1;
nodes = (
(837,129,l),
(837,200,l),
(617,200,l),
(298,537,l),
(51,537,l),
(51,466,l),
(271,466,l),
(590,129,l)
);
},
{
closed = 1;
nodes = (
(837,466,l),
(837,537,l),
(590,537,l),
(590,466,l)
);
}
);
userData = {
public.verticalOrigin = 1069;
};
width = 888;
}
);
note = uni2325;
unicode = 8997;
}
{
glyphname = deleterightKey;
layers = (
{
layerId = "6E183CFB-E55F-4C96-8804-AC4D4AF4B24B";
shapes = (
{
closed = 1;
nodes = (
(844,0,l),
(1146,347,l),
(844,694,l),
(51,694,l),
(51,0,l)
);
},
{
closed = 1;
nodes = (
(487,294,l),
(662,110,l),
(715,160,l),
(537,347,l),
(715,534,l),
(663,584,l),
(487,399,l),
(311,584,l),
(259,534,l),
(437,347,l),
(259,160,l),
(312,110,l)
);
},
{
closed = 1;
nodes = (
(123,623,l),
(807,623,l),
(1049,347,l),
(807,71,l),
(123,71,l)
);
}
);
userData = {
public.verticalOrigin = 1069;
};
width = 1197;
}
);
note = uni2326;
unicode = 8998;
}
{
glyphname = clear;
layers = (
{
layerId = "6E183CFB-E55F-4C96-8804-AC4D4AF4B24B";
shapes = (
{
closed = 1;
nodes = (
(1025,0,l),
(1025,694,l),
(51,694,l),
(51,0,l)
);
},
{
closed = 1;
nodes = (
(123,623,l),
(953,623,l),
(953,71,l),
(123,71,l)
);
},
{
closed = 1;
nodes = (
(538,294,l),
(713,110,l),
(766,160,l),
(588,347,l),
(766,534,l),
(714,584,l),
(538,399,l),
(362,584,l),
(310,534,l),
(488,347,l),
(310,160,l),
(363,110,l)
);
}
);
userData = {
public.verticalOrigin = 1069;
};
width = 1076;
}
);
note = uni2327;
unicode = 8999;
}
{
glyphname = keyboard;
layers = (
{
layerId = "6E183CFB-E55F-4C96-8804-AC4D4AF4B24B";
shapes = (
{
closed = 1;
nodes = (
(973,0,l),
(973,714,l),
(51,714,l),
(51,0,l)
);
},
{
closed = 1;
nodes = (
(269,261,l),
(269,324,l),
(206,324,l),
(206,261,l)
);
},
{
closed = 1;
nodes = (
(269,391,l),
(269,454,l),
(206,454,l),
(206,391,l)
);
},
{
closed = 1;
nodes = (
(409,261,l),
(409,324,l),
(346,324,l),
(346,261,l)
);
},
{
closed = 1;
nodes = (
(758,131,l),
(758,194,l),
(266,194,l),
(266,131,l)
);
},
{
closed = 1;
nodes = (
(269,521,l),
(269,584,l),
(206,584,l),
(206,521,l)
);
},
{
closed = 1;
nodes = (
(409,391,l),
(409,454,l),
(346,454,l),
(346,391,l)
);
},
{
closed = 1;
nodes = (
(548,261,l),
(548,324,l),
(485,324,l),
(485,261,l)
);
},
{
closed = 1;
nodes = (
(123,643,l),
(901,643,l),
(901,71,l),
(123,71,l)
);
},
{
closed = 1;
nodes = (
(409,521,l),
(409,584,l),
(346,584,l),
(346,521,l)
);
},
{
closed = 1;
nodes = (
(548,391,l),
(548,454,l),
(485,454,l),
(485,391,l)
);
},
{
closed = 1;
nodes = (
(688,261,l),
(688,324,l),
(625,324,l),
(625,261,l)
);
},
{
closed = 1;
nodes = (
(548,521,l),
(548,584,l),
(485,584,l),
(485,521,l)
);
},
{
closed = 1;
nodes = (
(688,391,l),
(688,454,l),
(625,454,l),
(625,391,l)
);
},
{
closed = 1;
nodes = (
(828,261,l),
(828,324,l),
(765,324,l),
(765,261,l)
);
},
{
closed = 1;
nodes = (
(688,521,l),
(688,584,l),
(625,584,l),
(625,521,l)
);
},
{
closed = 1;
nodes = (
(828,391,l),
(828,454,l),
(765,454,l),
(765,391,l)
);
},
{
closed = 1;
nodes = (
(828,521,l),
(828,584,l),
(765,584,l),
(765,521,l)
);
}
);
userData = {
public.verticalOrigin = 1069;
};
width = 1024;
}
);
note = uni2328;
unicode = 9000;
}
{
glyphname = deleteLeftKey;
layers = (
{
layerId = "6E183CFB-E55F-4C96-8804-AC4D4AF4B24B";
shapes = (
{
closed = 1;
nodes = (
(1146,0,l),
(1146,694,l),
(353,694,l),
(51,347,l),
(353,0,l)
);
},
{
closed = 1;
nodes = (
(148,347,l),
(390,623,l),
(1074,623,l),
(1074,71,l),
(390,71,l)
);
},
{
closed = 1;
nodes = (
(710,294,l),
(885,110,l),
(938,160,l),
(760,347,l),
(938,534,l),
(886,584,l),
(710,399,l),
(534,584,l),
(482,534,l),
(660,347,l),
(482,160,l),
(535,110,l)
);
}
);
userData = {
public.verticalOrigin = 1069;
};
width = 1197;
}
);
note = uni232B;
unicode = 9003;
}
{
glyphname = notCheckmark;
layers = (
{
layerId = "6E183CFB-E55F-4C96-8804-AC4D4AF4B24B";
shapes = (
{
closed = 1;
nodes = (
(319,-7,l),
(478,453,l),
(651,453,l),
(651,524,l),
(503,524,l),
(608,827,l),
(537,827,l),
(431,524,l),
(256,524,l),
(256,453,l),
(406,453,l),
(280,90,l),
(145,372,l),
(65,372,l),
(254,-7,l)
);
}
);
userData = {
public.verticalOrigin = 1069;
};
width = 712;
}
);
unicode = 9083;
}
{
glyphname = shoulderedopenbox;
layers = (
{
layerId = "6E183CFB-E55F-4C96-8804-AC4D4AF4B24B";
shapes = (
{
closed = 1;
nodes = (
(764,-209,l),
(764,40,l),
(692,40,l),
(692,-138,l),
(243,-138,l),
(243,40,l),
(171,40,l),
(171,-209,l)
);
},
{
closed = 1;
nodes = (
(243,0,l),
(243,71,l),
(51,71,l),
(51,0,l)
);
},
{
closed = 1;
nodes = (
(884,0,l),
(884,71,l),
(692,71,l),
(692,0,l)
);
}
);
userData = {
public.verticalOrigin = 1069;
};
width = 935;
}
);
note = uni237D;
unicode = 9085;
}
{
glyphname = bellsymbol;
layers = (
{
layerId = "6E183CFB-E55F-4C96-8804-AC4D4AF4B24B";
shapes = (
{
closed = 1;
nodes = (
(275,0,l),
(275,267,l),
(495,267,l),
(495,0,l),
(714,0,l),
(714,71,l),
(566,71,l),
(566,267,l),
(714,267,l),
(714,449,o),
(566,596,o),
(385,596,cs),
(202,596,o),
(56,448,o),
(56,267,c),
(204,267,l),
(204,71,l),
(56,71,l),
(56,0,l)
);
},
{
closed = 1;
nodes = (
(169,446,o),
(270,525,o),
(385,525,cs),
(500,525,o),
(600,449,o),
(633,338,c),
(137,338,l)
);
}
);
userData = {
public.verticalOrigin = 1069;
};
width = 770;
}
);
unicode = 9086;
}
{
glyphname = verticallinemiddledot;
layers = (
{
layerId = "6E183CFB-E55F-4C96-8804-AC4D4AF4B24B";
shapes = (
{
closed = 1;
nodes = (
(195,0,l),
(195,240,l),
(220,252,o),
(237,278,o),
(237,309,cs),
(237,339,o),
(220,365,o),
(195,378,c),
(195,617,l),
(124,617,l),
(124,377,l),
(99,365,o),
(83,339,o),
(83,309,cs),
(83,278,o),
(99,253,o),
(124,240,c),
(124,0,l)
);
}
);
userData = {
public.verticalOrigin = 1069;
};
width = 320;
}
);
unicode = 9087;
}
{
glyphname = softwareFunctionsymbol;
layers = (
{
layerId = "6E183CFB-E55F-4C96-8804-AC4D4AF4B24B";
shapes = (
{
closed = 1;
nodes = (
(272,0,l),
(696,0,l),
(917,362,l),
(696,724,l),
(272,724,l),
(51,362,l)
);
},
{
closed = 1;
nodes = (
(302,674,l),
(666,674,l),
(856,362,l),
(666,50,l),
(302,50,l),
(112,362,l)
);
}
);
userData = {
public.verticalOrigin = 1069;
};
width = 968;
}
);
unicode = 9108;
}
{
glyphname = blackRightDoubleTriangle;
layers = (
{
layerId = "6E183CFB-E55F-4C96-8804-AC4D4AF4B24B";
shapes = (
{
closed = 1;
nodes = (
(773,338,l),
(476,606,l),
(476,70,l)
);
},
{
closed = 1;
nodes = (
(434,338,l),
(137,606,l),
(137,70,l)
);
}
);
userData = {
public.verticalOrigin = 1069;
};
width = 910;
}
);
note = uni23E9;
unicode = 9193;
}
{
glyphname = blackLeftDoubleTriangle;
layers = (
{
layerId = "6E183CFB-E55F-4C96-8804-AC4D4AF4B24B";
shapes = (
{
closed = 1;
nodes = (
(773,606,l),
(476,338,l),
(773,70,l)
);
},
{
closed = 1;
nodes = (
(434,606,l),
(137,338,l),
(434,70,l)
);
}
);
userData = {
public.verticalOrigin = 1069;
};
width = 910;
}
);
note = uni23EA;
unicode = 9194;
}
{
glyphname = blackRightDoubleTriangleWithVerticalBar;
layers = (
{
layerId = "6E183CFB-E55F-4C96-8804-AC4D4AF4B24B";
shapes = (
{
closed = 1;
nodes = (
(349,339,l),
(52,606,l),
(52,70,l)
);
},
{
closed = 1;
nodes = (
(684,339,l),
(389,606,l),
(389,70,l)
);
},
{
closed = 1;
nodes = (
(858,70,l),
(858,606,l),
(729,606,l),
(729,70,l)
);
}
);
userData = {
public.verticalOrigin = 1069;
};
width = 910;
}
);
note = uni23ED;
unicode = 9197;
}
{
glyphname = blackLeftDoubleTriangleWithVerticalBar;
layers = (
{
layerId = "6E183CFB-E55F-4C96-8804-AC4D4AF4B24B";
shapes = (
{
closed = 1;
nodes = (
(858,606,l),
(561,339,l),
(858,70,l)
);
},
{
closed = 1;
nodes = (
(181,70,l),
(181,606,l),
(52,606,l),
(52,70,l)
);
},
{
closed = 1;
nodes = (
(521,606,l),
(226,339,l),
(521,70,l)
);
}
);
userData = {
public.verticalOrigin = 1069;
};
width = 910;
}
);
note = uni23EE;
unicode = 9198;
}
{
glyphname = blackRightTriangleWithDoubleVerticalBar;
layers = (
{
layerId = "6E183CFB-E55F-4C96-8804-AC4D4AF4B24B";
shapes = (
{
closed = 1;
nodes = (
(397,339,l),
(100,606,l),
(100,70,l)
);
},
{
closed = 1;
nodes = (
(566,70,l),
(566,606,l),
(437,606,l),
(437,70,l)
);
},
{
closed = 1;
nodes = (
(810,70,l),
(810,606,l),
(681,606,l),
(681,70,l)
);
}
);
userData = {
public.verticalOrigin = 1069;
};
width = 910;
}
);
note = uni23EF;
unicode = 9199;
}
{
glyphname = stopwatch;
layers = (
{
layerId = "6E183CFB-E55F-4C96-8804-AC4D4AF4B24B";
shapes = (
{
closed = 1;
nodes = (
(765,-110,o),
(975,100,o),
(975,357,cs),
(975,615,o),
(763,824,o),
(508,824,cs),
(254,824,o),
(40,619,o),
(40,357,cs),
(40,106,o),
(247,-110,o),
(508,-110,cs)
);
},
{
closed = 1;
nodes = (
(242,165,o),
(254,179,o),
(254,196,cs),
(254,212,o),
(242,226,o),
(224,226,cs),
(207,226,o),
(193,212,o),
(193,196,cs),
(193,179,o),
(207,165,o),
(224,165,cs)
);
},
{
closed = 1;
nodes = (
(361,45,o),
(375,59,o),
(375,75,cs),
(375,92,o),
(361,106,o),
(344,106,cs),
(328,106,o),
(314,92,o),
(314,75,cs),
(314,59,o),
(328,45,o),
(344,45,cs)
);
},
{
closed = 1;
nodes = (
(524,0,o),
(538,14,o),
(538,31,cs),
(538,48,o),
(524,61,o),
(508,61,cs),
(491,61,o),
(477,48,o),
(477,31,cs),
(477,14,o),
(491,0,o),
(508,0,cs)
);
},
{
closed = 1;
nodes = (
(198,327,o),
(211,341,o),
(211,357,cs),
(211,374,o),
(198,388,o),
(181,388,cs),
(163,388,o),
(151,374,o),
(151,357,cs),
(151,341,o),
(163,327,o),
(181,327,cs)
);
},
{
closed = 1;
nodes = (
(242,487,o),
(254,501,o),
(254,518,cs),
(254,534,o),
(242,548,o),
(224,548,cs),
(207,548,o),
(193,534,o),
(193,518,cs),
(193,501,o),
(207,487,o),
(224,487,cs)
);
},
{
closed = 1;
nodes = (
(687,45,o),
(701,59,o),
(701,75,cs),
(701,92,o),
(687,106,o),
(671,106,cs),
(654,106,o),
(640,92,o),
(640,75,cs),
(640,59,o),
(654,45,o),
(671,45,cs)
);
},
{
closed = 1;
nodes = (
(288,-38,o),
(112,136,o),
(112,357,cs),
(112,579,o),
(288,753,o),
(508,753,cs),
(730,753,o),
(903,579,o),
(903,357,cs),
(903,136,o),
(727,-38,o),
(508,-38,cs)
);
},
{
closed = 1;
nodes = (
(361,608,o),
(375,622,o),
(375,638,cs),
(375,655,o),
(361,669,o),
(344,669,cs),
(328,669,o),
(314,655,o),
(314,638,cs),
(314,622,o),
(328,608,o),
(344,608,cs)
);
},
{
closed = 1;
nodes = (
(808,165,o),
(822,179,o),
(822,196,cs),
(822,212,o),
(808,226,o),
(791,226,cs),
(773,226,o),
(761,212,o),
(761,196,cs),
(761,179,o),
(773,165,o),
(791,165,cs)
);
},
{
closed = 1;
nodes = (
(541,298,o),
(567,323,o),
(567,357,cs),
(567,382,o),
(552,404,o),
(528,411,c),
(528,651,l),
(578,640,l),
(508,738,l),
(437,640,l),
(487,651,l),
(487,411,l),
(463,404,o),
(448,382,o),
(448,357,cs),
(448,323,o),
(474,298,o),
(508,298,cs)
);
},
{
closed = 1;
nodes = (
(852,327,o),
(864,341,o),
(864,357,cs),
(864,374,o),
(852,388,o),
(834,388,cs),
(817,388,o),
(804,374,o),
(804,357,cs),
(804,341,o),
(817,327,o),
(834,327,cs)
);
},
{
closed = 1;
nodes = (
(808,487,o),
(822,501,o),
(822,518,cs),
(822,534,o),
(808,548,o),
(791,548,cs),
(773,548,o),
(761,534,o),
(761,518,cs),
(761,501,o),
(773,487,o),
(791,487,cs)
);
},
{
closed = 1;
nodes = (
(687,608,o),
(701,622,o),
(701,638,cs),
(701,655,o),
(687,669,o),
(671,669,cs),
(654,669,o),
(640,655,o),
(640,638,cs),
(640,622,o),
(654,608,o),
(671,608,cs)
);
},
{
closed = 1;
nodes = (
(604,851,l),
(604,945,l),
(411,945,l),
(411,851,l)
);
},
{
closed = 1;
nodes = (
(949,724,l),
(891,779,l),
(838,724,l),
(895,667,l)
);
}
);
userData = {
public.verticalOrigin = 1069;
};
width = 1015;
}
);
note = uni23F1;
unicode = 9201;
}
{
glyphname = timerClock;
layers = (
{
layerId = "6E183CFB-E55F-4C96-8804-AC4D4AF4B24B";
shapes = (
{
closed = 1;
nodes = (
(762,-110,o),
(975,95,o),
(975,357,cs),
(975,607,o),
(769,824,o),
(508,824,cs),
(250,824,o),
(40,613,o),
(40,357,cs),
(40,101,o),
(251,-110,o),
(508,-110,cs)
);
},
{
closed = 1;
nodes = (
(361,45,o),
(375,59,o),
(375,75,cs),
(375,92,o),
(361,105,o),
(344,105,cs),
(328,105,o),
(314,92,o),
(314,75,cs),
(314,59,o),
(328,45,o),
(344,45,cs)
);
},
{
closed = 1;
nodes = (
(242,165,o),
(256,179,o),
(256,195,cs),
(256,212,o),
(242,226,o),
(225,226,cs),
(208,226,o),
(195,212,o),
(195,195,cs),
(195,179,o),
(208,165,o),
(225,165,cs)
);
},
{
closed = 1;
nodes = (
(198,327,o),
(212,340,o),
(212,357,cs),
(212,374,o),
(198,386,o),
(181,386,cs),
(164,386,o),
(150,374,o),
(150,357,cs),
(150,340,o),
(164,327,o),
(181,327,cs)
);
},
{
closed = 1;
nodes = (
(524,1,o),
(538,15,o),
(538,31,cs),
(538,47,o),
(524,61,o),
(508,61,cs),
(491,61,o),
(477,47,o),
(477,31,cs),
(477,15,o),
(491,1,o),
(508,1,cs)
);
},
{
closed = 1;
nodes = (
(242,488,o),
(256,502,o),
(256,517,cs),
(256,534,o),
(242,548,o),
(225,548,cs),
(208,548,o),
(195,534,o),
(195,517,cs),
(195,502,o),
(208,488,o),
(225,488,cs)
);
},
{
closed = 1;
nodes = (
(688,45,o),
(701,59,o),
(701,75,cs),
(701,92,o),
(688,105,o),
(671,105,cs),
(654,105,o),
(640,92,o),
(640,75,cs),
(640,59,o),
(654,45,o),
(671,45,cs)
);
},
{
closed = 1;
nodes = (
(538,296,o),
(567,330,o),
(567,361,cs),
(567,378,o),
(557,392,o),
(540,400,cs),
(296,522,l),
(265,474,l),
(480,308,l),
(489,301,o),
(501,296,o),
(509,296,cs)
);
},
{
closed = 1;
nodes = (
(288,-38,o),
(112,136,o),
(112,357,cs),
(112,579,o),
(288,752,o),
(508,752,cs),
(730,752,o),
(903,579,o),
(903,357,cs),
(903,136,o),
(727,-38,o),
(508,-38,cs)
);
},
{
closed = 1;
nodes = (
(361,607,o),
(375,621,o),
(375,638,cs),
(375,655,o),
(361,669,o),
(344,669,cs),
(328,669,o),
(314,655,o),
(314,638,cs),
(314,621,o),
(328,607,o),
(344,607,cs)
);
},
{
closed = 1;
nodes = (
(807,165,o),
(820,179,o),
(820,195,cs),
(820,212,o),
(807,226,o),
(790,226,cs),
(773,226,o),
(759,212,o),
(759,195,cs),
(759,179,o),
(773,165,o),
(790,165,cs)
);
},
{
closed = 1;
nodes = (
(524,652,o),
(538,666,o),
(538,682,cs),
(538,699,o),
(524,713,o),
(508,713,cs),
(491,713,o),
(477,699,o),
(477,682,cs),
(477,666,o),
(491,652,o),
(508,652,cs)
);
},
{
closed = 1;
nodes = (
(851,327,o),
(865,340,o),
(865,357,cs),
(865,374,o),
(851,386,o),
(834,386,cs),
(817,386,o),
(803,374,o),
(803,357,cs),
(803,340,o),
(817,327,o),
(834,327,cs)
);
},
{
closed = 1;
nodes = (
(807,488,o),
(820,502,o),
(820,517,cs),
(820,534,o),
(807,548,o),
(790,548,cs),
(773,548,o),
(759,534,o),
(759,517,cs),
(759,502,o),
(773,488,o),
(790,488,cs)
);
},
{
closed = 1;
nodes = (
(688,607,o),
(701,621,o),
(701,638,cs),
(701,655,o),
(688,669,o),
(671,669,cs),
(654,669,o),
(640,655,o),
(640,638,cs),
(640,621,o),
(654,607,o),
(671,607,cs)
);
}
);
userData = {
public.verticalOrigin = 1069;
};
width = 1015;
}
);
note = uni23F2;
unicode = 9202;
}
{
glyphname = hourglassWithFlowingSand;
layers = (
{
layerId = "6E183CFB-E55F-4C96-8804-AC4D4AF4B24B";
shapes = (
{
closed = 1;
nodes = (
(675,0,l),
(675,43,l),
(595,43,l),
(595,215,ls),
(595,275,o),
(555,331,o),
(479,361,cs),
(438,377,l),
(434,385,o),
(432,394,o),
(432,405,cs),
(432,417,o),
(434,425,o),
(438,433,c),
(479,450,ls),
(554,481,o),
(595,537,o),
(595,596,cs),
(595,769,l),
(675,769,l),
(675,812,l),
(51,812,l),
(51,769,l),
(132,769,l),
(132,596,ls),
(132,538,o),
(171,483,o),
(248,450,cs),
(288,433,l),
(293,424,o),
(294,415,o),
(294,405,cs),
(294,395,o),
(293,386,o),
(288,377,c),
(248,361,ls),
(170,330,o),
(132,274,o),
(132,215,cs),
(132,43,l),
(51,43,l),
(51,0,l)
);
},
{
closed = 1;
nodes = (
(522,65,l),
(522,155,ls),
(522,200,o),
(475,221,o),
(380,221,c),
(380,230,l),
(344,230,l),
(344,221,l),
(249,221,o),
(202,200,o),
(202,155,cs),
(202,65,l)
);
},
{
closed = 1;
nodes = (
(378,248,l),
(378,267,l),
(348,267,l),
(348,248,l)
);
},
{
closed = 1;
nodes = (
(375,283,l),
(375,302,l),
(349,302,l),
(349,283,l)
);
},
{
closed = 1;
nodes = (
(374,317,l),
(374,335,l),
(350,335,l),
(350,317,l)
);
},
{
closed = 1;
nodes = (
(372,352,l),
(372,370,l),
(352,370,l),
(352,352,l)
);
},
{
closed = 1;
nodes = (
(372,387,l),
(372,405,l),
(353,405,l),
(353,387,l)
);
},
{
closed = 1;
nodes = (
(178,215,ls),
(178,268,o),
(214,307,o),
(276,331,cs),
(317,347,l),
(329,357,o),
(336,376,o),
(336,405,cs),
(336,435,o),
(329,454,o),
(317,463,c),
(276,480,ls),
(210,507,o),
(178,545,o),
(178,596,cs),
(178,769,l),
(549,769,l),
(549,596,ls),
(549,545,o),
(516,507,o),
(450,480,cs),
(409,463,l),
(398,454,o),
(391,435,o),
(391,405,cs),
(391,376,o),
(398,357,o),
(409,347,c),
(450,331,ls),
(511,307,o),
(549,268,o),
(549,215,cs),
(549,43,l),
(178,43,l)
);
},
{
closed = 1;
nodes = (
(372,415,l),
(383,470,o),
(391,480,o),
(436,493,cs),
(480,506,o),
(510,532,o),
(522,579,c),
(202,579,l),
(216,526,o),
(247,505,o),
(291,492,cs),
(335,479,o),
(342,468,o),
(353,415,c)
);
}
);
userData = {
public.verticalOrigin = 1069;
};
width = 726;
}
);
note = uni23F3;
unicode = 9203;
}
{
glyphname = blackMediumLeftTriangle;
layers = (
{
layerId = "6E183CFB-E55F-4C96-8804-AC4D4AF4B24B";
shapes = (
{
closed = 1;
nodes = (
(432,628,l),
(154,350,l),
(432,72,l)
);
}
);
userData = {
public.verticalOrigin = 1069;
};
width = 586;
}
);
unicode = 9204;
}
{
glyphname = blackMediumRightTriangle;
layers = (
{
layerId = "6E183CFB-E55F-4C96-8804-AC4D4AF4B24B";
shapes = (
{
closed = 1;
nodes = (
(154,72,l),
(432,350,l),
(154,628,l)
);
}
);
userData = {
public.verticalOrigin = 1069;
};
width = 586;
}
);
unicode = 9205;
}
{
glyphname = blackMediumUpTriangle;
layers = (
{
layerId = "6E183CFB-E55F-4C96-8804-AC4D4AF4B24B";
shapes = (
{
closed = 1;
nodes = (
(571,211,l),
(293,489,l),
(15,211,l)
);
}
);
userData = {
public.verticalOrigin = 1069;
};
width = 586;
}
);
unicode = 9206;
}
{
glyphname = blackMediumDownTriangle;
layers = (
{
layerId = "6E183CFB-E55F-4C96-8804-AC4D4AF4B24B";
shapes = (
{
closed = 1;
nodes = (
(15,489,l),
(293,211,l),
(571,489,l)
);
}
);
userData = {
public.verticalOrigin = 1069;
};
width = 586;
}
);
unicode = 9207;
}
{
glyphname = doubleVerticalBar;
layers = (
{
layerId = "6E183CFB-E55F-4C96-8804-AC4D4AF4B24B";
shapes = (
{
closed = 1;
nodes = (
(670,10,l),
(670,666,l),
(517,666,l),
(517,10,l)
);
},
{
closed = 1;
nodes = (
(392,10,l),
(392,666,l),
(240,666,l),
(240,10,l)
);
}
);
userData = {
public.verticalOrigin = 1069;
};
width = 910;
}
);
unicode = 9208;
}
{
glyphname = blackSquareForStop;
layers = (
{
layerId = "6E183CFB-E55F-4C96-8804-AC4D4AF4B24B";
shapes = (
{
closed = 1;
nodes = (
(723,70,l),
(723,605,l),
(188,605,l),
(188,70,l)
);
}
);
userData = {
public.verticalOrigin = 1069;
};
width = 910;
}
);
unicode = 9209;
}
{
glyphname = blackCircleForRecord;
layers = (
{
layerId = "6E183CFB-E55F-4C96-8804-AC4D4AF4B24B";
shapes = (
{
closed = 1;
nodes = (
(626,38,o),
(765,177,o),
(765,348,cs),
(765,519,o),
(626,658,o),
(455,658,cs),
(284,658,o),
(145,519,o),
(145,348,cs),
(145,177,o),
(284,38,o),
(455,38,cs)
);
}
);
userData = {
public.verticalOrigin = 1069;
};
width = 910;
}
);
unicode = 9210;
}
{
glyphname = uni23FB;
layers = (
{
layerId = "6E183CFB-E55F-4C96-8804-AC4D4AF4B24B";
shapes = (
{
closed = 1;
nodes = (
(677,-40,o),
(848,127,o),
(848,353,cs),
(848,481,o),
(794,608,o),
(690,682,c),
(636,612,l),
(722,554,o),
(761,445,o),
(761,353,cs),
(761,182,o),
(629,46,o),
(446,46,cs),
(265,46,o),
(133,182,o),
(133,353,cs),
(133,445,o),
(172,554,o),
(258,612,c),
(204,682,l),
(100,608,o),
(46,481,o),
(46,353,cs),
(46,127,o),
(216,-40,o),
(447,-40,cs)
);
},
{
closed = 1;
nodes = (
(497,399,l),
(497,802,l),
(393,802,l),
(393,399,l)
);
}
);
userData = {
public.verticalOrigin = 1069;
};
width = 894;
}
);
unicode = 9211;
}
{
glyphname = uni23FC;
layers = (
{
layerId = "6E183CFB-E55F-4C96-8804-AC4D4AF4B24B";
shapes = (
{
closed = 1;
nodes = (
(668,-40,o),
(849,139,o),
(849,361,cs),
(849,583,o),
(668,763,o),
(447,763,cs),
(224,763,o),
(45,583,o),
(45,361,cs),
(45,139,o),
(224,-40,o),
(447,-40,cs)
);
},
{
closed = 1;
nodes = (
(497,132,l),
(497,582,l),
(393,582,l),
(393,132,l)
);
},
{
closed = 1;
nodes = (
(271,45,o),
(129,185,o),
(129,361,cs),
(129,536,o),
(271,678,o),
(447,678,cs),
(622,678,o),
(764,536,o),
(764,361,cs),
(764,185,o),
(622,45,o),
(447,45,cs)
);
}
);
userData = {
public.verticalOrigin = 1069;
};
width = 894;
}
);
unicode = 9212;
}
{
glyphname = uni23FD;
layers = (
{
layerId = "6E183CFB-E55F-4C96-8804-AC4D4AF4B24B";
shapes = (
{
closed = 1;
nodes = (
(499,24,l),
(499,700,l),
(395,700,l),
(395,24,l)
);
}
);
userData = {
public.verticalOrigin = 1069;
};
width = 894;
}
);
unicode = 9213;
}
{
glyphname = uni23FE;
layers = (
{
layerId = "6E183CFB-E55F-4C96-8804-AC4D4AF4B24B";
shapes = (
{
closed = 1;
nodes = (
(615,1,o),
(733,69,o),
(807,171,c),
(746,134,o),
(675,114,o),
(599,114,cs),
(377,114,o),
(200,291,o),
(200,513,cs),
(200,589,o),
(220,660,o),
(257,721,c),
(154,647,o),
(87,529,o),
(87,385,cs),
(87,163,o),
(249,1,o),
(472,1,cs)
);
}
);
userData = {
public.verticalOrigin = 1069;
};
width = 894;
}
);
unicode = 9214;
}
{
glyphname = observerEyeSymbol;
layers = (
{
layerId = "6E183CFB-E55F-4C96-8804-AC4D4AF4B24B";
shapes = (
{
closed = 1;
nodes = (
(926,-7,l),
(162,334,l),
(162,307,l),
(926,705,l),
(899,756,l),
(57,317,l),
(902,-60,l)
);
},
{
closed = 1;
nodes = (
(864,39,o),
(904,196,o),
(904,396,cs),
(904,548,o),
(880,657,o),
(785,657,cs),
(676,657,o),
(636,500,o),
(636,300,cs),
(636,148,o),
(660,39,o),
(755,39,cs)
);
},
{
closed = 1;
nodes = (
(713,97,o),
(694,164,o),
(694,300,cs),
(694,492,o),
(732,599,o),
(785,599,cs),
(827,599,o),
(846,532,o),
(846,396,cs),
(846,204,o),
(808,97,o),
(755,97,cs)
);
}
);
userData = {
public.verticalOrigin = 1069;
};
width = 1000;
}
);
unicode = 9215;
}
{
glyphname = nullControl;
layers = (
{
layerId = "6E183CFB-E55F-4C96-8804-AC4D4AF4B24B";
shapes = (
{
closed = 1;
nodes = (
(365,228,o),
(392,261,o),
(392,309,cs),
(392,458,l),
(354,458,l),
(354,309,ls),
(354,275,o),
(341,258,o),
(315,258,cs),
(288,258,o),
(274,275,o),
(274,309,cs),
(274,458,l),
(236,458,l),
(236,310,ls),
(236,259,o),
(265,228,o),
(314,228,cs)
);
},
{
closed = 1;
nodes = (
(570,0,l),
(570,30,l),
(473,30,l),
(473,227,l),
(436,227,l),
(436,0,l)
);
},
{
closed = 1;
nodes = (
(70,463,l),
(70,590,l),
(68,636,l),
(148,463,l),
(188,463,l),
(188,690,l),
(153,690,l),
(153,540,l),
(154,518,l),
(75,690,l),
(35,690,l),
(35,463,l)
);
}
);
userData = {
public.verticalOrigin = 1069;
};
width = 600;
}
);
note = uni2400;
unicode = 9216;
}
{
glyphname = startOfHeadingControl;
layers = (
{
layerId = "6E183CFB-E55F-4C96-8804-AC4D4AF4B24B";
shapes = (
{
closed = 1;
nodes = (
(361,227,o),
(388,276,o),
(388,347,cs),
(388,424,o),
(357,463,o),
(296,463,cs),
(235,463,o),
(204,424,o),
(204,347,cs),
(204,267,o),
(234,227,o),
(295,227,cs)
);
},
{
closed = 1;
nodes = (
(447,0,l),
(447,103,l),
(528,103,l),
(528,0,l),
(565,0,l),
(565,227,l),
(528,227,l),
(528,133,l),
(447,133,l),
(447,227,l),
(410,227,l),
(410,0,l)
);
},
{
closed = 1;
nodes = (
(262,257,o),
(245,287,o),
(245,347,cs),
(245,404,o),
(262,433,o),
(296,433,cs),
(330,433,o),
(347,404,o),
(347,347,cs),
(347,287,o),
(330,257,o),
(295,257,cs)
);
},
{
closed = 1;
nodes = (
(149,458,o),
(184,479,o),
(184,524,cs),
(184,567,o),
(134,585,o),
(98,601,cs),
(80,609,o),
(71,621,o),
(71,635,cs),
(71,654,o),
(88,665,o),
(112,665,cs),
(130,665,o),
(148,661,o),
(167,652,c),
(178,680,l),
(157,689,o),
(135,694,o),
(110,694,cs),
(69,694,o),
(33,676,o),
(33,635,cs),
(33,593,o),
(67,574,o),
(112,558,cs),
(134,550,o),
(145,537,o),
(145,521,cs),
(145,498,o),
(129,487,o),
(98,487,cs),
(76,487,o),
(53,493,o),
(29,504,c),
(29,471,l),
(48,462,o),
(71,458,o),
(98,458,cs)
);
}
);
userData = {
public.verticalOrigin = 1069;
};
width = 600;
}
);
note = uni2401;
unicode = 9217;
}
{
glyphname = startOfTextControl;
layers = (
{
layerId = "6E183CFB-E55F-4C96-8804-AC4D4AF4B24B";
shapes = (
{
closed = 1;
nodes = (
(437,0,l),
(489,90,l),
(542,0,l),
(582,0,l),
(511,118,l),
(576,227,l),
(539,227,l),
(491,145,l),
(443,227,l),
(403,227,l),
(469,117,l),
(399,0,l)
);
},
{
closed = 1;
nodes = (
(335,231,l),
(335,428,l),
(396,428,l),
(396,458,l),
(237,458,l),
(237,428,l),
(298,428,l),
(298,231,l)
);
},
{
closed = 1;
nodes = (
(149,458,o),
(184,479,o),
(184,524,cs),
(184,567,o),
(134,585,o),
(98,601,cs),
(80,609,o),
(71,621,o),
(71,635,cs),
(71,654,o),
(88,665,o),
(112,665,cs),
(130,665,o),
(148,661,o),
(167,652,c),
(178,680,l),
(157,689,o),
(135,694,o),
(110,694,cs),
(69,694,o),
(33,676,o),
(33,635,cs),
(33,593,o),
(67,574,o),
(112,558,cs),
(134,550,o),
(145,537,o),
(145,521,cs),
(145,498,o),
(129,487,o),
(98,487,cs),
(76,487,o),
(53,493,o),
(29,504,c),
(29,471,l),
(48,462,o),
(71,458,o),
(98,458,cs)
);
}
);
userData = {
public.verticalOrigin = 1069;
};
width = 600;
}
);
note = uni2402;
unicode = 9218;
}
{
glyphname = endOfTextControl;
layers = (
{
layerId = "6E183CFB-E55F-4C96-8804-AC4D4AF4B24B";
shapes = (
{
closed = 1;
nodes = (
(437,0,l),
(489,90,l),
(542,0,l),
(582,0,l),
(511,118,l),
(576,227,l),
(539,227,l),
(491,145,l),
(443,227,l),
(403,227,l),
(469,117,l),
(399,0,l)
);
},
{
closed = 1;
nodes = (
(335,231,l),
(335,428,l),
(396,428,l),
(396,458,l),
(237,458,l),
(237,428,l),
(298,428,l),
(298,231,l)
);
},
{
closed = 1;
nodes = (
(181,463,l),
(181,493,l),
(78,493,l),
(78,566,l),
(175,566,l),
(175,596,l),
(78,596,l),
(78,660,l),
(181,660,l),
(181,690,l),
(41,690,l),
(41,463,l)
);
}
);
userData = {
public.verticalOrigin = 1069;
};
width = 600;
}
);
note = uni2403;
unicode = 9219;
}
{
glyphname = endOfTransmissionControl;
layers = (
{
layerId = "6E183CFB-E55F-4C96-8804-AC4D4AF4B24B";
shapes = (
{
closed = 1;
nodes = (
(364,227,o),
(391,276,o),
(391,347,cs),
(391,424,o),
(360,463,o),
(299,463,cs),
(238,463,o),
(207,424,o),
(207,347,cs),
(207,267,o),
(237,227,o),
(298,227,cs)
);
},
{
closed = 1;
nodes = (
(521,0,l),
(521,197,l),
(582,197,l),
(582,227,l),
(423,227,l),
(423,197,l),
(484,197,l),
(484,0,l)
);
},
{
closed = 1;
nodes = (
(265,257,o),
(248,287,o),
(248,347,cs),
(248,404,o),
(265,433,o),
(299,433,cs),
(333,433,o),
(350,404,o),
(350,347,cs),
(350,287,o),
(333,257,o),
(298,257,cs)
);
},
{
closed = 1;
nodes = (
(181,463,l),
(181,493,l),
(78,493,l),
(78,566,l),
(175,566,l),
(175,596,l),
(78,596,l),
(78,660,l),
(181,660,l),
(181,690,l),
(41,690,l),
(41,463,l)
);
}
);
userData = {
public.verticalOrigin = 1069;
};
width = 600;
}
);
note = uni2404;
unicode = 9220;
}
{
glyphname = enquiryControl;
layers = (
{
layerId = "6E183CFB-E55F-4C96-8804-AC4D4AF4B24B";
shapes = (
{
closed = 1;
nodes = (
(562,-45,l),
(527,3,l),
(524,2,l),
(560,19,o),
(577,56,o),
(577,114,cs),
(577,191,o),
(546,230,o),
(485,230,cs),
(424,230,o),
(393,191,o),
(393,114,cs),
(393,34,o),
(423,-6,o),
(484,-6,c),
(494,-5,l),
(517,-45,l)
);
},
{
closed = 1;
nodes = (
(451,24,o),
(434,54,o),
(434,114,cs),
(434,171,o),
(451,200,o),
(485,200,cs),
(519,200,o),
(536,171,o),
(536,114,cs),
(536,54,o),
(519,24,o),
(484,24,cs)
);
},
{
closed = 1;
nodes = (
(255,229,l),
(255,356,l),
(253,402,l),
(333,229,l),
(373,229,l),
(373,456,l),
(338,456,l),
(338,306,l),
(339,284,l),
(260,456,l),
(220,456,l),
(220,229,l)
);
},
{
closed = 1;
nodes = (
(176,463,l),
(176,493,l),
(78,493,l),
(78,566,l),
(170,566,l),
(170,596,l),
(78,596,l),
(78,660,l),
(176,660,l),
(176,690,l),
(41,690,l),
(41,463,l)
);
}
);
userData = {
public.verticalOrigin = 1069;
};
width = 600;
}
);
note = uni2405;
unicode = 9221;
}
{
glyphname = acknowledgeControl;
layers = (
{
layerId = "6E183CFB-E55F-4C96-8804-AC4D4AF4B24B";
shapes = (
{
closed = 1;
nodes = (
(48,463,l),
(68,531,l),
(140,531,l),
(160,463,l),
(197,463,l),
(118,690,l),
(90,690,l),
(11,463,l)
);
},
{
closed = 1;
nodes = (
(453,0,l),
(453,94,l),
(462,103,l),
(539,0,l),
(583,0,l),
(487,127,l),
(580,227,l),
(536,227,l),
(453,134,l),
(453,227,l),
(415,227,l),
(415,0,l)
);
},
{
closed = 1;
nodes = (
(339,227,o),
(354,230,o),
(369,236,c),
(369,266,l),
(356,260,o),
(341,257,o),
(324,257,cs),
(280,257,o),
(258,286,o),
(258,345,cs),
(258,390,o),
(277,433,o),
(322,433,cs),
(337,433,o),
(352,429,o),
(366,421,c),
(378,448,l),
(364,458,o),
(345,463,o),
(322,463,cs),
(255,463,o),
(217,413,o),
(217,345,cs),
(217,273,o),
(251,227,o),
(323,227,cs)
);
},
{
closed = 1;
nodes = (
(104,651,l),
(130,561,l),
(78,561,l)
);
}
);
userData = {
public.verticalOrigin = 1069;
};
width = 600;
}
);
note = uni2406;
unicode = 9222;
}
{
glyphname = bellControl;
layers = (
{
layerId = "6E183CFB-E55F-4C96-8804-AC4D4AF4B24B";
shapes = (
{
closed = 1;
nodes = (
(114,463,ls),
(161,463,o),
(198,481,o),
(198,528,cs),
(198,555,o),
(181,573,o),
(146,582,c),
(170,588,o),
(190,607,o),
(190,631,cs),
(190,671,o),
(167,690,o),
(99,690,cs),
(38,690,l),
(38,463,l)
);
},
{
closed = 1;
nodes = (
(570,0,l),
(570,30,l),
(473,30,l),
(473,227,l),
(436,227,l),
(436,0,l)
);
},
{
closed = 1;
nodes = (
(369,231,l),
(369,261,l),
(266,261,l),
(266,334,l),
(363,334,l),
(363,364,l),
(266,364,l),
(266,428,l),
(369,428,l),
(369,458,l),
(229,458,l),
(229,231,l)
);
},
{
closed = 1;
nodes = (
(76,566,l),
(107,566,ls),
(141,566,o),
(157,554,o),
(157,531,cs),
(157,505,o),
(141,492,o),
(109,492,cs),
(76,492,l)
);
},
{
closed = 1;
nodes = (
(76,661,l),
(101,661,ls),
(132,661,o),
(149,656,o),
(149,629,cs),
(149,606,o),
(140,595,o),
(105,595,cs),
(76,595,l)
);
}
);
userData = {
public.verticalOrigin = 1069;
};
width = 600;
}
);
note = uni2407;
unicode = 9223;
}
{
glyphname = backspaceControl;
layers = (
{
layerId = "6E183CFB-E55F-4C96-8804-AC4D4AF4B24B";
shapes = (
{
closed = 1;
nodes = (
(445,119,o),
(480,140,o),
(480,185,cs),
(480,228,o),
(428,247,o),
(393,263,cs),
(376,271,o),
(367,282,o),
(367,296,cs),
(367,315,o),
(384,326,o),
(408,326,cs),
(426,326,o),
(444,322,o),
(463,313,c),
(474,341,l),
(453,350,o),
(431,355,o),
(406,355,cs),
(365,355,o),
(329,337,o),
(329,296,cs),
(329,253,o),
(364,236,o),
(408,219,cs),
(430,210,o),
(441,198,o),
(441,182,cs),
(441,159,o),
(425,148,o),
(394,148,cs),
(372,148,o),
(349,154,o),
(325,165,c),
(325,132,l),
(344,124,o),
(367,119,o),
(394,119,cs)
);
},
{
closed = 1;
nodes = (
(152,454,l),
(183,454,ls),
(216,454,o),
(233,442,o),
(233,419,cs),
(233,393,o),
(217,380,o),
(185,380,cs),
(152,380,l)
);
},
{
closed = 1;
nodes = (
(190,351,ls),
(237,351,o),
(274,369,o),
(274,416,cs),
(274,443,o),
(257,461,o),
(222,470,c),
(246,477,o),
(266,495,o),
(266,519,cs),
(266,559,o),
(243,578,o),
(175,578,cs),
(114,578,l),
(114,351,l)
);
},
{
closed = 1;
nodes = (
(152,549,l),
(177,549,ls),
(208,549,o),
(225,544,o),
(225,517,cs),
(225,494,o),
(216,483,o),
(181,483,cs),
(152,483,l)
);
}
);
userData = {
public.verticalOrigin = 1069;
};
width = 600;
}
);
note = uni2408;
unicode = 9224;
}
{
glyphname = horizontalTabulationControl;
layers = (
{
layerId = "6E183CFB-E55F-4C96-8804-AC4D4AF4B24B";
shapes = (
{
closed = 1;
nodes = (
(440,124,l),
(440,321,l),
(501,321,l),
(501,351,l),
(342,351,l),
(342,321,l),
(403,321,l),
(403,124,l)
);
},
{
closed = 1;
nodes = (
(151,351,l),
(151,454,l),
(232,454,l),
(232,351,l),
(269,351,l),
(269,578,l),
(232,578,l),
(232,484,l),
(151,484,l),
(151,578,l),
(114,578,l),
(114,351,l)
);
}
);
userData = {
public.verticalOrigin = 1069;
};
width = 600;
}
);
note = uni2409;
unicode = 9225;
}
{
glyphname = lineFeedControl;
layers = (
{
layerId = "6E183CFB-E55F-4C96-8804-AC4D4AF4B24B";
shapes = (
{
closed = 1;
nodes = (
(396,124,l),
(396,217,l),
(493,217,l),
(493,247,l),
(396,247,l),
(396,321,l),
(499,321,l),
(499,351,l),
(359,351,l),
(359,124,l)
);
},
{
closed = 1;
nodes = (
(277,351,l),
(277,381,l),
(180,381,l),
(180,578,l),
(143,578,l),
(143,351,l)
);
}
);
userData = {
public.verticalOrigin = 1069;
};
width = 600;
}
);
note = uni240A;
unicode = 9226;
}
{
glyphname = verticalTabulationControl;
layers = (
{
layerId = "6E183CFB-E55F-4C96-8804-AC4D4AF4B24B";
shapes = (
{
closed = 1;
nodes = (
(239,351,l),
(310,578,l),
(270,578,l),
(230,418,l),
(222,390,l),
(172,578,l),
(132,578,l),
(204,351,l)
);
},
{
closed = 1;
nodes = (
(440,124,l),
(440,321,l),
(501,321,l),
(501,351,l),
(342,351,l),
(342,321,l),
(403,321,l),
(403,124,l)
);
}
);
userData = {
public.verticalOrigin = 1069;
};
width = 600;
}
);
note = uni240B;
unicode = 9227;
}
{
glyphname = formFeedControl;
layers = (
{
layerId = "6E183CFB-E55F-4C96-8804-AC4D4AF4B24B";
shapes = (
{
closed = 1;
nodes = (
(180,351,l),
(180,444,l),
(277,444,l),
(277,474,l),
(180,474,l),
(180,548,l),
(283,548,l),
(283,578,l),
(143,578,l),
(143,351,l)
);
},
{
closed = 1;
nodes = (
(396,124,l),
(396,217,l),
(493,217,l),
(493,247,l),
(396,247,l),
(396,321,l),
(499,321,l),
(499,351,l),
(359,351,l),
(359,124,l)
);
}
);
userData = {
public.verticalOrigin = 1069;
};
width = 600;
}
);
note = uni240C;
unicode = 9228;
}
{
glyphname = carriageReturnControl;
layers = (
{
layerId = "6E183CFB-E55F-4C96-8804-AC4D4AF4B24B";
shapes = (
{
closed = 1;
nodes = (
(235,346,o),
(252,349,o),
(267,354,c),
(267,386,l),
(252,379,o),
(235,376,o),
(218,376,cs),
(170,376,o),
(146,405,o),
(146,464,cs),
(146,509,o),
(167,552,o),
(215,552,cs),
(231,552,o),
(248,547,o),
(265,539,c),
(277,568,l),
(258,577,o),
(238,582,o),
(217,582,cs),
(145,582,o),
(105,532,o),
(105,464,cs),
(105,392,o),
(141,346,o),
(218,346,cs)
);
},
{
closed = 1;
nodes = (
(383,124,l),
(383,217,l),
(422,217,l),
(477,124,l),
(519,124,l),
(455,226,l),
(487,234,o),
(503,254,o),
(503,285,cs),
(503,337,o),
(469,351,o),
(414,351,cs),
(347,351,l),
(347,124,l)
);
},
{
closed = 1;
nodes = (
(383,322,l),
(412,322,ls),
(445,322,o),
(464,315,o),
(464,284,cs),
(464,259,o),
(447,246,o),
(414,246,cs),
(383,246,l)
);
}
);
userData = {
public.verticalOrigin = 1069;
};
width = 600;
}
);
note = uni240D;
unicode = 9229;
}
{
glyphname = shiftOutControl;
layers = (
{
layerId = "6E183CFB-E55F-4C96-8804-AC4D4AF4B24B";
shapes = (
{
closed = 1;
nodes = (
(468,119,o),
(495,168,o),
(495,239,cs),
(495,316,o),
(464,355,o),
(403,355,cs),
(342,355,o),
(311,316,o),
(311,239,cs),
(311,159,o),
(341,119,o),
(402,119,cs)
);
},
{
closed = 1;
nodes = (
(369,149,o),
(352,179,o),
(352,239,cs),
(352,296,o),
(369,325,o),
(403,325,cs),
(437,325,o),
(454,296,o),
(454,239,cs),
(454,179,o),
(437,149,o),
(402,149,cs)
);
},
{
closed = 1;
nodes = (
(236,345,o),
(271,366,o),
(271,411,cs),
(271,454,o),
(222,472,o),
(186,488,cs),
(167,496,o),
(158,507,o),
(158,522,cs),
(158,541,o),
(175,552,o),
(199,552,cs),
(217,552,o),
(235,547,o),
(254,539,c),
(265,567,l),
(244,576,o),
(222,581,o),
(197,581,cs),
(156,581,o),
(120,563,o),
(120,522,cs),
(120,481,o),
(151,463,o),
(197,445,cs),
(220,436,o),
(232,424,o),
(232,408,cs),
(232,385,o),
(216,374,o),
(185,374,cs),
(163,374,o),
(140,380,o),
(116,391,c),
(116,358,l),
(135,350,o),
(158,345,o),
(185,345,cs)
);
}
);
userData = {
public.verticalOrigin = 1069;
};
width = 600;
}
);
note = uni240E;
unicode = 9230;
}
{
glyphname = shiftInControl;
layers = (
{
layerId = "6E183CFB-E55F-4C96-8804-AC4D4AF4B24B";
shapes = (
{
closed = 1;
nodes = (
(238,346,o),
(273,367,o),
(273,412,cs),
(273,455,o),
(224,473,o),
(188,489,cs),
(169,497,o),
(160,508,o),
(160,523,cs),
(160,542,o),
(177,553,o),
(201,553,cs),
(219,553,o),
(237,549,o),
(256,540,c),
(267,568,l),
(246,577,o),
(224,582,o),
(199,582,cs),
(158,582,o),
(122,564,o),
(122,523,cs),
(122,482,o),
(153,464,o),
(199,446,cs),
(222,437,o),
(234,425,o),
(234,409,cs),
(234,386,o),
(218,375,o),
(187,375,cs),
(165,375,o),
(142,381,o),
(118,392,c),
(118,359,l),
(137,351,o),
(160,346,o),
(187,346,cs)
);
},
{
closed = 1;
nodes = (
(479,124,l),
(479,144,l),
(438,154,l),
(438,321,l),
(479,331,l),
(479,351,l),
(360,351,l),
(360,331,l),
(401,321,l),
(401,154,l),
(360,144,l),
(360,124,l)
);
}
);
userData = {
public.verticalOrigin = 1069;
};
width = 600;
}
);
note = uni240F;
unicode = 9231;
}
{
glyphname = dataLinkEscapeControl;
layers = (
{
layerId = "6E183CFB-E55F-4C96-8804-AC4D4AF4B24B";
shapes = (
{
closed = 1;
nodes = (
(102,463,ls),
(170,463,o),
(205,506,o),
(205,578,cs),
(205,653,o),
(171,690,o),
(102,690,cs),
(38,690,l),
(38,463,l)
);
},
{
closed = 1;
nodes = (
(569,0,l),
(569,30,l),
(466,30,l),
(466,103,l),
(563,103,l),
(563,133,l),
(466,133,l),
(466,197,l),
(569,197,l),
(569,227,l),
(429,227,l),
(429,0,l)
);
},
{
closed = 1;
nodes = (
(372,231,l),
(372,261,l),
(275,261,l),
(275,458,l),
(238,458,l),
(238,231,l)
);
},
{
closed = 1;
nodes = (
(75,660,l),
(92,660,ls),
(146,660,o),
(164,633,o),
(164,577,cs),
(164,521,o),
(150,493,o),
(95,493,cs),
(75,493,l)
);
}
);
userData = {
public.verticalOrigin = 1069;
};
width = 600;
}
);
note = uni2410;
unicode = 9232;
}
{
glyphname = deviceControlOneControl;
layers = (
{
layerId = "6E183CFB-E55F-4C96-8804-AC4D4AF4B24B";
shapes = (
{
closed = 1;
nodes = (
(331,227,o),
(346,230,o),
(361,236,c),
(361,266,l),
(348,260,o),
(333,257,o),
(316,257,cs),
(272,257,o),
(250,286,o),
(250,345,cs),
(250,390,o),
(269,433,o),
(314,433,cs),
(329,433,o),
(343,429,o),
(358,421,c),
(370,448,l),
(356,458,o),
(337,463,o),
(314,463,cs),
(248,463,o),
(209,413,o),
(209,345,cs),
(209,273,o),
(243,227,o),
(315,227,cs)
);
},
{
closed = 1;
nodes = (
(517,0,l),
(517,228,l),
(478,228,l),
(409,180,l),
(427,154,l),
(456,174,l),
(481,195,l),
(479,148,l),
(479,0,l)
);
},
{
closed = 1;
nodes = (
(102,463,ls),
(170,463,o),
(205,506,o),
(205,578,cs),
(205,653,o),
(171,690,o),
(102,690,cs),
(38,690,l),
(38,463,l)
);
},
{
closed = 1;
nodes = (
(75,660,l),
(92,660,ls),
(146,660,o),
(164,633,o),
(164,577,cs),
(164,521,o),
(150,493,o),
(95,493,cs),
(75,493,l)
);
}
);
userData = {
public.verticalOrigin = 1069;
};
width = 600;
}
);
note = uni2411;
unicode = 9233;
}
{
glyphname = deviceControlTwoControl;
layers = (
{
layerId = "6E183CFB-E55F-4C96-8804-AC4D4AF4B24B";
shapes = (
{
closed = 1;
nodes = (
(331,227,o),
(346,230,o),
(361,236,c),
(361,266,l),
(348,260,o),
(333,257,o),
(316,257,cs),
(272,257,o),
(250,286,o),
(250,345,cs),
(250,390,o),
(269,433,o),
(314,433,cs),
(329,433,o),
(343,429,o),
(358,421,c),
(370,448,l),
(356,458,o),
(337,463,o),
(314,463,cs),
(248,463,o),
(209,413,o),
(209,345,cs),
(209,273,o),
(243,227,o),
(315,227,cs)
);
},
{
closed = 1;
nodes = (
(555,0,l),
(555,31,l),
(450,31,l),
(501,80,o),
(533,111,o),
(543,124,cs),
(554,137,o),
(559,151,o),
(559,168,cs),
(559,207,o),
(528,231,o),
(483,231,cs),
(455,231,o),
(430,221,o),
(408,202,c),
(426,178,l),
(443,193,o),
(461,201,o),
(480,201,cs),
(505,201,o),
(518,189,o),
(518,166,cs),
(518,141,o),
(501,120,o),
(466,88,c),
(405,28,l),
(405,0,l)
);
},
{
closed = 1;
nodes = (
(102,463,ls),
(170,463,o),
(205,506,o),
(205,578,cs),
(205,653,o),
(171,690,o),
(102,690,cs),
(38,690,l),
(38,463,l)
);
},
{
closed = 1;
nodes = (
(75,660,l),
(92,660,ls),
(146,660,o),
(164,633,o),
(164,577,cs),
(164,521,o),
(150,493,o),
(95,493,cs),
(75,493,l)
);
}
);
userData = {
public.verticalOrigin = 1069;
};
width = 600;
}
);
note = uni2412;
unicode = 9234;
}
{
glyphname = deviceControlThreeControl;
layers = (
{
layerId = "6E183CFB-E55F-4C96-8804-AC4D4AF4B24B";
shapes = (
{
closed = 1;
nodes = (
(525,-5,o),
(557,24,o),
(557,65,cs),
(557,93,o),
(540,115,o),
(505,119,c),
(535,127,o),
(550,145,o),
(550,173,cs),
(550,208,o),
(522,231,o),
(472,231,cs),
(446,231,o),
(420,223,o),
(394,206,c),
(411,180,l),
(433,194,o),
(453,201,o),
(472,201,cs),
(497,201,o),
(510,190,o),
(510,169,cs),
(510,144,o),
(493,132,o),
(458,132,cs),
(428,132,l),
(428,103,l),
(458,103,ls),
(497,103,o),
(516,91,o),
(516,66,cs),
(516,39,o),
(499,25,o),
(463,25,cs),
(440,25,o),
(417,31,o),
(393,43,c),
(393,9,l),
(414,0,o),
(437,-5,o),
(463,-5,cs)
);
},
{
closed = 1;
nodes = (
(331,227,o),
(346,230,o),
(361,236,c),
(361,266,l),
(348,260,o),
(333,257,o),
(316,257,cs),
(272,257,o),
(250,286,o),
(250,345,cs),
(250,390,o),
(269,433,o),
(314,433,cs),
(329,433,o),
(343,429,o),
(358,421,c),
(370,448,l),
(356,458,o),
(337,463,o),
(314,463,cs),
(248,463,o),
(209,413,o),
(209,345,cs),
(209,273,o),
(243,227,o),
(315,227,cs)
);
},
{
closed = 1;
nodes = (
(102,463,ls),
(170,463,o),
(205,506,o),
(205,578,cs),
(205,653,o),
(171,690,o),
(102,690,cs),
(38,690,l),
(38,463,l)
);
},
{
closed = 1;
nodes = (
(75,660,l),
(92,660,ls),
(146,660,o),
(164,633,o),
(164,577,cs),
(164,521,o),
(150,493,o),
(95,493,cs),
(75,493,l)
);
}
);
userData = {
public.verticalOrigin = 1069;
};
width = 600;
}
);
note = uni2413;
unicode = 9235;
}
{
glyphname = deviceControlFourControl;
layers = (
{
layerId = "6E183CFB-E55F-4C96-8804-AC4D4AF4B24B";
shapes = (
{
closed = 1;
nodes = (
(513,0,l),
(513,53,l),
(545,53,l),
(545,83,l),
(513,83,l),
(513,229,l),
(476,229,l),
(372,79,l),
(372,53,l),
(475,53,l),
(475,0,l)
);
},
{
closed = 1;
nodes = (
(450,143,o),
(473,178,o),
(478,189,c),
(475,131,l),
(475,83,l),
(409,83,l)
);
},
{
closed = 1;
nodes = (
(331,227,o),
(346,230,o),
(361,236,c),
(361,266,l),
(348,260,o),
(333,257,o),
(316,257,cs),
(272,257,o),
(250,286,o),
(250,345,cs),
(250,390,o),
(269,433,o),
(314,433,cs),
(329,433,o),
(343,429,o),
(358,421,c),
(370,448,l),
(356,458,o),
(337,463,o),
(314,463,cs),
(248,463,o),
(209,413,o),
(209,345,cs),
(209,273,o),
(243,227,o),
(315,227,cs)
);
},
{
closed = 1;
nodes = (
(102,463,ls),
(170,463,o),
(205,506,o),
(205,578,cs),
(205,653,o),
(171,690,o),
(102,690,cs),
(38,690,l),
(38,463,l)
);
},
{
closed = 1;
nodes = (
(75,660,l),
(92,660,ls),
(146,660,o),
(164,633,o),
(164,577,cs),
(164,521,o),
(150,493,o),
(95,493,cs),
(75,493,l)
);
}
);
userData = {
public.verticalOrigin = 1069;
};
width = 600;
}
);
note = uni2414;
unicode = 9236;
}
{
glyphname = negativeAcknowledgeControl;
layers = (
{
layerId = "6E183CFB-E55F-4C96-8804-AC4D4AF4B24B";
shapes = (
{
closed = 1;
nodes = (
(223,231,l),
(243,299,l),
(315,299,l),
(335,231,l),
(372,231,l),
(293,458,l),
(265,458,l),
(186,231,l)
);
},
{
closed = 1;
nodes = (
(453,0,l),
(453,94,l),
(462,103,l),
(539,0,l),
(583,0,l),
(487,127,l),
(580,227,l),
(536,227,l),
(453,134,l),
(453,227,l),
(415,227,l),
(415,0,l)
);
},
{
closed = 1;
nodes = (
(279,418,l),
(305,329,l),
(253,329,l)
);
},
{
closed = 1;
nodes = (
(70,463,l),
(70,590,l),
(68,636,l),
(148,463,l),
(188,463,l),
(188,690,l),
(153,690,l),
(153,540,l),
(154,518,l),
(75,690,l),
(35,690,l),
(35,463,l)
);
}
);
userData = {
public.verticalOrigin = 1069;
};
width = 600;
}
);
note = uni2415;
unicode = 9237;
}
{
glyphname = synchronousIdleControl;
layers = (
{
layerId = "6E183CFB-E55F-4C96-8804-AC4D4AF4B24B";
shapes = (
{
closed = 1;
nodes = (
(331,231,l),
(331,323,l),
(401,458,l),
(363,458,l),
(313,352,l),
(261,458,l),
(223,458,l),
(293,322,l),
(293,231,l)
);
},
{
closed = 1;
nodes = (
(447,0,l),
(447,127,l),
(445,173,l),
(525,0,l),
(565,0,l),
(565,227,l),
(530,227,l),
(530,77,l),
(531,55,l),
(452,227,l),
(412,227,l),
(412,0,l)
);
},
{
closed = 1;
nodes = (
(149,458,o),
(184,479,o),
(184,524,cs),
(184,567,o),
(134,585,o),
(98,601,cs),
(80,609,o),
(71,621,o),
(71,635,cs),
(71,654,o),
(88,665,o),
(112,665,cs),
(130,665,o),
(148,661,o),
(167,652,c),
(178,680,l),
(157,689,o),
(135,694,o),
(110,694,cs),
(69,694,o),
(33,676,o),
(33,635,cs),
(33,593,o),
(67,574,o),
(112,558,cs),
(134,550,o),
(145,537,o),
(145,521,cs),
(145,498,o),
(129,487,o),
(98,487,cs),
(76,487,o),
(53,493,o),
(29,504,c),
(29,471,l),
(48,462,o),
(71,458,o),
(98,458,cs)
);
}
);
userData = {
public.verticalOrigin = 1069;
};
width = 600;
}
);
note = uni2416;
unicode = 9238;
}
{
glyphname = endOfTransmissionBlockControl;
layers = (
{
layerId = "6E183CFB-E55F-4C96-8804-AC4D4AF4B24B";
shapes = (
{
closed = 1;
nodes = (
(491,0,ls),
(538,0,o),
(575,18,o),
(575,65,cs),
(575,92,o),
(558,110,o),
(523,119,c),
(547,125,o),
(567,144,o),
(567,168,cs),
(567,208,o),
(544,227,o),
(476,227,cs),
(415,227,l),
(415,0,l)
);
},
{
closed = 1;
nodes = (
(453,103,l),
(484,103,ls),
(518,103,o),
(534,91,o),
(534,68,cs),
(534,42,o),
(518,29,o),
(486,29,cs),
(453,29,l)
);
},
{
closed = 1;
nodes = (
(453,198,l),
(478,198,ls),
(509,198,o),
(526,193,o),
(526,166,cs),
(526,143,o),
(517,132,o),
(482,132,cs),
(453,132,l)
);
},
{
closed = 1;
nodes = (
(338,231,l),
(338,428,l),
(399,428,l),
(399,458,l),
(240,458,l),
(240,428,l),
(301,428,l),
(301,231,l)
);
},
{
closed = 1;
nodes = (
(181,463,l),
(181,493,l),
(78,493,l),
(78,566,l),
(175,566,l),
(175,596,l),
(78,596,l),
(78,660,l),
(181,660,l),
(181,690,l),
(41,690,l),
(41,463,l)
);
}
);
userData = {
public.verticalOrigin = 1069;
};
width = 600;
}
);
note = uni2417;
unicode = 9239;
}
{
glyphname = cancelControl;
layers = (
{
layerId = "6E183CFB-E55F-4C96-8804-AC4D4AF4B24B";
shapes = (
{
closed = 1;
nodes = (
(219,231,l),
(239,299,l),
(311,299,l),
(331,231,l),
(368,231,l),
(289,458,l),
(261,458,l),
(182,231,l)
);
},
{
closed = 1;
nodes = (
(447,0,l),
(447,127,l),
(445,173,l),
(525,0,l),
(565,0,l),
(565,227,l),
(530,227,l),
(530,77,l),
(531,55,l),
(452,227,l),
(412,227,l),
(412,0,l)
);
},
{
closed = 1;
nodes = (
(275,419,l),
(301,329,l),
(249,329,l)
);
},
{
closed = 1;
nodes = (
(151,458,o),
(167,461,o),
(181,467,c),
(181,497,l),
(168,491,o),
(153,488,o),
(136,488,cs),
(92,488,o),
(70,517,o),
(70,576,cs),
(70,621,o),
(89,664,o),
(134,664,cs),
(148,664,o),
(163,660,o),
(178,652,c),
(190,679,l),
(176,689,o),
(157,694,o),
(134,694,cs),
(67,694,o),
(29,644,o),
(29,576,cs),
(29,504,o),
(63,458,o),
(135,458,cs)
);
}
);
userData = {
public.verticalOrigin = 1069;
};
width = 600;
}
);
note = uni2418;
unicode = 9240;
}
{
glyphname = endOfMediumControl;
layers = (
{
layerId = "6E183CFB-E55F-4C96-8804-AC4D4AF4B24B";
shapes = (
{
closed = 1;
nodes = (
(354,124,l),
(354,261,l),
(353,297,l),
(390,188,l),
(414,188,l),
(452,297,l),
(451,263,l),
(451,124,l),
(485,124,l),
(485,351,l),
(447,351,l),
(403,230,l),
(358,351,l),
(320,351,l),
(320,124,l)
);
},
{
closed = 1;
nodes = (
(254,351,l),
(254,381,l),
(151,381,l),
(151,454,l),
(248,454,l),
(248,484,l),
(151,484,l),
(151,548,l),
(254,548,l),
(254,578,l),
(114,578,l),
(114,351,l)
);
}
);
userData = {
public.verticalOrigin = 1069;
};
width = 600;
}
);
note = uni2419;
unicode = 9241;
}
{
glyphname = substituteControl;
layers = (
{
layerId = "6E183CFB-E55F-4C96-8804-AC4D4AF4B24B";
shapes = (
{
closed = 1;
nodes = (
(149,458,o),
(184,479,o),
(184,524,cs),
(184,567,o),
(134,585,o),
(98,601,cs),
(80,609,o),
(71,621,o),
(71,635,cs),
(71,654,o),
(88,665,o),
(112,665,cs),
(130,665,o),
(148,661,o),
(167,652,c),
(178,680,l),
(157,689,o),
(135,694,o),
(110,694,cs),
(69,694,o),
(33,676,o),
(33,635,cs),
(33,593,o),
(67,574,o),
(112,558,cs),
(134,550,o),
(145,537,o),
(145,521,cs),
(145,498,o),
(129,487,o),
(98,487,cs),
(76,487,o),
(53,493,o),
(29,504,c),
(29,471,l),
(48,462,o),
(71,458,o),
(98,458,cs)
);
},
{
closed = 1;
nodes = (
(453,103,l),
(484,103,ls),
(518,103,o),
(534,91,o),
(534,68,cs),
(534,42,o),
(518,29,o),
(486,29,cs),
(453,29,l)
);
},
{
closed = 1;
nodes = (
(491,0,ls),
(538,0,o),
(575,18,o),
(575,65,cs),
(575,92,o),
(558,110,o),
(523,119,c),
(547,125,o),
(567,144,o),
(567,168,cs),
(567,208,o),
(544,227,o),
(476,227,cs),
(415,227,l),
(415,0,l)
);
},
{
closed = 1;
nodes = (
(358,228,o),
(385,261,o),
(385,309,cs),
(385,458,l),
(347,458,l),
(347,309,ls),
(347,275,o),
(334,258,o),
(308,258,cs),
(281,258,o),
(267,275,o),
(267,309,cs),
(267,458,l),
(229,458,l),
(229,310,ls),
(229,259,o),
(258,228,o),
(307,228,cs)
);
},
{
closed = 1;
nodes = (
(453,198,l),
(478,198,ls),
(509,198,o),
(526,193,o),
(526,166,cs),
(526,143,o),
(517,132,o),
(482,132,cs),
(453,132,l)
);
}
);
userData = {
public.verticalOrigin = 1069;
};
width = 600;
}
);
note = uni241A;
unicode = 9242;
}
{
glyphname = escapeControl;
layers = (
{
layerId = "6E183CFB-E55F-4C96-8804-AC4D4AF4B24B";
shapes = (
{
closed = 1;
nodes = (
(533,-5,o),
(548,-2,o),
(563,4,c),
(563,34,l),
(550,28,o),
(535,25,o),
(518,25,cs),
(474,25,o),
(452,54,o),
(452,113,cs),
(452,158,o),
(471,201,o),
(516,201,cs),
(531,201,o),
(545,197,o),
(560,189,c),
(572,216,l),
(558,226,o),
(539,231,o),
(516,231,cs),
(449,231,o),
(411,181,o),
(411,113,cs),
(411,41,o),
(445,-5,o),
(517,-5,cs)
);
},
{
closed = 1;
nodes = (
(353,227,o),
(388,248,o),
(388,293,cs),
(388,336,o),
(339,354,o),
(302,370,cs),
(284,378,o),
(275,390,o),
(275,404,cs),
(275,423,o),
(292,434,o),
(316,434,cs),
(334,434,o),
(352,430,o),
(371,421,c),
(382,449,l),
(361,458,o),
(339,463,o),
(314,463,cs),
(273,463,o),
(237,445,o),
(237,404,cs),
(237,362,o),
(272,344,o),
(316,327,cs),
(338,318,o),
(349,306,o),
(349,290,cs),
(349,267,o),
(333,256,o),
(302,256,cs),
(280,256,o),
(257,262,o),
(233,273,c),
(233,240,l),
(252,231,o),
(275,227,o),
(302,227,cs)
);
},
{
closed = 1;
nodes = (
(181,463,l),
(181,493,l),
(78,493,l),
(78,566,l),
(175,566,l),
(175,596,l),
(78,596,l),
(78,660,l),
(181,660,l),
(181,690,l),
(41,690,l),
(41,463,l)
);
}
);
userData = {
public.verticalOrigin = 1069;
};
width = 600;
}
);
note = uni241B;
unicode = 9243;
}
{
glyphname = fileSeparatorControl;
layers = (
{
layerId = "6E183CFB-E55F-4C96-8804-AC4D4AF4B24B";
shapes = (
{
closed = 1;
nodes = (
(445,119,o),
(480,140,o),
(480,185,cs),
(480,228,o),
(428,247,o),
(393,263,cs),
(376,271,o),
(367,282,o),
(367,296,cs),
(367,315,o),
(384,326,o),
(408,326,cs),
(426,326,o),
(444,322,o),
(463,313,c),
(474,341,l),
(453,350,o),
(431,355,o),
(406,355,cs),
(365,355,o),
(329,337,o),
(329,296,cs),
(329,253,o),
(364,236,o),
(408,219,cs),
(430,210,o),
(441,198,o),
(441,182,cs),
(441,159,o),
(425,148,o),
(394,148,cs),
(372,148,o),
(349,154,o),
(325,165,c),
(325,132,l),
(344,124,o),
(367,119,o),
(394,119,cs)
);
},
{
closed = 1;
nodes = (
(180,351,l),
(180,444,l),
(277,444,l),
(277,474,l),
(180,474,l),
(180,548,l),
(283,548,l),
(283,578,l),
(143,578,l),
(143,351,l)
);
}
);
userData = {
public.verticalOrigin = 1069;
};
width = 600;
}
);
note = uni241C;
unicode = 9244;
}
{
glyphname = groupSeparatorControl;
layers = (
{
layerId = "6E183CFB-E55F-4C96-8804-AC4D4AF4B24B";
shapes = (
{
closed = 1;
nodes = (
(244,346,o),
(267,350,o),
(288,358,c),
(288,474,l),
(207,474,l),
(207,444,l),
(254,444,l),
(254,381,l),
(241,377,o),
(229,376,o),
(220,376,cs),
(171,376,o),
(146,405,o),
(146,464,cs),
(146,519,o),
(173,552,o),
(221,552,cs),
(239,552,o),
(256,547,o),
(273,537,c),
(285,568,l),
(265,577,o),
(244,582,o),
(223,582,cs),
(151,582,o),
(105,536,o),
(105,464,cs),
(105,391,o),
(146,346,o),
(219,346,cs)
);
},
{
closed = 1;
nodes = (
(445,119,o),
(480,140,o),
(480,185,cs),
(480,228,o),
(428,247,o),
(393,263,cs),
(376,271,o),
(367,282,o),
(367,296,cs),
(367,315,o),
(384,326,o),
(408,326,cs),
(426,326,o),
(444,322,o),
(463,313,c),
(474,341,l),
(453,350,o),
(431,355,o),
(406,355,cs),
(365,355,o),
(329,337,o),
(329,296,cs),
(329,253,o),
(364,236,o),
(408,219,cs),
(430,210,o),
(441,198,o),
(441,182,cs),
(441,159,o),
(425,148,o),
(394,148,cs),
(372,148,o),
(349,154,o),
(325,165,c),
(325,132,l),
(344,124,o),
(367,119,o),
(394,119,cs)
);
}
);
userData = {
public.verticalOrigin = 1069;
};
width = 600;
}
);
note = uni241D;
unicode = 9245;
}
{
glyphname = recordSeparatorControl;
layers = (
{
layerId = "6E183CFB-E55F-4C96-8804-AC4D4AF4B24B";
shapes = (
{
closed = 1;
nodes = (
(151,351,l),
(151,444,l),
(190,444,l),
(245,351,l),
(287,351,l),
(223,453,l),
(255,461,o),
(271,481,o),
(271,512,cs),
(271,563,o),
(237,578,o),
(182,578,cs),
(115,578,l),
(115,351,l)
);
},
{
closed = 1;
nodes = (
(444,119,o),
(479,140,o),
(479,185,cs),
(479,228,o),
(427,247,o),
(392,263,cs),
(375,271,o),
(366,282,o),
(366,296,cs),
(366,315,o),
(383,326,o),
(407,326,cs),
(425,326,o),
(443,322,o),
(462,313,c),
(473,341,l),
(452,350,o),
(430,355,o),
(405,355,cs),
(364,355,o),
(328,337,o),
(328,296,cs),
(328,253,o),
(363,236,o),
(407,219,cs),
(429,210,o),
(440,198,o),
(440,182,cs),
(440,159,o),
(424,148,o),
(393,148,cs),
(371,148,o),
(348,154,o),
(324,165,c),
(324,132,l),
(343,124,o),
(366,119,o),
(393,119,cs)
);
},
{
closed = 1;
nodes = (
(151,549,l),
(180,549,ls),
(213,549,o),
(232,542,o),
(232,511,cs),
(232,486,o),
(215,473,o),
(182,473,cs),
(151,473,l)
);
}
);
userData = {
public.verticalOrigin = 1069;
};
width = 600;
}
);
note = uni241E;
unicode = 9246;
}
{
glyphname = unitSeparatorControl;
layers = (
{
layerId = "6E183CFB-E55F-4C96-8804-AC4D4AF4B24B";
shapes = (
{
closed = 1;
nodes = (
(445,119,o),
(480,140,o),
(480,185,cs),
(480,228,o),
(428,247,o),
(393,263,cs),
(376,271,o),
(367,282,o),
(367,296,cs),
(367,315,o),
(384,326,o),
(408,326,cs),
(426,326,o),
(444,322,o),
(463,313,c),
(474,341,l),
(453,350,o),
(431,355,o),
(406,355,cs),
(365,355,o),
(329,337,o),
(329,296,cs),
(329,253,o),
(364,236,o),
(408,219,cs),
(430,210,o),
(441,198,o),
(441,182,cs),
(441,159,o),
(425,148,o),
(394,148,cs),
(372,148,o),
(349,154,o),
(325,165,c),
(325,132,l),
(344,124,o),
(367,119,o),
(394,119,cs)
);
},
{
closed = 1;
nodes = (
(239,348,o),
(266,381,o),
(266,429,cs),
(266,578,l),
(228,578,l),
(228,429,ls),
(228,395,o),
(215,378,o),
(189,378,cs),
(162,378,o),
(148,395,o),
(148,429,cs),
(148,578,l),
(110,578,l),
(110,430,ls),
(110,379,o),
(139,348,o),
(188,348,cs)
);
}
);
userData = {
public.verticalOrigin = 1069;
};
width = 600;
}
);
note = uni241F;
unicode = 9247;
}
{
glyphname = spaceControl;
layers = (
{
layerId = "6E183CFB-E55F-4C96-8804-AC4D4AF4B24B";
shapes = (
{
closed = 1;
nodes = (
(236,346,o),
(271,367,o),
(271,412,cs),
(271,455,o),
(222,473,o),
(186,489,cs),
(167,497,o),
(158,508,o),
(158,523,cs),
(158,542,o),
(175,553,o),
(199,553,cs),
(217,553,o),
(235,549,o),
(254,540,c),
(265,568,l),
(244,577,o),
(222,582,o),
(197,582,cs),
(156,582,o),
(120,564,o),
(120,523,cs),
(120,482,o),
(151,464,o),
(197,446,cs),
(220,437,o),
(232,425,o),
(232,409,cs),
(232,386,o),
(216,375,o),
(185,375,cs),
(163,375,o),
(140,381,o),
(116,392,c),
(116,359,l),
(135,351,o),
(158,346,o),
(185,346,cs)
);
},
{
closed = 1;
nodes = (
(384,119,l),
(384,206,l),
(405,206,ls),
(468,206,o),
(500,230,o),
(500,278,cs),
(500,323,o),
(470,346,o),
(411,346,cs),
(344,346,l),
(344,119,l)
);
},
{
closed = 1;
nodes = (
(384,316,l),
(408,316,ls),
(443,316,o),
(461,303,o),
(461,277,cs),
(461,249,o),
(441,235,o),
(402,235,cs),
(384,235,l)
);
}
);
userData = {
public.verticalOrigin = 1069;
};
width = 600;
}
);
note = uni2420;
unicode = 9248;
}
{
glyphname = deleteControl;
layers = (
{
layerId = "6E183CFB-E55F-4C96-8804-AC4D4AF4B24B";
shapes = (
{
closed = 1;
nodes = (
(99,463,ls),
(167,463,o),
(202,506,o),
(202,578,cs),
(202,653,o),
(168,690,o),
(99,690,cs),
(35,690,l),
(35,463,l)
);
},
{
closed = 1;
nodes = (
(570,0,l),
(570,30,l),
(473,30,l),
(473,227,l),
(436,227,l),
(436,0,l)
);
},
{
closed = 1;
nodes = (
(372,231,l),
(372,261,l),
(269,261,l),
(269,334,l),
(366,334,l),
(366,364,l),
(269,364,l),
(269,428,l),
(372,428,l),
(372,458,l),
(232,458,l),
(232,231,l)
);
},
{
closed = 1;
nodes = (
(72,660,l),
(89,660,ls),
(144,660,o),
(161,633,o),
(161,577,cs),
(161,521,o),
(146,493,o),
(92,493,cs),
(72,493,l)
);
}
);
userData = {
public.verticalOrigin = 1069;
};
width = 600;
}
);
note = uni2421;
unicode = 9249;
}
{
glyphname = blank;
layers = (
{
layerId = "6E183CFB-E55F-4C96-8804-AC4D4AF4B24B";
shapes = (
{
closed = 1;
nodes = (
(644,-209,l),
(644,0,l),
(572,0,l),
(572,-138,l),
(123,-138,l),
(123,0,l),
(51,0,l),
(51,-209,l)
);
}
);
userData = {
public.verticalOrigin = 1069;
};
width = 695;
}
);
note = uni2423;
unicode = 9251;
}
{
glyphname = newlineControl;
layers = (
{
layerId = "6E183CFB-E55F-4C96-8804-AC4D4AF4B24B";
shapes = (
{
closed = 1;
nodes = (
(149,351,l),
(149,478,l),
(147,524,l),
(227,351,l),
(267,351,l),
(267,578,l),
(232,578,l),
(232,428,l),
(233,406,l),
(154,578,l),
(114,578,l),
(114,351,l)
);
},
{
closed = 1;
nodes = (
(504,124,l),
(504,154,l),
(407,154,l),
(407,351,l),
(370,351,l),
(370,124,l)
);
}
);
userData = {
public.verticalOrigin = 1069;
};
width = 600;
}
);
note = uni2424;
unicode = 9252;
}
{
glyphname = deleteFormTwoControl;
layers = (
{
layerId = "6E183CFB-E55F-4C96-8804-AC4D4AF4B24B";
shapes = (
{
closed = 1;
nodes = (
(100,0,l),
(766,665,l),
(766,714,l),
(717,714,l),
(51,49,l),
(51,0,l)
);
},
{
closed = 1;
nodes = (
(649,714,l),
(555,714,l),
(51,211,l),
(51,117,l)
);
},
{
closed = 1;
nodes = (
(265,0,l),
(766,501,l),
(766,594,l),
(172,0,l)
);
}
);
userData = {
public.verticalOrigin = 1069;
};
width = 817;
}
);
note = uni2425;
unicode = 9253;
}
{
glyphname = substituteFormTwoControl;
layers = (
{
layerId = "6E183CFB-E55F-4C96-8804-AC4D4AF4B24B";
shapes = (
{
closed = 1;
nodes = (
(319,201,l),
(319,228,ls),
(319,310,o),
(297,346,o),
(225,406,cs),
(153,466,o),
(135,496,o),
(135,547,cs),
(135,611,o),
(177,647,o),
(256,647,cs),
(305,647,o),
(359,633,o),
(416,605,c),
(447,675,l),
(385,708,o),
(319,724,o),
(250,724,cs),
(122,724,o),
(51,657,o),
(51,549,cs),
(51,480,o),
(78,432,o),
(152,373,cs),
(226,314,o),
(249,285,o),
(249,218,cs),
(249,201,l)
);
},
{
closed = 1;
nodes = (
(321,-14,o),
(342,9,o),
(342,54,cs),
(342,99,o),
(321,121,o),
(280,121,cs),
(239,121,o),
(219,99,o),
(219,54,cs),
(219,6,o),
(247,-14,o),
(280,-14,cs)
);
}
);
userData = {
public.verticalOrigin = 1069;
};
width = 498;
}
);
note = uni2426;
unicode = 9254;
}
{
glyphname = ocrHook;
layers = (
{
layerId = "6E183CFB-E55F-4C96-8804-AC4D4AF4B24B";
shapes = (
{
closed = 1;
nodes = (
(279,4,l),
(279,456,l),
(389,456,l),
(389,345,ls),
(389,322,o),
(395,316,o),
(418,316,cs),
(441,316,o),
(447,322,o),
(447,345,cs),
(447,514,l),
(221,514,l),
(221,63,l),
(111,63,l),
(111,175,ls),
(111,198,o),
(105,204,o),
(82,204,cs),
(59,204,o),
(53,198,o),
(53,175,cs),
(53,4,l)
);
}
);
userData = {
public.verticalOrigin = 1069;
};
width = 500;
}
);
note = uni2440;
unicode = 9280;
}
{
glyphname = ocrChair;
layers = (
{
layerId = "6E183CFB-E55F-4C96-8804-AC4D4AF4B24B";
shapes = (
{
closed = 1;
nodes = (
(112,0,o),
(118,7,o),
(118,29,cs),
(118,234,l),
(382,234,l),
(382,29,ls),
(382,7,o),
(388,0,o),
(411,0,cs),
(434,0,o),
(440,6,o),
(440,29,cs),
(440,494,ls),
(440,517,o),
(434,522,o),
(411,522,cs),
(388,522,o),
(382,516,o),
(382,494,cs),
(382,292,l),
(60,292,l),
(60,29,ls),
(60,6,o),
(66,0,o),
(89,0,cs)
);
}
);
userData = {
public.verticalOrigin = 1069;
};
width = 500;
}
);
note = uni2441;
unicode = 9281;
}
{
glyphname = ocrFork;
layers = (
{
layerId = "6E183CFB-E55F-4C96-8804-AC4D4AF4B24B";
shapes = (
{
closed = 1;
nodes = (
(273,0,o),
(279,6,o),
(279,29,cs),
(279,235,l),
(419,235,ls),
(440,235,o),
(443,239,o),
(443,263,cs),
(443,494,ls),
(443,517,o),
(437,522,o),
(414,522,cs),
(391,522,o),
(385,516,o),
(385,494,cs),
(385,293,l),
(115,293,l),
(115,494,ls),
(115,516,o),
(109,522,o),
(86,522,cs),
(63,522,o),
(57,517,o),
(57,494,cs),
(57,264,ls),
(57,243,o),
(62,235,o),
(85,235,cs),
(221,235,l),
(221,29,ls),
(221,6,o),
(227,0,o),
(250,0,cs)
);
}
);
userData = {
public.verticalOrigin = 1069;
};
width = 500;
}
);
note = uni2442;
unicode = 9282;
}
{
glyphname = ocrInvertedFork;
layers = (
{
layerId = "6E183CFB-E55F-4C96-8804-AC4D4AF4B24B";
shapes = (
{
closed = 1;
nodes = (
(109,0,o),
(115,6,o),
(115,28,cs),
(115,229,l),
(385,229,l),
(385,28,ls),
(385,6,o),
(391,0,o),
(414,0,cs),
(437,0,o),
(443,6,o),
(443,28,cs),
(443,259,ls),
(443,283,o),
(440,287,o),
(419,287,cs),
(279,287,l),
(279,493,ls),
(279,516,o),
(273,522,o),
(250,522,cs),
(227,522,o),
(221,516,o),
(221,493,cs),
(221,287,l),
(85,287,ls),
(62,287,o),
(57,279,o),
(57,258,cs),
(57,28,ls),
(57,6,o),
(63,0,o),
(86,0,cs)
);
}
);
userData = {
public.verticalOrigin = 1069;
};
width = 500;
}
);
note = uni2443;
unicode = 9283;
}
{
glyphname = ocrBeltBuckle;
layers = (
{
layerId = "6E183CFB-E55F-4C96-8804-AC4D4AF4B24B";
shapes = (
{
closed = 1;
nodes = (
(414,4,ls),
(437,4,o),
(442,9,o),
(442,32,cs),
(442,185,ls),
(442,207,o),
(435,213,o),
(413,213,cs),
(390,213,o),
(384,207,o),
(384,184,cs),
(384,62,l),
(280,62,l),
(280,460,l),
(384,460,l),
(384,338,ls),
(384,315,o),
(390,309,o),
(413,309,cs),
(435,309,o),
(442,315,o),
(442,337,cs),
(442,490,ls),
(442,509,o),
(436,518,o),
(414,518,cs),
(87,518,ls),
(64,518,o),
(58,512,o),
(58,489,cs),
(58,337,ls),
(58,315,o),
(65,309,o),
(87,309,cs),
(109,309,o),
(116,316,o),
(116,337,cs),
(116,460,l),
(222,460,l),
(222,62,l),
(116,62,l),
(116,185,ls),
(116,206,o),
(109,213,o),
(87,213,cs),
(64,213,o),
(58,207,o),
(58,184,cs),
(58,32,ls),
(58,9,o),
(64,4,o),
(87,4,cs)
);
}
);
userData = {
public.verticalOrigin = 1069;
};
width = 500;
}
);
note = uni2444;
unicode = 9284;
}
{
glyphname = ocrBowTie;
layers = (
{
layerId = "6E183CFB-E55F-4C96-8804-AC4D4AF4B24B";
shapes = (
{
closed = 1;
nodes = (
(258,297,l),
(464,189,l),
(464,459,l),
(258,350,l),
(51,459,l),
(51,189,l)
);
},
{
closed = 1;
nodes = (
(98,382,l),
(207,324,l),
(98,266,l)
);
},
{
closed = 1;
nodes = (
(308,324,l),
(417,382,l),
(417,266,l)
);
}
);
userData = {
public.verticalOrigin = 1069;
};
width = 500;
}
);
note = uni2445;
unicode = 9285;
}
{
glyphname = ocrBranchBankIdentification;
layers = (
{
layerId = "6E183CFB-E55F-4C96-8804-AC4D4AF4B24B";
shapes = (
{
closed = 1;
nodes = (
(164,83,o),
(183,93,o),
(183,130,cs),
(183,376,ls),
(183,411,o),
(165,421,o),
(117,421,cs),
(76,421,o),
(52,412,o),
(52,376,cs),
(52,130,ls),
(52,93,o),
(76,83,o),
(117,83,cs)
);
},
{
closed = 1;
nodes = (
(379,5,ls),
(426,5,o),
(438,14,o),
(438,49,cs),
(438,136,ls),
(438,172,o),
(426,182,o),
(379,182,cs),
(325,182,ls),
(282,182,o),
(268,174,o),
(268,136,cs),
(268,49,ls),
(268,13,o),
(282,5,o),
(325,5,cs)
);
},
{
closed = 1;
nodes = (
(379,320,ls),
(426,320,o),
(438,329,o),
(438,364,cs),
(438,453,ls),
(438,488,o),
(426,497,o),
(379,497,cs),
(325,497,ls),
(282,497,o),
(268,489,o),
(268,453,cs),
(268,364,ls),
(268,328,o),
(282,320,o),
(325,320,cs)
);
}
);
userData = {
public.verticalOrigin = 1069;
};
width = 500;
}
);
note = uni2446;
unicode = 9286;
}
{
glyphname = ocrAmountOfCheck;
layers = (
{
layerId = "6E183CFB-E55F-4C96-8804-AC4D4AF4B24B";
shapes = (
{
closed = 1;
nodes = (
(446,396,o),
(468,405,o),
(468,442,cs),
(468,601,ls),
(468,636,o),
(446,645,o),
(401,645,cs),
(361,645,o),
(337,636,o),
(337,601,cs),
(337,442,ls),
(337,405,o),
(361,396,o),
(401,396,cs)
);
},
{
closed = 1;
nodes = (
(141,125,o),
(163,134,o),
(163,169,cs),
(163,328,ls),
(163,365,o),
(141,373,o),
(97,373,cs),
(55,373,o),
(32,365,o),
(32,328,cs),
(32,169,ls),
(32,134,o),
(56,125,o),
(97,125,cs)
);
},
{
closed = 1;
nodes = (
(280,285,o),
(290,292,o),
(290,329,cs),
(290,488,ls),
(290,521,o),
(283,529,o),
(250,529,cs),
(223,529,o),
(210,521,o),
(210,488,cs),
(210,329,ls),
(210,292,o),
(223,285,o),
(250,285,cs)
);
}
);
userData = {
public.verticalOrigin = 1069;
};
width = 500;
}
);
note = uni2447;
unicode = 9287;
}
{
glyphname = ocrDash;
layers = (
{
layerId = "6E183CFB-E55F-4C96-8804-AC4D4AF4B24B";
shapes = (
{
closed = 1;
nodes = (
(403,352,ls),
(450,352,o),
(462,362,o),
(462,398,cs),
(462,560,ls),
(462,595,o),
(450,604,o),
(403,604,cs),
(349,604,ls),
(306,604,o),
(292,596,o),
(292,560,cs),
(292,398,ls),
(292,361,o),
(306,352,o),
(349,352,cs)
);
},
{
closed = 1;
nodes = (
(109,182,o),
(119,188,o),
(119,224,cs),
(119,501,ls),
(119,535,o),
(109,543,o),
(78,543,cs),
(51,543,o),
(38,535,o),
(38,501,cs),
(38,224,ls),
(38,189,o),
(50,182,o),
(78,182,cs)
);
},
{
closed = 1;
nodes = (
(237,180,o),
(246,188,o),
(246,223,cs),
(246,499,ls),
(246,534,o),
(237,542,o),
(206,542,cs),
(179,542,o),
(165,533,o),
(165,499,cs),
(165,223,ls),
(165,188,o),
(179,180,o),
(206,180,cs)
);
}
);
userData = {
public.verticalOrigin = 1069;
};
width = 500;
}
);
note = uni2448;
unicode = 9288;
}
{
glyphname = ocrCustomerAccount;
layers = (
{
layerId = "6E183CFB-E55F-4C96-8804-AC4D4AF4B24B";
shapes = (
{
closed = 1;
nodes = (
(319,137,o),
(341,146,o),
(341,183,cs),
(341,343,ls),
(341,378,o),
(319,387,o),
(274,387,cs),
(233,387,o),
(210,378,o),
(210,343,cs),
(210,183,ls),
(210,146,o),
(232,137,o),
(274,137,cs)
);
},
{
closed = 1;
nodes = (
(151,137,o),
(173,146,o),
(173,183,cs),
(173,343,ls),
(173,378,o),
(151,387,o),
(107,387,cs),
(66,387,o),
(42,378,o),
(42,343,cs),
(42,183,ls),
(42,146,o),
(66,137,o),
(107,137,cs)
);
},
{
closed = 1;
nodes = (
(448,141,o),
(458,150,o),
(458,185,cs),
(458,345,ls),
(458,380,o),
(449,387,o),
(418,387,cs),
(391,387,o),
(378,379,o),
(378,345,cs),
(378,185,ls),
(378,150,o),
(391,141,o),
(418,141,cs)
);
}
);
userData = {
public.verticalOrigin = 1069;
};
width = 500;
}
);
note = uni2449;
unicode = 9289;
}
{
glyphname = ocrDoubleBackslash;
layers = (
{
layerId = "6E183CFB-E55F-4C96-8804-AC4D4AF4B24B";
shapes = (
{
closed = 1;
nodes = (
(471,-66,o),
(482,-50,o),
(482,-38,c),
(476,-15,l),
(231,536,ls),
(223,553,o),
(213,562,o),
(202,562,cs),
(182,562,o),
(172,545,o),
(172,535,cs),
(172,528,o),
(174,520,o),
(178,512,c),
(423,-39,ls),
(431,-57,o),
(440,-66,o),
(453,-66,cs)
);
},
{
closed = 1;
nodes = (
(318,-66,o),
(328,-50,o),
(328,-38,c),
(322,-15,l),
(77,536,ls),
(69,553,o),
(59,562,o),
(48,562,cs),
(28,562,o),
(18,545,o),
(18,535,cs),
(18,528,o),
(20,520,o),
(24,512,c),
(269,-39,ls),
(277,-57,o),
(286,-66,o),
(299,-66,cs)
);
}
);
userData = {
public.verticalOrigin = 1069;
};
width = 500;
}
);
note = uni244A;
unicode = 9290;
}
{
glyphname = blackSquare;
layers = (
{
layerId = "6E183CFB-E55F-4C96-8804-AC4D4AF4B24B";
shapes = (
{
closed = 1;
nodes = (
(783,-4,l),
(783,728,l),
(51,728,l),
(51,-4,l)
);
}
);
userData = {
public.verticalOrigin = 1069;
};
width = 834;
}
);
note = filledbox;
unicode = 9632;
}
{
glyphname = whiteSquare;
layers = (
{
layerId = "6E183CFB-E55F-4C96-8804-AC4D4AF4B24B";
shapes = (
{
closed = 1;
nodes = (
(783,-4,l),
(783,728,l),
(51,728,l),
(51,-4,l)
);
},
{
closed = 1;
nodes = (
(88,691,l),
(746,691,l),
(746,33,l),
(88,33,l)
);
}
);
userData = {
public.verticalOrigin = 1069;
};
width = 834;
}
);
note = uni25A1;
unicode = 9633;
}
{
glyphname = whiteRoundedCornersSquare;
layers = (
{
layerId = "6E183CFB-E55F-4C96-8804-AC4D4AF4B24B";
shapes = (
{
closed = 1;
nodes = (
(675,-8,ls),
(752,-8,o),
(791,33,o),
(791,113,cs),
(791,611,ls),
(791,692,o),
(752,732,o),
(675,732,cs),
(167,732,ls),
(90,732,o),
(51,692,o),
(51,611,cs),
(51,113,ls),
(51,33,o),
(90,-8,o),
(167,-8,cs)
);
},
{
closed = 1;
nodes = (
(114,29,o),
(88,56,o),
(88,111,cs),
(88,613,ls),
(88,668,o),
(114,695,o),
(167,695,cs),
(675,695,ls),
(728,695,o),
(754,668,o),
(754,613,cs),
(754,111,ls),
(754,56,o),
(728,29,o),
(675,29,cs),
(167,29,ls)
);
}
);
userData = {
public.verticalOrigin = 1069;
};
width = 842;
}
);
note = uni25A2;
unicode = 9634;
}
{
glyphname = whiteInBlackSquare;
layers = (
{
layerId = "6E183CFB-E55F-4C96-8804-AC4D4AF4B24B";
shapes = (
{
closed = 1;
nodes = (
(783,-4,l),
(783,728,l),
(51,728,l),
(51,-4,l)
);
},
{
closed = 1;
nodes = (
(115,664,l),
(719,664,l),
(719,60,l),
(115,60,l)
);
},
{
closed = 1;
nodes = (
(541,238,l),
(541,486,l),
(293,486,l),
(293,238,l)
);
}
);
userData = {
public.verticalOrigin = 1069;
};
width = 834;
}
);
note = uni25A3;
unicode = 9635;
}
{
glyphname = horizontalFillSquare;
layers = (
{
layerId = "6E183CFB-E55F-4C96-8804-AC4D4AF4B24B";
shapes = (
{
closed = 1;
nodes = (
(783,-4,l),
(783,728,l),
(51,728,l),
(51,-4,l)
);
},
{
closed = 1;
nodes = (
(96,169,l),
(738,169,l),
(738,41,l),
(96,41,l)
);
},
{
closed = 1;
nodes = (
(96,340,l),
(738,340,l),
(738,214,l),
(96,214,l)
);
},
{
closed = 1;
nodes = (
(96,511,l),
(738,511,l),
(738,385,l),
(96,385,l)
);
},
{
closed = 1;
nodes = (
(96,683,l),
(738,683,l),
(738,557,l),
(96,557,l)
);
}
);
userData = {
public.verticalOrigin = 1069;
};
width = 834;
}
);
note = uni25A4;
unicode = 9636;
}
{
glyphname = verticalFillSquare;
layers = (
{
layerId = "6E183CFB-E55F-4C96-8804-AC4D4AF4B24B";
shapes = (
{
closed = 1;
nodes = (
(783,-4,l),
(783,728,l),
(51,728,l),
(51,-4,l)
);
},
{
closed = 1;
nodes = (
(96,683,l),
(222,683,l),
(222,41,l),
(96,41,l)
);
},
{
closed = 1;
nodes = (
(268,683,l),
(394,683,l),
(394,41,l),
(268,41,l)
);
},
{
closed = 1;
nodes = (
(439,683,l),
(565,683,l),
(565,41,l),
(439,41,l)
);
},
{
closed = 1;
nodes = (
(611,683,l),
(738,683,l),
(738,41,l),
(611,41,l)
);
}
);
userData = {
public.verticalOrigin = 1069;
};
width = 834;
}
);
note = uni25A5;
unicode = 9637;
}
{
glyphname = crosshatchFillSquare;
layers = (
{
layerId = "6E183CFB-E55F-4C96-8804-AC4D4AF4B24B";
shapes = (
{
closed = 1;
nodes = (
(783,-4,l),
(783,728,l),
(51,728,l),
(51,-4,l)
);
},
{
closed = 1;
nodes = (
(96,169,l),
(222,169,l),
(222,41,l),
(96,41,l)
);
},
{
closed = 1;
nodes = (
(268,169,l),
(394,169,l),
(394,41,l),
(268,41,l)
);
},
{
closed = 1;
nodes = (
(96,340,l),
(222,340,l),
(222,214,l),
(96,214,l)
);
},
{
closed = 1;
nodes = (
(439,169,l),
(565,169,l),
(565,41,l),
(439,41,l)
);
},
{
closed = 1;
nodes = (
(96,511,l),
(222,511,l),
(222,385,l),
(96,385,l)
);
},
{
closed = 1;
nodes = (
(268,340,l),
(394,340,l),
(394,214,l),
(268,214,l)
);
},
{
closed = 1;
nodes = (
(439,340,l),
(565,340,l),
(565,214,l),
(439,214,l)
);
},
{
closed = 1;
nodes = (
(268,511,l),
(394,511,l),
(394,385,l),
(268,385,l)
);
},
{
closed = 1;
nodes = (
(96,683,l),
(222,683,l),
(222,557,l),
(96,557,l)
);
},
{
closed = 1;
nodes = (
(611,169,l),
(738,169,l),
(738,41,l),
(611,41,l)
);
},
{
closed = 1;
nodes = (
(439,511,l),
(565,511,l),
(565,385,l),
(439,385,l)
);
},
{
closed = 1;
nodes = (
(268,683,l),
(394,683,l),
(394,557,l),
(268,557,l)
);
},
{
closed = 1;
nodes = (
(611,340,l),
(738,340,l),
(738,214,l),
(611,214,l)
);
},
{
closed = 1;
nodes = (
(439,683,l),
(565,683,l),
(565,557,l),
(439,557,l)
);
},
{
closed = 1;
nodes = (
(611,511,l),
(738,511,l),
(738,385,l),
(611,385,l)
);
},
{
closed = 1;
nodes = (
(611,683,l),
(738,683,l),
(738,557,l),
(611,557,l)
);
}
);
userData = {
public.verticalOrigin = 1069;
};
width = 834;
}
);
note = uni25A6;
unicode = 9638;
}
{
glyphname = upperlefttolowerrightFillSquare;
layers = (
{
layerId = "6E183CFB-E55F-4C96-8804-AC4D4AF4B24B";
shapes = (
{
closed = 1;
nodes = (
(783,-4,l),
(783,728,l),
(51,728,l),
(51,-4,l)
);
},
{
closed = 1;
nodes = (
(96,169,l),
(222,41,l),
(96,41,l)
);
},
{
closed = 1;
nodes = (
(96,233,l),
(96,405,l),
(457,41,l),
(286,41,l)
);
},
{
closed = 1;
nodes = (
(96,468,l),
(96,646,l),
(700,41,l),
(521,41,l)
);
},
{
closed = 1;
nodes = (
(124,683,l),
(303,683,l),
(738,246,l),
(738,68,l)
);
},
{
closed = 1;
nodes = (
(367,683,l),
(547,683,l),
(738,491,l),
(738,309,l)
);
},
{
closed = 1;
nodes = (
(610,683,l),
(738,683,l),
(738,555,l)
);
}
);
userData = {
public.verticalOrigin = 1069;
};
width = 834;
}
);
note = uni25A7;
unicode = 9639;
}
{
glyphname = upperrighttolowerleftFillSquare;
layers = (
{
layerId = "6E183CFB-E55F-4C96-8804-AC4D4AF4B24B";
shapes = (
{
closed = 1;
nodes = (
(783,-4,l),
(783,728,l),
(51,728,l),
(51,-4,l)
);
},
{
closed = 1;
nodes = (
(96,491,l),
(287,683,l),
(467,683,l),
(96,309,l)
);
},
{
closed = 1;
nodes = (
(96,246,l),
(531,683,l),
(710,683,l),
(96,68,l)
);
},
{
closed = 1;
nodes = (
(96,683,l),
(224,683,l),
(96,555,l)
);
},
{
closed = 1;
nodes = (
(738,646,l),
(738,468,l),
(313,41,l),
(134,41,l)
);
},
{
closed = 1;
nodes = (
(738,169,l),
(738,41,l),
(612,41,l)
);
},
{
closed = 1;
nodes = (
(738,405,l),
(738,233,l),
(548,41,l),
(377,41,l)
);
}
);
userData = {
public.verticalOrigin = 1069;
};
width = 834;
}
);
note = uni25A8;
unicode = 9640;
}
{
glyphname = diagonalcrosshatchFillSquare;
layers = (
{
layerId = "6E183CFB-E55F-4C96-8804-AC4D4AF4B24B";
shapes = (
{
closed = 1;
nodes = (
(783,-4,l),
(783,728,l),
(51,728,l),
(51,-4,l)
);
},
{
closed = 1;
nodes = (
(96,169,l),
(148,117,l),
(96,66,l)
);
},
{
closed = 1;
nodes = (
(180,84,l),
(222,41,l),
(137,41,l)
);
},
{
closed = 1;
nodes = (
(96,233,l),
(96,243,l),
(176,324,l),
(265,235,l),
(180,149,l)
);
},
{
closed = 1;
nodes = (
(211,116,l),
(297,202,l),
(386,112,l),
(315,41,l),
(286,41,l)
);
},
{
closed = 1;
nodes = (
(96,405,l),
(144,356,l),
(96,307,l)
);
},
{
closed = 1;
nodes = (
(418,80,l),
(457,41,l),
(379,41,l)
);
},
{
closed = 1;
nodes = (
(329,233,l),
(418,323,l),
(508,235,l),
(418,144,l)
);
},
{
closed = 1;
nodes = (
(208,356,l),
(297,445,l),
(386,356,l),
(297,267,l)
);
},
{
closed = 1;
nodes = (
(96,468,l),
(96,488,l),
(175,566,l),
(265,477,l),
(176,388,l)
);
},
{
closed = 1;
nodes = (
(450,112,l),
(539,203,l),
(625,116,l),
(550,41,l),
(521,41,l)
);
},
{
closed = 1;
nodes = (
(96,646,l),
(143,599,l),
(96,553,l)
);
},
{
closed = 1;
nodes = (
(657,84,l),
(700,41,l),
(614,41,l)
);
},
{
closed = 1;
nodes = (
(689,116,l),
(738,165,l),
(738,68,l)
);
},
{
closed = 1;
nodes = (
(124,683,l),
(226,683,l),
(175,631,l)
);
},
{
closed = 1;
nodes = (
(571,235,l),
(659,324,l),
(738,246,l),
(738,231,l),
(657,149,l)
);
},
{
closed = 1;
nodes = (
(206,599,l),
(290,683,l),
(303,683,l),
(386,598,l),
(297,509,l)
);
},
{
closed = 1;
nodes = (
(450,355,l),
(539,444,l),
(628,356,l),
(539,267,l)
);
},
{
closed = 1;
nodes = (
(329,477,l),
(418,566,l),
(508,477,l),
(418,388,l)
);
},
{
closed = 1;
nodes = (
(691,356,l),
(738,402,l),
(738,309,l)
);
},
{
closed = 1;
nodes = (
(367,683,l),
(470,683,l),
(418,630,l)
);
},
{
closed = 1;
nodes = (
(571,476,l),
(661,566,l),
(738,491,l),
(738,466,l),
(659,388,l)
);
},
{
closed = 1;
nodes = (
(450,598,l),
(533,683,l),
(547,683,l),
(629,599,l),
(539,509,l)
);
},
{
closed = 1;
nodes = (
(694,599,l),
(738,644,l),
(738,555,l)
);
},
{
closed = 1;
nodes = (
(610,683,l),
(712,683,l),
(661,631,l)
);
}
);
userData = {
public.verticalOrigin = 1069;
};
width = 834;
}
);
note = uni25A9;
unicode = 9641;
}
{
glyphname = blackSmallSquare;
layers = (
{
layerId = "6E183CFB-E55F-4C96-8804-AC4D4AF4B24B";
shapes = (
{
closed = 1;
nodes = (
(299,238,l),
(299,486,l),
(51,486,l),
(51,238,l)
);
}
);
userData = {
public.verticalOrigin = 1069;
};
width = 350;
}
);
note = uni25AA;
unicode = 9642;
}
{
glyphname = whiteSmallSquare;
layers = (
{
layerId = "6E183CFB-E55F-4C96-8804-AC4D4AF4B24B";
shapes = (
{
closed = 1;
nodes = (
(301,237,l),
(301,487,l),
(51,487,l),
(51,237,l)
);
},
{
closed = 1;
nodes = (
(88,450,l),
(264,450,l),
(264,274,l),
(88,274,l)
);
}
);
userData = {
public.verticalOrigin = 1069;
};
width = 352;
}
);
note = uni25AB;
unicode = 9643;
}
{
glyphname = filledRect;
layers = (
{
layerId = "6E183CFB-E55F-4C96-8804-AC4D4AF4B24B";
shapes = (
{
closed = 1;
nodes = (
(1000,63,l),
(1000,364,l),
(0,364,l),
(0,63,l)
);
}
);
userData = {
public.verticalOrigin = 1069;
};
width = 1000;
}
);
note = filledrect;
unicode = 9644;
}
{
glyphname = whiteRect;
layers = (
{
layerId = "6E183CFB-E55F-4C96-8804-AC4D4AF4B24B";
shapes = (
{
closed = 1;
nodes = (
(1000,63,l),
(1000,364,l),
(0,364,l),
(0,63,l)
);
},
{
closed = 1;
nodes = (
(37,327,l),
(963,327,l),
(963,100,l),
(37,100,l)
);
}
);
userData = {
public.verticalOrigin = 1069;
};
width = 1000;
}
);
note = uni25AD;
unicode = 9645;
}
{
glyphname = blackVerticalRect;
layers = (
{
layerId = "6E183CFB-E55F-4C96-8804-AC4D4AF4B24B";
shapes = (
{
closed = 1;
nodes = (
(650,-287,l),
(650,713,l),
(349,713,l),
(349,-287,l)
);
}
);
userData = {
public.verticalOrigin = 1069;
};
width = 1000;
}
);
note = uni25AE;
unicode = 9646;
}
{
glyphname = whiteVerticalRect;
layers = (
{
layerId = "6E183CFB-E55F-4C96-8804-AC4D4AF4B24B";
shapes = (
{
closed = 1;
nodes = (
(650,-287,l),
(650,713,l),
(349,713,l),
(349,-287,l)
);
},
{
closed = 1;
nodes = (
(386,676,l),
(613,676,l),
(613,-250,l),
(386,-250,l)
);
}
);
userData = {
public.verticalOrigin = 1069;
};
width = 1000;
}
);
note = uni25AF;
unicode = 9647;
}
{
glyphname = blackParallelogram;
layers = (
{
layerId = "6E183CFB-E55F-4C96-8804-AC4D4AF4B24B";
shapes = (
{
closed = 1;
nodes = (
(933,63,l),
(997,364,l),
(67,364,l),
(3,63,l)
);
}
);
userData = {
public.verticalOrigin = 1069;
};
width = 1000;
}
);
note = uni25B0;
unicode = 9648;
}
{
glyphname = whiteParallelogram;
layers = (
{
layerId = "6E183CFB-E55F-4C96-8804-AC4D4AF4B24B";
shapes = (
{
closed = 1;
nodes = (
(933,63,l),
(997,364,l),
(67,364,l),
(3,63,l)
);
},
{
closed = 1;
nodes = (
(96,327,l),
(952,327,l),
(904,100,l),
(48,100,l)
);
}
);
userData = {
public.verticalOrigin = 1069;
};
width = 1000;
}
);
note = uni25B1;
unicode = 9649;
}
{
glyphname = upBlackTriangle;
layers = (
{
layerId = "6E183CFB-E55F-4C96-8804-AC4D4AF4B24B";
shapes = (
{
closed = 1;
nodes = (
(856,0,l),
(454,697,l),
(51,0,l)
);
}
);
userData = {
public.verticalOrigin = 1069;
};
width = 907;
}
);
note = triagup;
unicode = 9650;
}
{
glyphname = upWhiteTriangle;
layers = (
{
layerId = "6E183CFB-E55F-4C96-8804-AC4D4AF4B24B";
shapes = (
{
closed = 1;
nodes = (
(856,0,l),
(454,697,l),
(51,0,l)
);
},
{
closed = 1;
nodes = (
(454,618,l),
(787,40,l),
(120,40,l)
);
}
);
userData = {
public.verticalOrigin = 1069;
};
width = 907;
}
);
note = uni25B3;
unicode = 9651;
}
{
glyphname = upBlackSmallTriangle;
layers = (
{
layerId = "6E183CFB-E55F-4C96-8804-AC4D4AF4B24B";
shapes = (
{
closed = 1;
nodes = (
(333,174,l),
(185,471,l),
(36,174,l)
);
}
);
userData = {
public.verticalOrigin = 1069;
};
width = 370;
}
);
note = uni25B4;
unicode = 9652;
}
{
glyphname = upWhiteSmallTriangle;
layers = (
{
layerId = "6E183CFB-E55F-4C96-8804-AC4D4AF4B24B";
shapes = (
{
closed = 1;
nodes = (
(333,174,l),
(185,471,l),
(36,174,l)
);
},
{
closed = 1;
nodes = (
(185,391,l),
(272,211,l),
(97,211,l)
);
}
);
userData = {
public.verticalOrigin = 1069;
};
width = 370;
}
);
note = uni25B5;
unicode = 9653;
}
{
glyphname = rightBlackTriangle;
layers = (
{
layerId = "6E183CFB-E55F-4C96-8804-AC4D4AF4B24B";
shapes = (
{
closed = 1;
nodes = (
(748,349,l),
(51,751,l),
(51,-54,l)
);
}
);
userData = {
public.verticalOrigin = 1069;
};
width = 799;
}
);
note = uni25B6;
unicode = 9654;
}
{
glyphname = rightWhiteTriangle;
layers = (
{
layerId = "6E183CFB-E55F-4C96-8804-AC4D4AF4B24B";
shapes = (
{
closed = 1;
nodes = (
(748,348,l),
(51,751,l),
(51,-54,l)
);
},
{
closed = 1;
nodes = (
(91,682,l),
(669,348,l),
(91,15,l)
);
}
);
userData = {
public.verticalOrigin = 1069;
};
width = 799;
}
);
note = uni25B7;
unicode = 9655;
}
{
glyphname = rightBlackSmallTriangle;
layers = (
{
layerId = "6E183CFB-E55F-4C96-8804-AC4D4AF4B24B";
shapes = (
{
closed = 1;
nodes = (
(333,322,l),
(36,471,l),
(36,174,l)
);
}
);
userData = {
public.verticalOrigin = 1069;
};
width = 370;
}
);
note = uni25B8;
unicode = 9656;
}
{
glyphname = rightWhiteSmallTriangle;
layers = (
{
layerId = "6E183CFB-E55F-4C96-8804-AC4D4AF4B24B";
shapes = (
{
closed = 1;
nodes = (
(333,322,l),
(36,471,l),
(36,174,l)
);
},
{
closed = 1;
nodes = (
(73,410,l),
(253,322,l),
(73,235,l)
);
}
);
userData = {
public.verticalOrigin = 1069;
};
width = 370;
}
);
note = uni25B9;
unicode = 9657;
}
{
glyphname = rightBlackPointer;
layers = (
{
layerId = "6E183CFB-E55F-4C96-8804-AC4D4AF4B24B";
shapes = (
{
closed = 1;
nodes = (
(682,322,l),
(51,487,l),
(51,158,l)
);
}
);
userData = {
public.verticalOrigin = 1069;
};
width = 733;
}
);
note = triagrt;
unicode = 9658;
}
{
glyphname = rightWhitePointer;
layers = (
{
layerId = "6E183CFB-E55F-4C96-8804-AC4D4AF4B24B";
shapes = (
{
closed = 1;
nodes = (
(682,322,l),
(51,487,l),
(51,158,l)
);
},
{
closed = 1;
nodes = (
(88,440,l),
(551,322,l),
(88,205,l)
);
}
);
userData = {
public.verticalOrigin = 1069;
};
width = 733;
}
);
note = uni25BB;
unicode = 9659;
}
{
glyphname = downBlackTriangle;
layers = (
{
layerId = "6E183CFB-E55F-4C96-8804-AC4D4AF4B24B";
shapes = (
{
closed = 1;
nodes = (
(856,697,l),
(51,697,l),
(454,0,l)
);
}
);
userData = {
public.verticalOrigin = 1069;
};
width = 907;
}
);
note = triagdn;
unicode = 9660;
}
{
glyphname = downWhiteTriangle;
layers = (
{
layerId = "6E183CFB-E55F-4C96-8804-AC4D4AF4B24B";
shapes = (
{
closed = 1;
nodes = (
(856,697,l),
(51,697,l),
(454,0,l)
);
},
{
closed = 1;
nodes = (
(120,657,l),
(787,657,l),
(454,79,l)
);
}
);
userData = {
public.verticalOrigin = 1069;
};
width = 907;
}
);
note = uni25BD;
unicode = 9661;
}
{
glyphname = downBlackSmallTriangle;
layers = (
{
layerId = "6E183CFB-E55F-4C96-8804-AC4D4AF4B24B";
shapes = (
{
closed = 1;
nodes = (
(333,471,l),
(36,471,l),
(185,174,l)
);
}
);
userData = {
public.verticalOrigin = 1069;
};
width = 370;
}
);
note = uni25BE;
unicode = 9662;
}
{
glyphname = downWhiteSmallTriangle;
layers = (
{
layerId = "6E183CFB-E55F-4C96-8804-AC4D4AF4B24B";
shapes = (
{
closed = 1;
nodes = (
(333,471,l),
(36,471,l),
(185,174,l)
);
},
{
closed = 1;
nodes = (
(97,434,l),
(272,434,l),
(185,254,l)
);
}
);
userData = {
public.verticalOrigin = 1069;
};
width = 370;
}
);
note = uni25BF;
unicode = 9663;
}
{
glyphname = leftBlackTriangle;
layers = (
{
layerId = "6E183CFB-E55F-4C96-8804-AC4D4AF4B24B";
shapes = (
{
closed = 1;
nodes = (
(748,751,l),
(51,349,l),
(748,-54,l)
);
}
);
userData = {
public.verticalOrigin = 1069;
};
width = 799;
}
);
note = uni25C0;
unicode = 9664;
}
{
glyphname = leftWhiteTriangle;
layers = (
{
layerId = "6E183CFB-E55F-4C96-8804-AC4D4AF4B24B";
shapes = (
{
closed = 1;
nodes = (
(748,751,l),
(51,348,l),
(748,-54,l)
);
},
{
closed = 1;
nodes = (
(130,348,l),
(708,682,l),
(708,15,l)
);
}
);
userData = {
public.verticalOrigin = 1069;
};
width = 799;
}
);
note = uni25C1;
unicode = 9665;
}
{
glyphname = leftBlackSmallTriangle;
layers = (
{
layerId = "6E183CFB-E55F-4C96-8804-AC4D4AF4B24B";
shapes = (
{
closed = 1;
nodes = (
(333,471,l),
(36,322,l),
(333,174,l)
);
}
);
userData = {
public.verticalOrigin = 1069;
};
width = 370;
}
);
note = uni25C2;
unicode = 9666;
}
{
glyphname = leftWhiteSmallTriangle;
layers = (
{
layerId = "6E183CFB-E55F-4C96-8804-AC4D4AF4B24B";
shapes = (
{
closed = 1;
nodes = (
(333,471,l),
(36,322,l),
(333,174,l)
);
},
{
closed = 1;
nodes = (
(116,322,l),
(296,410,l),
(296,235,l)
);
}
);
userData = {
public.verticalOrigin = 1069;
};
width = 370;
}
);
note = uni25C3;
unicode = 9667;
}
{
glyphname = leftBlackPointer;
layers = (
{
layerId = "6E183CFB-E55F-4C96-8804-AC4D4AF4B24B";
shapes = (
{
closed = 1;
nodes = (
(682,487,l),
(51,322,l),
(682,158,l)
);
}
);
userData = {
public.verticalOrigin = 1069;
};
width = 733;
}
);
note = triaglf;
unicode = 9668;
}
{
glyphname = blackDiamond;
layers = (
{
layerId = "6E183CFB-E55F-4C96-8804-AC4D4AF4B24B";
shapes = (
{
closed = 1;
nodes = (
(1058,362,l),
(555,866,l),
(51,362,l),
(555,-141,l)
);
}
);
userData = {
public.verticalOrigin = 1069;
};
width = 1109;
}
);
note = uni25C6;
unicode = 9670;
}
{
glyphname = blackInWhiteDiamond;
layers = (
{
layerId = "6E183CFB-E55F-4C96-8804-AC4D4AF4B24B";
shapes = (
{
closed = 1;
nodes = (
(1058,362,l),
(555,866,l),
(51,362,l),
(555,-141,l)
);
},
{
closed = 1;
nodes = (
(143,362,l),
(555,775,l),
(967,362,l),
(555,-50,l)
);
},
{
closed = 1;
nodes = (
(765,362,l),
(555,572,l),
(345,362,l),
(555,153,l)
);
}
);
userData = {
public.verticalOrigin = 1069;
};
width = 1109;
}
);
note = uni25C8;
unicode = 9672;
}
{
glyphname = fisheye;
layers = (
{
layerId = "6E183CFB-E55F-4C96-8804-AC4D4AF4B24B";
shapes = (
{
closed = 1;
nodes = (
(666,-34,o),
(843,143,o),
(843,362,cs),
(843,581,o),
(666,758,o),
(447,758,cs),
(229,758,o),
(51,581,o),
(51,362,cs),
(51,143,o),
(229,-34,o),
(447,-34,cs)
);
},
{
closed = 1;
nodes = (
(266,35,o),
(120,181,o),
(120,362,cs),
(120,543,o),
(266,689,o),
(447,689,cs),
(628,689,o),
(774,543,o),
(774,362,cs),
(774,181,o),
(628,35,o),
(447,35,cs)
);
},
{
closed = 1;
nodes = (
(602,83,o),
(727,207,o),
(727,362,cs),
(727,517,o),
(602,641,o),
(447,641,cs),
(292,641,o),
(168,517,o),
(168,362,cs),
(168,207,o),
(292,83,o),
(447,83,cs)
);
}
);
userData = {
public.verticalOrigin = 1069;
};
width = 894;
}
);
note = uni25C9;
unicode = 9673;
}
{
glyphname = lozenge;
layers = (
{
layerId = "6E183CFB-E55F-4C96-8804-AC4D4AF4B24B";
shapes = (
{
closed = 1;
nodes = (
(669,364,l),
(360,881,l),
(51,364,l),
(360,-157,l)
);
},
{
closed = 1;
nodes = (
(115,364,l),
(360,775,l),
(605,364,l),
(360,-51,l)
);
}
);
userData = {
public.verticalOrigin = 1069;
};
width = 720;
}
);
note = lozenge;
unicode = 9674;
}
{
glyphname = dottedCircle;
layers = (
{
anchors = (
{
name = bottom;
pos = (447,0);
},
{
name = top;
pos = (442,725);
}
);
layerId = "6E183CFB-E55F-4C96-8804-AC4D4AF4B24B";
shapes = (
{
closed = 1;
nodes = (
(802,454,o),
(816,469,o),
(816,497,cs),
(816,524,o),
(802,539,o),
(775,539,cs),
(746,539,o),
(732,524,o),
(732,497,cs),
(732,469,o),
(746,454,o),
(773,454,cs)
);
},
{
closed = 1;
nodes = (
(226,69,o),
(240,84,o),
(240,111,cs),
(240,139,o),
(226,154,o),
(197,154,cs),
(170,154,o),
(156,139,o),
(156,111,cs),
(156,84,o),
(170,69,o),
(197,69,cs)
);
},
{
closed = 1;
nodes = (
(148,185,o),
(162,200,o),
(162,227,cs),
(162,255,o),
(148,270,o),
(121,270,cs),
(92,270,o),
(78,255,o),
(78,227,cs),
(78,200,o),
(92,185,o),
(121,185,cs)
);
},
{
closed = 1;
nodes = (
(340,-5,o),
(355,9,o),
(355,38,cs),
(355,65,o),
(340,77,o),
(312,77,cs),
(285,77,o),
(270,63,o),
(270,34,cs),
(270,7,o),
(285,-5,o),
(312,-5,cs)
);
},
{
closed = 1;
nodes = (
(121,321,o),
(135,335,o),
(135,362,cs),
(135,389,o),
(121,403,o),
(94,403,cs),
(65,403,o),
(51,389,o),
(51,362,cs),
(51,335,o),
(65,321,o),
(94,321,cs)
);
},
{
closed = 1;
nodes = (
(474,-34,o),
(488,-20,o),
(488,9,cs),
(488,36,o),
(474,50,o),
(447,50,cs),
(421,50,o),
(406,36,o),
(406,9,cs),
(406,-20,o),
(420,-34,o),
(447,-34,cs)
);
},
{
closed = 1;
nodes = (
(150,454,o),
(162,469,o),
(162,497,cs),
(162,524,o),
(148,539,o),
(121,539,cs),
(92,539,o),
(78,524,o),
(78,497,cs),
(78,469,o),
(92,454,o),
(123,454,cs)
);
},
{
closed = 1;
nodes = (
(611,-5,o),
(624,7,o),
(624,34,cs),
(624,63,o),
(611,77,o),
(584,77,cs),
(554,77,o),
(539,63,o),
(539,34,cs),
(539,7,o),
(554,-5,o),
(584,-5,cs)
);
},
{
closed = 1;
nodes = (
(725,69,o),
(738,84,o),
(738,111,cs),
(738,139,o),
(725,154,o),
(698,154,cs),
(670,154,o),
(655,139,o),
(655,111,cs),
(655,84,o),
(670,69,o),
(698,69,cs)
);
},
{
closed = 1;
nodes = (
(226,570,o),
(240,585,o),
(240,612,cs),
(240,640,o),
(226,655,o),
(197,655,cs),
(170,655,o),
(156,640,o),
(156,610,cs),
(156,583,o),
(170,570,o),
(197,570,cs)
);
},
{
closed = 1;
nodes = (
(340,647,o),
(355,661,o),
(355,688,cs),
(355,717,o),
(340,731,o),
(312,731,cs),
(285,731,o),
(270,717,o),
(270,688,cs),
(270,661,o),
(285,647,o),
(312,647,cs)
);
},
{
closed = 1;
nodes = (
(802,185,o),
(816,200,o),
(816,227,cs),
(816,255,o),
(802,270,o),
(773,270,cs),
(746,270,o),
(732,255,o),
(732,227,cs),
(732,200,o),
(746,185,o),
(773,185,cs)
);
},
{
closed = 1;
nodes = (
(474,674,o),
(488,688,o),
(488,717,cs),
(488,744,o),
(474,758,o),
(447,758,cs),
(420,758,o),
(406,744,o),
(406,717,cs),
(406,688,o),
(420,674,o),
(447,674,cs)
);
},
{
closed = 1;
nodes = (
(830,321,o),
(843,335,o),
(843,362,cs),
(843,389,o),
(830,403,o),
(803,403,cs),
(775,403,o),
(760,389,o),
(760,362,cs),
(760,335,o),
(775,321,o),
(803,321,cs)
);
},
{
closed = 1;
nodes = (
(611,647,o),
(624,661,o),
(624,688,cs),
(624,717,o),
(611,731,o),
(584,731,cs),
(554,731,o),
(539,717,o),
(539,688,cs),
(539,661,o),
(554,647,o),
(584,647,cs)
);
},
{
closed = 1;
nodes = (
(725,570,o),
(738,585,o),
(738,612,cs),
(738,640,o),
(725,655,o),
(698,655,cs),
(670,655,o),
(655,640,o),
(655,612,cs),
(655,585,o),
(670,570,o),
(698,570,cs)
);
}
);
userData = {
public.verticalOrigin = 1069;
};
width = 894;
}
);
note = uni25CC;
unicode = 9676;
}
{
glyphname = verticalFillCircle;
layers = (
{
layerId = "6E183CFB-E55F-4C96-8804-AC4D4AF4B24B";
shapes = (
{
closed = 1;
nodes = (
(676,-34,o),
(843,139,o),
(843,361,cs),
(843,586,o),
(671,758,o),
(445,758,cs),
(223,758,o),
(51,591,o),
(51,361,cs),
(51,134,o),
(218,-34,o),
(445,-34,cs)
);
},
{
closed = 1;
nodes = (
(144,236,o),
(128,295,o),
(128,361,cs),
(128,428,o),
(145,487,o),
(179,539,c),
(179,182,l)
);
},
{
closed = 1;
nodes = (
(277,90,o),
(258,103,o),
(239,115,c),
(239,607,l),
(257,623,o),
(276,636,o),
(296,647,c),
(296,77,l)
);
},
{
closed = 1;
nodes = (
(357,52,l),
(357,670,l),
(415,681,l),
(415,43,l)
);
},
{
closed = 1;
nodes = (
(476,681,l),
(534,670,l),
(534,52,l),
(476,43,l)
);
},
{
closed = 1;
nodes = (
(594,647,l),
(652,609,l),
(652,115,l),
(594,76,l)
);
},
{
closed = 1;
nodes = (
(714,540,l),
(750,484,o),
(767,425,o),
(767,361,cs),
(767,294,o),
(750,234,o),
(714,182,c)
);
}
);
userData = {
public.verticalOrigin = 1069;
};
width = 894;
}
);
note = uni25CD;
unicode = 9677;
}
{
glyphname = blackCircle;
layers = (
{
layerId = "6E183CFB-E55F-4C96-8804-AC4D4AF4B24B";
shapes = (
{
closed = 1;
nodes = (
(667,-34,o),
(843,142,o),
(843,362,cs),
(843,582,o),
(667,758,o),
(447,758,cs),
(227,758,o),
(51,582,o),
(51,362,cs),
(51,142,o),
(227,-34,o),
(447,-34,cs)
);
}
);
userData = {
public.verticalOrigin = 1069;
};
width = 894;
}
);
note = uni25CF;
unicode = 9679;
}
{
glyphname = leftHalfBlackWhiteCircle;
layers = (
{
layerId = "6E183CFB-E55F-4C96-8804-AC4D4AF4B24B";
shapes = (
{
closed = 1;
nodes = (
(667,-34,o),
(843,142,o),
(843,362,cs),
(843,582,o),
(667,758,o),
(447,758,cs),
(227,758,o),
(51,582,o),
(51,362,cs),
(51,142,o),
(227,-34,o),
(447,-34,cs)
);
},
{
closed = 1;
nodes = (
(447,716,l),
(644,716,o),
(801,559,o),
(801,362,cs),
(801,165,o),
(644,8,o),
(447,8,c)
);
}
);
userData = {
public.verticalOrigin = 1069;
};
width = 894;
}
);
note = uni25D0;
unicode = 9680;
}
{
glyphname = lowerHalfBlackWhiteCircle;
layers = (
{
layerId = "6E183CFB-E55F-4C96-8804-AC4D4AF4B24B";
shapes = (
{
closed = 1;
nodes = (
(667,-34,o),
(843,142,o),
(843,362,cs),
(843,582,o),
(667,758,o),
(447,758,cs),
(227,758,o),
(51,582,o),
(51,362,cs),
(51,142,o),
(227,-34,o),
(447,-34,cs)
);
},
{
closed = 1;
nodes = (
(93,559,o),
(250,716,o),
(447,716,cs),
(644,716,o),
(801,559,o),
(801,362,c),
(93,362,l)
);
}
);
userData = {
public.verticalOrigin = 1069;
};
width = 894;
}
);
note = uni25D2;
unicode = 9682;
}
{
glyphname = upperRightBlackCircle;
layers = (
{
layerId = "6E183CFB-E55F-4C96-8804-AC4D4AF4B24B";
shapes = (
{
closed = 1;
nodes = (
(667,-34,o),
(843,142,o),
(843,362,cs),
(843,582,o),
(667,758,o),
(447,758,cs),
(227,758,o),
(51,582,o),
(51,362,cs),
(51,142,o),
(227,-34,o),
(447,-34,cs)
);
},
{
closed = 1;
nodes = (
(250,8,o),
(93,165,o),
(93,362,cs),
(93,559,o),
(250,716,o),
(447,716,c),
(447,362,l),
(801,362,l),
(801,165,o),
(644,8,o),
(447,8,cs)
);
}
);
userData = {
public.verticalOrigin = 1069;
};
width = 894;
}
);
note = uni25D4;
unicode = 9684;
}
{
glyphname = upperLeftWhiteCircle;
layers = (
{
layerId = "6E183CFB-E55F-4C96-8804-AC4D4AF4B24B";
shapes = (
{
closed = 1;
nodes = (
(667,-34,o),
(843,142,o),
(843,362,cs),
(843,582,o),
(667,758,o),
(447,758,cs),
(227,758,o),
(51,582,o),
(51,362,cs),
(51,142,o),
(227,-34,o),
(447,-34,cs)
);
},
{
closed = 1;
nodes = (
(93,559,o),
(250,716,o),
(447,716,c),
(447,362,l),
(93,362,l)
);
}
);
userData = {
public.verticalOrigin = 1069;
};
width = 894;
}
);
note = uni25D5;
unicode = 9685;
}
{
glyphname = leftHalfBlackCircle;
layers = (
{
layerId = "6E183CFB-E55F-4C96-8804-AC4D4AF4B24B";
shapes = (
{
closed = 1;
nodes = (
(447,758,l),
(227,758,o),
(51,582,o),
(51,362,cs),
(51,142,o),
(227,-34,o),
(447,-34,c)
);
}
);
userData = {
public.verticalOrigin = 1069;
};
width = 498;
}
);
note = uni25D6;
unicode = 9686;
}
{
glyphname = rightHalfBlackCircle;
layers = (
{
layerId = "6E183CFB-E55F-4C96-8804-AC4D4AF4B24B";
shapes = (
{
closed = 1;
nodes = (
(271,-34,o),
(447,142,o),
(447,362,cs),
(447,582,o),
(271,758,o),
(51,758,c),
(51,-34,l)
);
}
);
userData = {
public.verticalOrigin = 1069;
};
width = 498;
}
);
note = uni25D7;
unicode = 9687;
}
{
glyphname = inverseBullet;
layers = (
{
layerId = "6E183CFB-E55F-4C96-8804-AC4D4AF4B24B";
shapes = (
{
closed = 1;
nodes = (
(521,127,l),
(521,597,l),
(51,597,l),
(51,127,l)
);
},
{
closed = 1;
nodes = (
(187,183,o),
(106,264,o),
(106,362,cs),
(106,461,o),
(186,541,o),
(285,541,cs),
(383,541,o),
(464,460,o),
(464,362,cs),
(464,264,o),
(383,183,o),
(285,183,cs)
);
}
);
userData = {
public.verticalOrigin = 1069;
};
width = 572;
}
);
note = invbullet;
unicode = 9688;
}
{
glyphname = inverseWhiteCircle;
layers = (
{
layerId = "6E183CFB-E55F-4C96-8804-AC4D4AF4B24B";
shapes = (
{
closed = 1;
nodes = (
(843,-34,l),
(843,758,l),
(51,758,l),
(51,-34,l)
);
},
{
closed = 1;
nodes = (
(256,17,o),
(102,171,o),
(102,362,cs),
(102,553,o),
(256,707,o),
(447,707,cs),
(638,707,o),
(792,553,o),
(792,362,cs),
(792,171,o),
(638,17,o),
(447,17,cs)
);
},
{
closed = 1;
nodes = (
(607,73,o),
(736,202,o),
(736,362,cs),
(736,522,o),
(607,651,o),
(447,651,cs),
(287,651,o),
(158,522,o),
(158,362,cs),
(158,202,o),
(287,73,o),
(447,73,cs)
);
}
);
userData = {
public.verticalOrigin = 1069;
};
width = 894;
}
);
note = invcircle;
unicode = 9689;
}
{
glyphname = upperHalfInverseWhiteCircle;
layers = (
{
layerId = "6E183CFB-E55F-4C96-8804-AC4D4AF4B24B";
shapes = (
{
closed = 1;
nodes = (
(102,362,l),
(102,553,o),
(256,707,o),
(447,707,cs),
(638,707,o),
(792,553,o),
(792,362,c),
(843,362,l),
(843,758,l),
(51,758,l),
(51,362,l)
);
},
{
closed = 1;
nodes = (
(736,362,l),
(736,522,o),
(607,651,o),
(447,651,cs),
(287,651,o),
(158,522,o),
(158,362,c)
);
}
);
userData = {
public.verticalOrigin = 1069;
};
width = 894;
}
);
note = uni25DA;
unicode = 9690;
}
{
glyphname = lowerHalfInverseWhiteCircle;
layers = (
{
layerId = "6E183CFB-E55F-4C96-8804-AC4D4AF4B24B";
shapes = (
{
closed = 1;
nodes = (
(843,-34,l),
(843,362,l),
(792,362,l),
(792,171,o),
(638,17,o),
(447,17,cs),
(256,17,o),
(102,171,o),
(102,362,c),
(51,362,l),
(51,-34,l)
);
},
{
closed = 1;
nodes = (
(607,73,o),
(736,202,o),
(736,362,c),
(158,362,l),
(158,202,o),
(287,73,o),
(447,73,cs)
);
}
);
userData = {
public.verticalOrigin = 1069;
};
width = 894;
}
);
note = uni25DB;
unicode = 9691;
}
{
glyphname = upperLeftArc;
layers = (
{
layerId = "6E183CFB-E55F-4C96-8804-AC4D4AF4B24B";
shapes = (
{
closed = 1;
nodes = (
(93,362,l),
(93,559,o),
(250,716,o),
(447,716,c),
(447,758,l),
(227,758,o),
(51,582,o),
(51,362,c)
);
}
);
userData = {
public.verticalOrigin = 1069;
};
width = 894;
}
);
note = uni25DC;
unicode = 9692;
}
{
glyphname = upperRightArc;
layers = (
{
layerId = "6E183CFB-E55F-4C96-8804-AC4D4AF4B24B";
shapes = (
{
closed = 1;
nodes = (
(843,362,l),
(843,582,o),
(667,758,o),
(447,758,c),
(447,716,l),
(644,716,o),
(801,559,o),
(801,362,c)
);
}
);
userData = {
public.verticalOrigin = 1069;
};
width = 894;
}
);
note = uni25DD;
unicode = 9693;
}
{
glyphname = lowerRightArc;
layers = (
{
layerId = "6E183CFB-E55F-4C96-8804-AC4D4AF4B24B";
shapes = (
{
closed = 1;
nodes = (
(667,-34,o),
(843,142,o),
(843,362,c),
(801,362,l),
(801,165,o),
(644,8,o),
(447,8,c),
(447,-34,l)
);
}
);
userData = {
public.verticalOrigin = 1069;
};
width = 894;
}
);
note = uni25DE;
unicode = 9694;
}
{
glyphname = lowerLeftArc;
layers = (
{
layerId = "6E183CFB-E55F-4C96-8804-AC4D4AF4B24B";
shapes = (
{
closed = 1;
nodes = (
(447,8,l),
(250,8,o),
(93,165,o),
(93,362,c),
(51,362,l),
(51,142,o),
(227,-34,o),
(447,-34,c)
);
}
);
userData = {
public.verticalOrigin = 1069;
};
width = 894;
}
);
note = uni25DF;
unicode = 9695;
}
{
glyphname = upperHalfArc;
layers = (
{
layerId = "6E183CFB-E55F-4C96-8804-AC4D4AF4B24B";
shapes = (
{
closed = 1;
nodes = (
(93,362,l),
(93,559,o),
(250,716,o),
(447,716,cs),
(644,716,o),
(801,559,o),
(801,362,c),
(843,362,l),
(843,582,o),
(667,758,o),
(447,758,cs),
(227,758,o),
(51,582,o),
(51,362,c)
);
}
);
userData = {
public.verticalOrigin = 1069;
};
width = 894;
}
);
note = uni25E0;
unicode = 9696;
}
{
glyphname = lowerRightBlackTriangle;
layers = (
{
layerId = "6E183CFB-E55F-4C96-8804-AC4D4AF4B24B";
shapes = (
{
closed = 1;
nodes = (
(649,0,l),
(649,598,l),
(51,0,l)
);
}
);
userData = {
public.verticalOrigin = 1069;
};
width = 700;
}
);
note = uni25E2;
unicode = 9698;
}
{
glyphname = upperLeftBlackTriangle;
layers = (
{
layerId = "6E183CFB-E55F-4C96-8804-AC4D4AF4B24B";
shapes = (
{
closed = 1;
nodes = (
(51,715,l),
(51,117,l),
(649,715,l)
);
}
);
userData = {
public.verticalOrigin = 1069;
};
width = 700;
}
);
note = uni25E4;
unicode = 9700;
}
{
glyphname = upperRightBlackTriangle;
layers = (
{
layerId = "6E183CFB-E55F-4C96-8804-AC4D4AF4B24B";
shapes = (
{
closed = 1;
nodes = (
(649,715,l),
(51,715,l),
(649,117,l)
);
}
);
userData = {
public.verticalOrigin = 1069;
};
width = 700;
}
);
note = uni25E5;
unicode = 9701;
}
{
glyphname = whiteBullet;
layers = (
{
layerId = "6E183CFB-E55F-4C96-8804-AC4D4AF4B24B";
shapes = (
{
closed = 1;
nodes = (
(236,241,o),
(293,292,o),
(293,362,cs),
(293,428,o),
(238,483,o),
(172,483,cs),
(106,483,o),
(51,428,o),
(51,362,cs),
(51,294,o),
(105,241,o),
(172,241,cs)
);
},
{
closed = 1;
nodes = (
(124,278,o),
(88,315,o),
(88,362,cs),
(88,407,o),
(126,446,o),
(172,446,cs),
(217,446,o),
(256,407,o),
(256,362,cs),
(256,318,o),
(223,278,o),
(172,278,cs)
);
}
);
userData = {
public.verticalOrigin = 1069;
};
width = 344;
}
);
note = openbullet;
unicode = 9702;
}
{
glyphname = upperLeftDiagonalHalfBlackSquare;
layers = (
{
layerId = "6E183CFB-E55F-4C96-8804-AC4D4AF4B24B";
shapes = (
{
closed = 1;
nodes = (
(649,0,l),
(649,598,l),
(51,598,l),
(51,0,l)
);
},
{
closed = 1;
nodes = (
(612,561,l),
(612,37,l),
(88,37,l)
);
}
);
userData = {
public.verticalOrigin = 1069;
};
width = 700;
}
);
note = uni25E9;
unicode = 9705;
}
{
glyphname = upWhiteTriangleWithDot;
layers = (
{
layerId = "6E183CFB-E55F-4C96-8804-AC4D4AF4B24B";
shapes = (
{
closed = 1;
nodes = (
(636,0,l),
(344,585,l),
(51,0,l)
);
},
{
closed = 1;
nodes = (
(375,143,o),
(400,167,o),
(400,198,cs),
(400,229,o),
(375,254,o),
(344,254,cs),
(313,254,o),
(289,229,o),
(289,198,cs),
(289,167,o),
(313,143,o),
(344,143,cs)
);
},
{
closed = 1;
nodes = (
(344,503,l),
(575,37,l),
(111,37,l)
);
}
);
userData = {
public.verticalOrigin = 1069;
};
width = 687;
}
);
note = uni25EC;
unicode = 9708;
}
{
glyphname = upLeftHalfBlackTriangle;
layers = (
{
layerId = "6E183CFB-E55F-4C96-8804-AC4D4AF4B24B";
shapes = (
{
closed = 1;
nodes = (
(636,0,l),
(343,585,l),
(51,0,l)
);
},
{
closed = 1;
nodes = (
(343,503,l),
(576,37,l),
(343,37,l)
);
}
);
userData = {
public.verticalOrigin = 1069;
};
width = 687;
}
);
note = uni25ED;
unicode = 9709;
}
{
glyphname = upRightHalfBlackTriangle;
layers = (
{
layerId = "6E183CFB-E55F-4C96-8804-AC4D4AF4B24B";
shapes = (
{
closed = 1;
nodes = (
(636,0,l),
(344,585,l),
(51,0,l)
);
},
{
closed = 1;
nodes = (
(344,503,l),
(344,37,l),
(111,37,l)
);
}
);
userData = {
public.verticalOrigin = 1069;
};
width = 687;
}
);
note = uni25EE;
unicode = 9710;
}
{
glyphname = largeCircle;
layers = (
{
layerId = "6E183CFB-E55F-4C96-8804-AC4D4AF4B24B";
shapes = (
{
closed = 1;
nodes = (
(836,-144,o),
(1063,83,o),
(1063,362,cs),
(1063,641,o),
(836,868,o),
(557,868,cs),
(278,868,o),
(51,641,o),
(51,362,cs),
(51,83,o),
(278,-144,o),
(557,-144,cs)
);
},
{
closed = 1;
nodes = (
(301,-102,o),
(93,106,o),
(93,362,cs),
(93,618,o),
(301,826,o),
(557,826,cs),
(813,826,o),
(1021,618,o),
(1021,362,cs),
(1021,106,o),
(813,-102,o),
(557,-102,cs)
);
}
);
userData = {
public.verticalOrigin = 1069;
};
width = 1114;
}
);
note = uni25EF;
unicode = 9711;
}
{
glyphname = whiteUpperLeftQuadrantSquare;
layers = (
{
layerId = "6E183CFB-E55F-4C96-8804-AC4D4AF4B24B";
shapes = (
{
closed = 1;
nodes = (
(644,40,l),
(644,608,l),
(76,608,l),
(76,40,l)
);
},
{
closed = 1;
nodes = (
(112,572,l),
(342,572,l),
(342,342,l),
(112,342,l)
);
},
{
closed = 1;
nodes = (
(112,306,l),
(378,306,l),
(378,572,l),
(608,572,l),
(608,76,l),
(112,76,l)
);
}
);
userData = {
public.verticalOrigin = 1069;
};
width = 720;
}
);
note = uni25F0;
unicode = 9712;
}
{
glyphname = whiteLowerLeftQuadrantSquare;
layers = (
{
layerId = "6E183CFB-E55F-4C96-8804-AC4D4AF4B24B";
shapes = (
{
closed = 1;
nodes = (
(644,40,l),
(644,608,l),
(76,608,l),
(76,40,l)
);
},
{
closed = 1;
nodes = (
(112,306,l),
(342,306,l),
(342,76,l),
(112,76,l)
);
},
{
closed = 1;
nodes = (
(378,342,l),
(112,342,l),
(112,572,l),
(608,572,l),
(608,76,l),
(378,76,l)
);
}
);
userData = {
public.verticalOrigin = 1069;
};
width = 720;
}
);
note = uni25F1;
unicode = 9713;
}
{
glyphname = whiteLowerRightQuadrantSquare;
layers = (
{
layerId = "6E183CFB-E55F-4C96-8804-AC4D4AF4B24B";
shapes = (
{
closed = 1;
nodes = (
(644,40,l),
(644,608,l),
(76,608,l),
(76,40,l)
);
},
{
closed = 1;
nodes = (
(112,572,l),
(608,572,l),
(608,342,l),
(342,342,l),
(342,76,l),
(112,76,l)
);
},
{
closed = 1;
nodes = (
(378,306,l),
(608,306,l),
(608,76,l),
(378,76,l)
);
}
);
userData = {
public.verticalOrigin = 1069;
};
width = 720;
}
);
note = uni25F2;
unicode = 9714;
}
{
glyphname = upperLeftQuadrantWhiteCircle;
layers = (
{
layerId = "6E183CFB-E55F-4C96-8804-AC4D4AF4B24B";
shapes = (
{
closed = 1;
nodes = (
(531,15,o),
(669,153,o),
(669,324,cs),
(669,495,o),
(531,633,o),
(360,633,cs),
(188,633,o),
(51,495,o),
(51,324,cs),
(51,153,o),
(188,15,o),
(360,15,cs)
);
},
{
closed = 1;
nodes = (
(96,479,o),
(205,588,o),
(342,596,c),
(342,342,l),
(88,342,l)
);
},
{
closed = 1;
nodes = (
(215,51,o),
(97,163,o),
(88,306,c),
(378,306,l),
(378,596,l),
(521,587,o),
(633,469,o),
(633,324,cs),
(633,173,o),
(511,51,o),
(360,51,cs)
);
}
);
userData = {
public.verticalOrigin = 1069;
};
width = 720;
}
);
note = uni25F4;
unicode = 9716;
}
{
glyphname = lowerLeftQuadrantWhiteCircle;
layers = (
{
layerId = "6E183CFB-E55F-4C96-8804-AC4D4AF4B24B";
shapes = (
{
closed = 1;
nodes = (
(531,15,o),
(669,152,o),
(669,324,cs),
(669,495,o),
(531,633,o),
(360,633,cs),
(189,633,o),
(51,495,o),
(51,324,cs),
(51,152,o),
(189,15,o),
(360,15,cs)
);
},
{
closed = 1;
nodes = (
(205,60,o),
(96,169,o),
(88,306,c),
(342,306,l),
(342,52,l)
);
},
{
closed = 1;
nodes = (
(378,342,l),
(88,342,l),
(97,485,o),
(215,597,o),
(360,597,cs),
(511,597,o),
(633,475,o),
(633,324,cs),
(633,179,o),
(521,61,o),
(378,52,c)
);
}
);
userData = {
public.verticalOrigin = 1069;
};
width = 720;
}
);
note = uni25F5;
unicode = 9717;
}
{
glyphname = lowerRightQuadrantWhiteCircle;
layers = (
{
layerId = "6E183CFB-E55F-4C96-8804-AC4D4AF4B24B";
shapes = (
{
closed = 1;
nodes = (
(532,15,o),
(669,153,o),
(669,324,cs),
(669,495,o),
(532,633,o),
(360,633,cs),
(189,633,o),
(51,495,o),
(51,324,cs),
(51,153,o),
(189,15,o),
(360,15,cs)
);
},
{
closed = 1;
nodes = (
(199,61,o),
(87,179,o),
(87,324,cs),
(87,475,o),
(209,597,o),
(360,597,cs),
(505,597,o),
(623,485,o),
(632,342,c),
(342,342,l),
(342,52,l)
);
},
{
closed = 1;
nodes = (
(378,306,l),
(632,306,l),
(624,169,o),
(515,60,o),
(378,52,c)
);
}
);
userData = {
public.verticalOrigin = 1069;
};
width = 720;
}
);
note = uni25F6;
unicode = 9718;
}
{
glyphname = upperRightQuadrantWhiteCircle;
layers = (
{
layerId = "6E183CFB-E55F-4C96-8804-AC4D4AF4B24B";
shapes = (
{
closed = 1;
nodes = (
(531,15,o),
(669,153,o),
(669,324,cs),
(669,496,o),
(531,633,o),
(360,633,cs),
(189,633,o),
(51,496,o),
(51,324,cs),
(51,153,o),
(189,15,o),
(360,15,cs)
);
},
{
closed = 1;
nodes = (
(209,51,o),
(87,173,o),
(87,324,cs),
(87,469,o),
(199,587,o),
(342,596,c),
(342,306,l),
(632,306,l),
(623,163,o),
(505,51,o),
(360,51,cs)
);
},
{
closed = 1;
nodes = (
(378,596,l),
(515,588,o),
(624,479,o),
(632,342,c),
(378,342,l)
);
}
);
userData = {
public.verticalOrigin = 1069;
};
width = 720;
}
);
note = uni25F7;
unicode = 9719;
}
{
glyphname = upperLeftTriangle;
layers = (
{
layerId = "6E183CFB-E55F-4C96-8804-AC4D4AF4B24B";
shapes = (
{
closed = 1;
nodes = (
(51,715,l),
(51,117,l),
(649,715,l)
);
},
{
closed = 1;
nodes = (
(93,221,l),
(93,673,l),
(545,673,l)
);
}
);
userData = {
public.verticalOrigin = 1069;
};
width = 700;
}
);
note = uni25F8;
unicode = 9720;
}
{
glyphname = upperRightTriangle;
layers = (
{
layerId = "6E183CFB-E55F-4C96-8804-AC4D4AF4B24B";
shapes = (
{
closed = 1;
nodes = (
(649,715,l),
(51,715,l),
(649,117,l)
);
},
{
closed = 1;
nodes = (
(155,673,l),
(607,673,l),
(607,221,l)
);
}
);
userData = {
public.verticalOrigin = 1069;
};
width = 700;
}
);
note = uni25F9;
unicode = 9721;
}
{
glyphname = lowerLeftTriangle;
layers = (
{
layerId = "6E183CFB-E55F-4C96-8804-AC4D4AF4B24B";
shapes = (
{
closed = 1;
nodes = (
(51,0,l),
(649,0,l),
(51,598,l)
);
},
{
closed = 1;
nodes = (
(545,42,l),
(93,42,l),
(93,494,l)
);
}
);
userData = {
public.verticalOrigin = 1069;
};
width = 700;
}
);
note = uni25FA;
unicode = 9722;
}
{
glyphname = mediumBlackSquare;
layers = (
{
layerId = "6E183CFB-E55F-4C96-8804-AC4D4AF4B24B";
shapes = (
{
closed = 1;
nodes = (
(659,58,l),
(659,666,l),
(51,666,l),
(51,58,l)
);
}
);
userData = {
public.verticalOrigin = 1069;
};
width = 710;
}
);
note = uni25FC;
unicode = 9724;
}
{
glyphname = mediumWhiteSmallSquare;
layers = (
{
layerId = "6E183CFB-E55F-4C96-8804-AC4D4AF4B24B";
shapes = (
{
closed = 1;
nodes = (
(469,153,l),
(469,571,l),
(51,571,l),
(51,153,l)
);
},
{
closed = 1;
nodes = (
(102,520,l),
(418,520,l),
(418,204,l),
(102,204,l)
);
}
);
userData = {
public.verticalOrigin = 1069;
};
width = 520;
}
);
note = uni25FD;
unicode = 9725;
}
{
glyphname = mediumBlackSmallSquare;
layers = (
{
layerId = "6E183CFB-E55F-4C96-8804-AC4D4AF4B24B";
shapes = (
{
closed = 1;
nodes = (
(469,153,l),
(469,571,l),
(51,571,l),
(51,153,l)
);
}
);
userData = {
public.verticalOrigin = 1069;
};
width = 520;
}
);
note = uni25FE;
unicode = 9726;
}
{
glyphname = lowerRightTriangle;
layers = (
{
layerId = "6E183CFB-E55F-4C96-8804-AC4D4AF4B24B";
shapes = (
{
closed = 1;
nodes = (
(649,0,l),
(649,598,l),
(51,0,l)
);
},
{
closed = 1;
nodes = (
(607,494,l),
(607,42,l),
(155,42,l)
);
}
);
userData = {
public.verticalOrigin = 1069;
};
width = 700;
}
);
note = uni25FF;
unicode = 9727;
}
{
glyphname = blackSunWithRays;
layers = (
{
layerId = "6E183CFB-E55F-4C96-8804-AC4D4AF4B24B";
shapes = (
{
closed = 1;
nodes = (
(553,97,o),
(634,176,o),
(634,274,cs),
(634,372,o),
(554,451,o),
(457,451,cs),
(360,451,o),
(280,372,o),
(280,274,cs),
(280,176,o),
(359,97,o),
(457,97,cs)
);
},
{
closed = 1;
nodes = (
(320,107,l),
(290,137,l),
(176,23,l),
(206,-7,l)
);
},
{
closed = 1;
nodes = (
(478,-152,l),
(478,59,l),
(436,59,l),
(436,-152,l)
);
},
{
closed = 1;
nodes = (
(242,253,l),
(242,295,l),
(51,295,l),
(51,253,l)
);
},
{
closed = 1;
nodes = (
(320,441,l),
(206,555,l),
(176,525,l),
(290,411,l)
);
},
{
closed = 1;
nodes = (
(738,23,l),
(624,137,l),
(594,107,l),
(708,-7,l)
);
},
{
closed = 1;
nodes = (
(863,253,l),
(863,295,l),
(672,295,l),
(672,253,l)
);
},
{
closed = 1;
nodes = (
(478,489,l),
(478,700,l),
(436,700,l),
(436,489,l)
);
},
{
closed = 1;
nodes = (
(738,525,l),
(708,555,l),
(594,441,l),
(624,411,l)
);
}
);
userData = {
public.verticalOrigin = 1069;
};
width = 914;
}
);
note = uni2600;
unicode = 9728;
}
{
glyphname = cloud;
layers = (
{
layerId = "6E183CFB-E55F-4C96-8804-AC4D4AF4B24B";
shapes = (
{
closed = 1;
nodes = (
(949,124,l),
(973,171,o),
(989,235,o),
(989,280,cs),
(989,389,o),
(925,456,o),
(812,456,cs),
(779,456,o),
(740,442,o),
(715,421,c),
(718,430,o),
(719,439,o),
(719,448,cs),
(719,490,o),
(686,517,o),
(640,517,cs),
(604,517,o),
(575,496,o),
(562,465,c),
(561,560,o),
(496,631,o),
(407,631,cs),
(317,631,o),
(245,553,o),
(230,446,c),
(218,457,o),
(198,462,o),
(170,462,cs),
(104,462,o),
(51,405,o),
(51,318,cs),
(51,188,o),
(136,124,o),
(306,124,cs)
);
}
);
userData = {
public.verticalOrigin = 1069;
};
width = 1040;
}
);
note = uni2601;
unicode = 9729;
}
{
glyphname = umbrella;
layers = (
{
layerId = "6E183CFB-E55F-4C96-8804-AC4D4AF4B24B";
shapes = (
{
closed = 1;
nodes = (
(393,-17,o),
(417,13,o),
(417,62,cs),
(417,363,l),
(470,359,o),
(505,334,o),
(534,294,c),
(563,329,o),
(600,346,o),
(644,346,cs),
(685,346,o),
(726,329,o),
(753,305,c),
(750,329,o),
(731,364,o),
(696,410,cs),
(626,502,o),
(528,558,o),
(417,563,c),
(407,620,l),
(392,620,l),
(382,563,l),
(328,560,o),
(277,545,o),
(230,518,cs),
(135,463,o),
(60,356,o),
(51,305,c),
(83,333,o),
(120,346,o),
(160,346,cs),
(205,346,o),
(241,329,o),
(270,294,c),
(297,335,o),
(334,358,o),
(382,363,c),
(382,62,ls),
(382,31,o),
(371,16,o),
(350,16,cs),
(327,16,o),
(316,30,o),
(313,50,cs),
(312,59,o),
(306,64,o),
(297,64,cs),
(287,64,o),
(282,56,o),
(282,40,cs),
(282,9,o),
(310,-17,o),
(350,-17,cs)
);
}
);
userData = {
public.verticalOrigin = 1069;
};
width = 804;
}
);
note = uni2602;
unicode = 9730;
}
{
glyphname = comet;
layers = (
{
layerId = "6E183CFB-E55F-4C96-8804-AC4D4AF4B24B";
shapes = (
{
closed = 1;
nodes = (
(373,-7,o),
(467,88,o),
(467,201,c),
(534,305,o),
(552,367,o),
(563,440,c),
(516,377,o),
(468,342,o),
(418,335,c),
(405,350,o),
(390,363,o),
(372,374,c),
(389,431,o),
(423,493,o),
(451,514,c),
(399,497,o),
(352,466,o),
(298,405,c),
(287,408,o),
(275,409,o),
(263,409,c),
(266,433,o),
(280,462,o),
(306,497,c),
(253,474,o),
(197,428,o),
(171,389,c),
(101,356,o),
(51,280,o),
(51,201,cs),
(51,88,o),
(145,-7,o),
(259,-7,cs)
);
},
{
closed = 1;
nodes = (
(170,39,o),
(97,111,o),
(97,201,cs),
(97,264,o),
(132,320,o),
(191,348,c),
(199,374,o),
(214,398,o),
(237,421,c),
(233,410,o),
(232,399,o),
(232,388,c),
(232,359,l),
(241,361,o),
(250,362,o),
(259,362,cs),
(275,362,o),
(289,360,o),
(299,358,c),
(313,390,o),
(351,433,o),
(378,451,c),
(351,404,o),
(335,369,o),
(331,346,c),
(354,335,o),
(374,318,o),
(391,295,c),
(417,297,o),
(484,326,o),
(507,349,c),
(487,290,o),
(452,248,o),
(417,236,c),
(419,221,o),
(420,209,o),
(420,201,cs),
(420,112,o),
(349,39,o),
(259,39,cs)
);
},
{
closed = 1;
nodes = (
(321,521,o),
(325,522,o),
(329,523,cs),
(332,524,o),
(335,533,o),
(338,546,cs),
(344,572,o),
(371,598,o),
(412,623,cs),
(452,647,o),
(505,721,o),
(527,767,c),
(499,730,o),
(440,664,o),
(388,639,cs),
(336,614,o),
(296,583,o),
(296,543,cs),
(296,530,o),
(306,521,o),
(318,521,cs)
);
},
{
closed = 1;
nodes = (
(598,477,o),
(608,486,o),
(614,504,cs),
(620,522,o),
(636,543,o),
(661,568,cs),
(711,618,o),
(770,693,o),
(824,775,c),
(777,715,o),
(706,637,o),
(657,605,cs),
(608,573,o),
(567,537,o),
(567,498,cs),
(567,484,o),
(573,477,o),
(585,477,cs)
);
},
{
closed = 1;
nodes = (
(499,550,o),
(509,557,o),
(516,570,cs),
(521,579,ls),
(526,587,o),
(543,603,o),
(572,632,cs),
(600,660,o),
(633,706,o),
(670,771,cs),
(707,836,o),
(739,878,o),
(765,900,c),
(707,860,o),
(650,775,o),
(618,726,cs),
(602,701,o),
(572,674,o),
(531,646,cs),
(489,618,o),
(468,595,o),
(468,576,cs),
(468,559,o),
(475,550,o),
(488,550,cs)
);
}
);
userData = {
public.verticalOrigin = 1069;
};
width = 875;
}
);
note = uni2604;
unicode = 9732;
}
{
glyphname = blackstar;
layers = (
{
layerId = "6E183CFB-E55F-4C96-8804-AC4D4AF4B24B";
shapes = (
{
closed = 1;
nodes = (
(480,186,l),
(760,-17,l),
(651,301,l),
(909,474,l),
(595,474,l),
(480,815,l),
(367,474,l),
(51,474,l),
(309,301,l),
(202,-17,l)
);
}
);
userData = {
public.verticalOrigin = 1069;
};
width = 960;
}
);
note = uni2605;
unicode = 9733;
}
{
glyphname = whitestar;
layers = (
{
layerId = "6E183CFB-E55F-4C96-8804-AC4D4AF4B24B";
shapes = (
{
closed = 1;
nodes = (
(517,174,l),
(818,-48,l),
(703,298,l),
(983,484,l),
(642,484,l),
(517,856,l),
(392,484,l),
(51,484,l),
(331,298,l),
(214,-48,l)
);
},
{
closed = 1;
nodes = (
(403,321,l),
(225,435,l),
(437,435,l),
(517,676,l),
(596,435,l),
(807,435,l),
(631,321,l),
(710,103,l),
(517,249,l),
(324,103,l)
);
}
);
userData = {
public.verticalOrigin = 1069;
};
width = 1034;
}
);
note = uni2606;
unicode = 9734;
}
{
glyphname = lightning;
layers = (
{
layerId = "6E183CFB-E55F-4C96-8804-AC4D4AF4B24B";
shapes = (
{
closed = 1;
nodes = (
(265,12,o),
(304,18,o),
(342,18,cs),
(367,18,o),
(391,15,o),
(414,10,c),
(426,30,l),
(400,91,o),
(385,163,o),
(380,247,c),
(350,274,l),
(342,224,o),
(337,182,o),
(337,147,c),
(337,141,o),
(338,134,o),
(338,128,c),
(123,347,l),
(345,662,l),
(304,694,l),
(51,339,l),
(305,83,l),
(275,74,o),
(238,56,o),
(194,29,c),
(224,0,l)
);
}
);
userData = {
public.verticalOrigin = 1069;
};
width = 477;
}
);
note = uni2607;
unicode = 9735;
}
{
glyphname = thunderstorm;
layers = (
{
layerId = "6E183CFB-E55F-4C96-8804-AC4D4AF4B24B";
shapes = (
{
closed = 1;
nodes = (
(111,0,l),
(111,634,l),
(539,634,l),
(329,339,l),
(583,83,l),
(553,74,o),
(516,56,o),
(472,29,c),
(502,0,l),
(543,12,o),
(582,18,o),
(620,18,cs),
(645,18,o),
(668,15,o),
(692,10,c),
(704,30,l),
(678,91,o),
(663,163,o),
(658,247,c),
(628,274,l),
(620,225,o),
(616,184,o),
(616,150,cs),
(616,143,o),
(616,135,o),
(616,128,c),
(401,347,l),
(608,638,l),
(608,694,l),
(51,694,l),
(51,0,l)
);
}
);
userData = {
public.verticalOrigin = 1069;
};
width = 755;
}
);
note = uni2608;
unicode = 9736;
}
{
glyphname = telephoneblack;
layers = (
{
layerId = "6E183CFB-E55F-4C96-8804-AC4D4AF4B24B";
shapes = (
{
closed = 1;
nodes = (
(230,0,ls),
(238,0,o),
(242,3,o),
(242,9,cs),
(242,28,l),
(650,28,l),
(650,9,ls),
(650,2,o),
(652,0,o),
(662,0,cs),
(723,0,ls),
(733,0,o),
(737,2,o),
(737,9,cs),
(737,28,l),
(774,28,l),
(774,95,ls),
(774,145,o),
(755,213,o),
(718,245,cs),
(681,277,ls),
(628,323,o),
(600,362,o),
(600,404,cs),
(600,478,l),
(616,470,o),
(624,454,o),
(624,431,c),
(623,404,l),
(623,391,l),
(651,379,o),
(708,369,o),
(768,369,cs),
(797,369,o),
(821,372,o),
(841,375,c),
(841,380,l),
(836,536,o),
(706,617,o),
(501,617,cs),
(391,617,ls),
(184,617,o),
(51,534,o),
(51,380,cs),
(51,375,l),
(71,372,o),
(96,369,o),
(123,369,cs),
(185,369,o),
(241,379,o),
(269,391,c),
(270,404,l),
(268,431,l),
(268,454,o),
(276,471,o),
(292,478,c),
(292,404,ls),
(292,386,o),
(288,369,o),
(277,350,cs),
(267,332,o),
(240,305,o),
(197,266,cs),
(174,245,ls),
(141,214,o),
(118,146,o),
(118,95,cs),
(118,28,l),
(155,28,l),
(155,9,ls),
(155,2,o),
(159,0,o),
(168,0,cs)
);
},
{
closed = 1;
nodes = (
(223,309,o),
(260,327,o),
(266,376,c),
(232,364,o),
(187,357,o),
(129,357,cs),
(99,357,o),
(73,360,o),
(51,364,c),
(51,347,ls),
(51,335,o),
(59,325,o),
(72,319,cs),
(86,313,o),
(107,309,o),
(134,309,cs)
);
},
{
closed = 1;
nodes = (
(373,104,o),
(316,163,o),
(316,234,cs),
(316,305,o),
(371,364,o),
(446,364,cs),
(519,364,o),
(576,305,o),
(576,234,cs),
(576,163,o),
(517,104,o),
(446,104,cs)
);
},
{
closed = 1;
nodes = (
(388,489,l),
(414,487,o),
(433,485,o),
(446,485,cs),
(459,485,o),
(478,487,o),
(504,489,c),
(504,449,l),
(388,449,l)
);
},
{
closed = 1;
nodes = (
(785,309,o),
(806,313,o),
(820,319,cs),
(833,325,o),
(841,335,o),
(841,347,cs),
(841,364,l),
(819,360,o),
(793,357,o),
(762,357,cs),
(705,357,o),
(660,364,o),
(626,376,c),
(630,356,o),
(636,343,o),
(647,334,cs),
(668,317,o),
(697,309,o),
(758,309,cs)
);
}
);
userData = {
public.verticalOrigin = 1069;
};
width = 892;
}
);
note = uni260E;
unicode = 9742;
}
{
glyphname = whitetelephone;
layers = (
{
layerId = "6E183CFB-E55F-4C96-8804-AC4D4AF4B24B";
shapes = (
{
closed = 1;
nodes = (
(229,0,ls),
(237,0,o),
(242,3,o),
(242,9,cs),
(242,28,l),
(650,28,l),
(650,9,ls),
(650,2,o),
(653,0,o),
(663,0,cs),
(724,0,ls),
(734,0,o),
(737,2,o),
(737,9,cs),
(737,28,l),
(775,28,l),
(775,96,ls),
(775,146,o),
(752,209,o),
(718,246,c),
(682,278,l),
(627,322,o),
(600,362,o),
(600,404,cs),
(600,479,l),
(616,471,o),
(624,455,o),
(624,432,c),
(624,408,l),
(624,399,ls),
(626,327,o),
(665,310,o),
(758,310,cs),
(813,310,o),
(841,320,o),
(841,361,cs),
(841,534,o),
(715,618,o),
(502,618,cs),
(390,618,ls),
(176,618,o),
(51,534,o),
(51,361,cs),
(51,320,o),
(79,310,o),
(134,310,cs),
(230,310,o),
(267,331,o),
(268,399,cs),
(268,408,l),
(268,432,l),
(268,455,o),
(276,472,o),
(292,479,c),
(292,404,ls),
(292,387,o),
(288,370,o),
(277,351,cs),
(267,332,o),
(240,304,o),
(197,267,c),
(174,246,l),
(143,212,o),
(117,147,o),
(117,96,cs),
(117,28,l),
(155,28,l),
(155,9,ls),
(155,2,o),
(158,0,o),
(167,0,cs)
);
},
{
closed = 1;
nodes = (
(173,14,o),
(170,15,o),
(170,18,cs),
(170,28,l),
(227,28,l),
(227,18,ls),
(227,15,o),
(224,14,o),
(218,14,cs),
(178,14,ls)
);
},
{
closed = 1;
nodes = (
(95,333,o),
(75,339,o),
(75,348,cs),
(75,361,l),
(95,357,o),
(115,355,o),
(136,355,cs),
(169,355,o),
(204,360,o),
(240,370,c),
(227,342,o),
(199,333,o),
(134,333,cs)
);
},
{
closed = 1;
nodes = (
(529,85,o),
(596,152,o),
(596,235,cs),
(596,318,o),
(529,385,o),
(446,385,cs),
(363,385,o),
(296,318,o),
(296,235,cs),
(296,152,o),
(363,85,o),
(446,85,cs)
);
},
{
closed = 1;
nodes = (
(373,105,o),
(316,163,o),
(316,235,cs),
(316,306,o),
(371,365,o),
(446,365,cs),
(519,365,o),
(576,306,o),
(576,235,cs),
(576,163,o),
(517,105,o),
(446,105,cs)
);
},
{
closed = 1;
nodes = (
(668,14,o),
(665,15,o),
(665,18,cs),
(665,28,l),
(722,28,l),
(722,18,ls),
(722,15,o),
(719,14,o),
(714,14,cs),
(674,14,ls)
);
},
{
closed = 1;
nodes = (
(141,96,ls),
(141,151,o),
(159,209,o),
(225,263,cs),
(290,316,o),
(316,354,o),
(316,404,cs),
(316,490,l),
(344,492,l),
(357,492,l),
(370,491,l),
(370,429,l),
(522,429,l),
(522,491,l),
(535,492,l),
(548,492,l),
(576,490,l),
(576,404,ls),
(576,358,o),
(595,322,o),
(665,265,cs),
(736,206,o),
(751,150,o),
(751,96,cs),
(751,52,l),
(141,52,l)
);
},
{
closed = 1;
nodes = (
(388,490,l),
(414,488,o),
(433,486,o),
(446,486,cs),
(459,486,o),
(478,488,o),
(504,490,c),
(504,450,l),
(388,450,l)
);
},
{
closed = 1;
nodes = (
(116,373,o),
(95,375,o),
(75,379,c),
(78,517,o),
(195,595,o),
(390,595,cs),
(502,595,ls),
(695,595,o),
(813,519,o),
(817,379,c),
(797,375,o),
(776,373,o),
(754,373,cs),
(712,373,o),
(677,379,o),
(648,391,c),
(647,399,l),
(647,408,l),
(648,432,l),
(648,483,o),
(614,510,o),
(545,510,cs),
(533,510,o),
(517,509,o),
(496,506,cs),
(475,503,o),
(459,503,o),
(446,503,cs),
(433,503,o),
(417,503,o),
(396,506,cs),
(375,509,o),
(359,510,o),
(347,510,cs),
(278,510,o),
(244,483,o),
(244,432,c),
(245,408,l),
(245,399,l),
(244,391,l),
(215,379,o),
(180,373,o),
(138,373,cs)
);
},
{
closed = 1;
nodes = (
(693,333,o),
(665,342,o),
(652,370,c),
(687,360,o),
(723,355,o),
(756,355,cs),
(777,355,o),
(797,357,o),
(817,361,c),
(817,348,ls),
(817,339,o),
(798,333,o),
(758,333,cs)
);
}
);
userData = {
public.verticalOrigin = 1069;
};
width = 892;
}
);
note = uni260F;
unicode = 9743;
}
{
glyphname = ballotBox;
layers = (
{
layerId = "6E183CFB-E55F-4C96-8804-AC4D4AF4B24B";
shapes = (
{
closed = 1;
nodes = (
(770,0,l),
(770,719,l),
(51,719,l),
(51,0,l)
);
},
{
closed = 1;
nodes = (
(111,659,l),
(710,659,l),
(710,60,l),
(111,60,l)
);
}
);
userData = {
public.verticalOrigin = 1069;
};
width = 821;
}
);
note = uni2610;
unicode = 9744;
}
{
glyphname = ballotBoxWithCheck;
layers = (
{
layerId = "6E183CFB-E55F-4C96-8804-AC4D4AF4B24B";
shapes = (
{
closed = 1;
nodes = (
(770,0,l),
(770,719,l),
(51,719,l),
(51,0,l)
);
},
{
closed = 1;
nodes = (
(111,659,l),
(710,659,l),
(710,60,l),
(111,60,l)
);
},
{
closed = 1;
nodes = (
(366,132,o),
(379,134,o),
(386,138,c),
(453,292,o),
(576,486,o),
(683,607,c),
(669,620,l),
(557,542,o),
(414,354,o),
(353,229,c),
(316,301,o),
(266,373,o),
(229,403,c),
(195,401,o),
(153,373,o),
(142,346,c),
(193,308,o),
(240,254,o),
(322,135,c),
(327,133,o),
(336,132,o),
(347,132,cs)
);
}
);
userData = {
public.verticalOrigin = 1069;
};
width = 821;
}
);
note = uni2611;
unicode = 9745;
}
{
glyphname = ballotBoxWithX;
layers = (
{
layerId = "6E183CFB-E55F-4C96-8804-AC4D4AF4B24B";
shapes = (
{
closed = 1;
nodes = (
(770,0,l),
(770,719,l),
(51,719,l),
(51,0,l)
);
},
{
closed = 1;
nodes = (
(111,659,l),
(710,659,l),
(710,60,l),
(111,60,l)
);
},
{
closed = 1;
nodes = (
(628,182,l),
(233,577,l),
(193,537,l),
(588,142,l)
);
},
{
closed = 1;
nodes = (
(628,537,l),
(588,577,l),
(193,182,l),
(233,142,l)
);
}
);
userData = {
public.verticalOrigin = 1069;
};
width = 821;
}
);
note = uni2612;
unicode = 9746;
}
{
glyphname = umbrellaWithRainDrops;
layers = (
{
layerId = "6E183CFB-E55F-4C96-8804-AC4D4AF4B24B";
shapes = (
{
closed = 1;
nodes = (
(467,-17,o),
(491,13,o),
(491,62,cs),
(491,363,l),
(544,359,o),
(579,334,o),
(608,294,c),
(637,329,o),
(674,346,o),
(718,346,cs),
(759,346,o),
(800,329,o),
(827,305,c),
(822,333,o),
(802,369,o),
(767,414,cs),
(697,504,o),
(598,559,o),
(491,563,c),
(481,620,l),
(466,620,l),
(456,563,l),
(402,560,o),
(351,545,o),
(304,518,cs),
(209,463,o),
(134,356,o),
(125,305,c),
(157,333,o),
(194,346,o),
(234,346,cs),
(279,346,o),
(315,329,o),
(344,294,c),
(371,335,o),
(408,358,o),
(456,363,c),
(456,62,ls),
(456,31,o),
(445,16,o),
(424,16,cs),
(401,16,o),
(389,30,o),
(387,50,cs),
(386,59,o),
(380,64,o),
(371,64,cs),
(361,64,o),
(356,56,o),
(356,40,cs),
(356,9,o),
(384,-17,o),
(424,-17,cs)
);
},
{
closed = 1;
nodes = (
(76,580,o),
(85,585,o),
(91,596,cs),
(119,644,l),
(110,653,l),
(64,618,ls),
(56,612,o),
(51,605,o),
(51,598,cs),
(51,589,o),
(62,580,o),
(70,580,cs)
);
},
{
closed = 1;
nodes = (
(163,500,o),
(172,505,o),
(178,516,cs),
(206,564,l),
(197,573,l),
(151,538,ls),
(143,532,o),
(138,525,o),
(138,518,cs),
(138,509,o),
(149,500,o),
(157,500,cs)
);
},
{
closed = 1;
nodes = (
(103,780,o),
(112,785,o),
(118,796,cs),
(146,844,l),
(137,853,l),
(91,818,ls),
(83,812,o),
(78,805,o),
(78,798,cs),
(78,789,o),
(89,780,o),
(97,780,cs)
);
},
{
closed = 1;
nodes = (
(249,602,o),
(264,615,o),
(281,639,cs),
(345,727,l),
(335,736,l),
(282,692,o),
(249,663,o),
(236,651,cs),
(223,639,o),
(216,629,o),
(216,621,cs),
(216,612,o),
(226,602,o),
(237,602,c)
);
},
{
closed = 1;
nodes = (
(183,704,o),
(198,717,o),
(215,741,cs),
(279,829,l),
(269,838,l),
(216,794,o),
(183,765,o),
(170,753,cs),
(157,741,o),
(150,731,o),
(150,723,cs),
(150,714,o),
(160,704,o),
(171,704,c)
);
},
{
closed = 1;
nodes = (
(383,580,o),
(392,585,o),
(398,596,cs),
(426,644,l),
(417,653,l),
(371,618,ls),
(363,612,o),
(358,605,o),
(358,598,cs),
(358,589,o),
(369,580,o),
(377,580,cs)
);
},
{
closed = 1;
nodes = (
(406,780,o),
(415,785,o),
(421,796,cs),
(449,844,l),
(440,853,l),
(394,818,ls),
(386,812,o),
(381,805,o),
(381,798,cs),
(381,789,o),
(392,780,o),
(400,780,cs)
);
},
{
closed = 1;
nodes = (
(556,602,o),
(572,615,o),
(589,639,cs),
(651,727,l),
(642,736,l),
(557,665,ls),
(539,650,o),
(530,639,o),
(527,634,c),
(524,630,o),
(522,625,o),
(522,621,cs),
(522,611,o),
(533,602,o),
(543,602,c)
);
},
{
closed = 1;
nodes = (
(490,704,o),
(505,717,o),
(522,741,cs),
(586,829,l),
(576,838,l),
(523,794,o),
(490,765,o),
(477,753,cs),
(464,741,o),
(457,731,o),
(457,723,cs),
(457,714,o),
(467,704,o),
(478,704,c)
);
},
{
closed = 1;
nodes = (
(686,579,o),
(694,584,o),
(701,596,cs),
(729,644,l),
(720,653,l),
(674,617,ls),
(665,610,o),
(660,605,o),
(660,597,cs),
(660,588,o),
(672,579,o),
(680,579,cs)
);
},
{
closed = 1;
nodes = (
(773,500,o),
(782,505,o),
(788,516,cs),
(816,564,l),
(807,573,l),
(761,538,ls),
(753,532,o),
(748,525,o),
(748,518,cs),
(748,509,o),
(759,500,o),
(767,500,cs)
);
},
{
closed = 1;
nodes = (
(861,612,o),
(870,617,o),
(876,628,cs),
(904,676,l),
(895,685,l),
(849,650,ls),
(841,644,o),
(836,637,o),
(836,630,cs),
(836,621,o),
(847,612,o),
(855,612,cs)
);
},
{
closed = 1;
nodes = (
(713,780,o),
(722,785,o),
(728,796,cs),
(756,844,l),
(747,853,l),
(701,818,ls),
(693,812,o),
(688,805,o),
(688,798,cs),
(688,789,o),
(699,780,o),
(707,780,cs)
);
},
{
closed = 1;
nodes = (
(797,704,o),
(813,717,o),
(830,741,cs),
(892,829,l),
(883,838,l),
(798,767,ls),
(780,752,o),
(771,741,o),
(768,736,c),
(765,732,o),
(763,727,o),
(763,723,cs),
(763,713,o),
(774,704,o),
(784,704,c)
);
}
);
userData = {
public.verticalOrigin = 1069;
};
width = 955;
}
);
note = uni2614;
unicode = 9748;
}
{
glyphname = hotBeverage;
layers = (
{
layerId = "6E183CFB-E55F-4C96-8804-AC4D4AF4B24B";
shapes = (
{
closed = 1;
nodes = (
(473,-6,o),
(551,36,o),
(594,125,c),
(721,137,o),
(802,200,o),
(802,282,cs),
(802,353,o),
(765,391,o),
(704,391,cs),
(675,391,o),
(652,383,o),
(638,375,c),
(636,374,l),
(635,386,o),
(635,398,o),
(635,411,c),
(604,452,o),
(490,479,o),
(343,479,cs),
(198,479,o),
(82,454,o),
(51,411,c),
(51,312,o),
(56,240,o),
(66,197,cs),
(76,153,o),
(93,117,o),
(114,87,cs),
(155,28,o),
(226,-6,o),
(343,-6,cs)
);
},
{
closed = 1;
nodes = (
(286,29,o),
(245,35,o),
(218,46,cs),
(165,68,o),
(129,105,o),
(105,182,cs),
(93,220,o),
(87,280,o),
(87,362,c),
(154,340,o),
(243,329,o),
(343,329,cs),
(440,329,o),
(523,338,o),
(597,362,c),
(597,283,o),
(591,224,o),
(580,185,cs),
(569,145,o),
(552,115,o),
(534,95,cs),
(497,54,o),
(455,29,o),
(342,29,cs)
);
},
{
closed = 1;
nodes = (
(396,39,o),
(442,50,o),
(478,72,cs),
(549,115,o),
(579,176,o),
(579,334,c),
(557,325,o),
(526,319,o),
(496,317,c),
(496,242,o),
(500,180,o),
(475,134,cs),
(449,87,o),
(403,61,o),
(340,47,c),
(340,37,l)
);
},
{
closed = 1;
nodes = (
(130,373,o),
(115,376,o),
(103,381,cs),
(90,386,o),
(84,391,o),
(84,396,cs),
(84,410,o),
(111,423,o),
(166,435,cs),
(220,447,o),
(279,452,o),
(343,452,cs),
(407,452,o),
(467,446,o),
(521,435,cs),
(575,424,o),
(602,410,o),
(602,396,cs),
(602,391,o),
(596,386,o),
(583,381,cs),
(571,376,o),
(556,373,o),
(538,370,c),
(547,378,o),
(552,385,o),
(552,391,cs),
(552,404,o),
(534,414,o),
(498,422,cs),
(461,430,o),
(410,434,o),
(343,434,cs),
(276,434,o),
(224,430,o),
(188,422,cs),
(152,414,o),
(134,404,o),
(134,391,cs),
(134,385,o),
(139,378,o),
(148,370,c)
);
},
{
closed = 1;
nodes = (
(274,537,o),
(282,552,o),
(282,579,cs),
(282,598,o),
(271,619,o),
(249,642,cs),
(227,665,o),
(216,685,o),
(216,702,cs),
(216,725,o),
(227,749,o),
(235,762,c),
(209,745,o),
(185,711,o),
(185,675,cs),
(185,657,o),
(197,639,o),
(220,621,cs),
(243,603,o),
(255,583,o),
(255,563,cs),
(255,543,o),
(246,526,o),
(235,501,c)
);
},
{
closed = 1;
nodes = (
(622,196,o),
(634,277,o),
(635,321,c),
(646,332,o),
(666,339,o),
(693,339,cs),
(726,339,o),
(742,318,o),
(742,279,cs),
(742,224,o),
(698,188,o),
(614,180,c)
);
},
{
closed = 1;
nodes = (
(389,546,o),
(394,562,o),
(394,589,cs),
(394,610,o),
(383,634,o),
(361,660,cs),
(339,686,o),
(327,708,o),
(327,728,cs),
(327,753,o),
(338,781,o),
(346,796,c),
(321,779,o),
(295,739,o),
(295,698,cs),
(295,678,o),
(307,659,o),
(331,637,cs),
(354,616,o),
(366,594,o),
(366,571,cs),
(366,548,o),
(357,529,o),
(346,501,c)
);
},
{
closed = 1;
nodes = (
(512,538,o),
(518,554,o),
(518,579,cs),
(518,598,o),
(507,619,o),
(485,642,cs),
(463,665,o),
(452,685,o),
(452,702,cs),
(452,725,o),
(463,749,o),
(471,762,c),
(446,748,o),
(421,712,o),
(421,675,cs),
(421,657,o),
(433,639,o),
(456,621,cs),
(479,603,o),
(491,583,o),
(491,563,cs),
(491,543,o),
(482,526,o),
(471,501,c)
);
}
);
userData = {
public.verticalOrigin = 1069;
};
width = 853;
}
);
note = uni2615;
unicode = 9749;
}
{
glyphname = whiteShogiPiece;
layers = (
{
layerId = "6E183CFB-E55F-4C96-8804-AC4D4AF4B24B";
shapes = (
{
closed = 1;
nodes = (
(577,0,l),
(532,409,l),
(314,533,l),
(96,409,l),
(51,0,l)
);
},
{
closed = 1;
nodes = (
(141,381,l),
(314,479,l),
(487,381,l),
(525,47,l),
(103,47,l)
);
}
);
userData = {
public.verticalOrigin = 1069;
};
width = 628;
}
);
note = uni2616;
unicode = 9750;
}
{
glyphname = blackShogiPiece;
layers = (
{
layerId = "6E183CFB-E55F-4C96-8804-AC4D4AF4B24B";
shapes = (
{
closed = 1;
nodes = (
(577,0,l),
(532,409,l),
(314,533,l),
(96,409,l),
(51,0,l)
);
}
);
userData = {
public.verticalOrigin = 1069;
};
width = 628;
}
);
note = uni2617;
unicode = 9751;
}
{
glyphname = shamrock;
layers = (
{
layerId = "6E183CFB-E55F-4C96-8804-AC4D4AF4B24B";
shapes = (
{
closed = 1;
nodes = (
(417,32,o),
(472,136,o),
(472,281,cs),
(472,295,o),
(471,309,o),
(470,323,c),
(519,315,o),
(589,263,o),
(624,217,cs),
(659,171,o),
(700,144,o),
(745,144,cs),
(810,144,o),
(849,179,o),
(849,240,cs),
(849,288,o),
(815,324,o),
(765,336,c),
(765,343,l),
(814,354,o),
(849,390,o),
(849,439,cs),
(849,498,o),
(812,533,o),
(745,533,cs),
(701,533,o),
(660,509,o),
(624,462,cs),
(587,414,o),
(536,380,o),
(470,360,c),
(484,412,o),
(521,470,o),
(571,511,cs),
(621,552,o),
(645,589,o),
(645,635,cs),
(645,701,o),
(612,739,o),
(550,739,cs),
(500,739,o),
(466,704,o),
(454,655,c),
(447,655,l),
(433,706,o),
(399,739,o),
(351,739,cs),
(290,739,o),
(256,700,o),
(256,635,cs),
(256,590,o),
(279,552,o),
(326,514,cs),
(384,467,o),
(405,423,o),
(429,360,c),
(367,378,o),
(316,412,o),
(279,460,cs),
(241,509,o),
(200,533,o),
(155,533,cs),
(88,533,o),
(51,498,o),
(51,439,cs),
(51,391,o),
(84,355,o),
(135,343,c),
(135,336,l),
(84,324,o),
(51,288,o),
(51,240,cs),
(51,178,o),
(89,144,o),
(155,144,cs),
(196,144,o),
(234,164,o),
(267,205,cs),
(332,286,o),
(394,319,o),
(440,325,c),
(440,276,o),
(434,228,o),
(423,182,cs),
(401,90,o),
(334,35,o),
(260,6,c),
(321,-13,l)
);
}
);
userData = {
public.verticalOrigin = 1069;
};
width = 900;
}
);
unicode = 9752;
}
{
glyphname = reversedRotatedFloralHeartBullet;
layers = (
{
layerId = "6E183CFB-E55F-4C96-8804-AC4D4AF4B24B";
shapes = (
{
closed = 1;
nodes = (
(749,2,o),
(882,101,o),
(882,251,cs),
(882,327,o),
(817,387,o),
(749,395,c),
(794,425,o),
(860,448,o),
(939,448,cs),
(983,448,o),
(1024,437,o),
(1062,413,c),
(1051,385,o),
(1031,346,o),
(1002,297,cs),
(973,248,o),
(958,204,o),
(958,164,cs),
(958,70,o),
(1010,12,o),
(1098,12,cs),
(1199,12,o),
(1270,95,o),
(1270,224,cs),
(1270,323,o),
(1214,404,o),
(1113,451,c),
(1117,466,o),
(1119,481,o),
(1119,498,cs),
(1119,608,o),
(1067,662,o),
(973,662,cs),
(920,662,o),
(881,629,o),
(862,594,cs),
(852,577,l),
(865,560,l),
(884,582,o),
(930,603,o),
(971,603,cs),
(1037,603,o),
(1077,563,o),
(1077,500,cs),
(1077,493,o),
(1076,481,o),
(1073,467,c),
(1033,479,o),
(995,485,o),
(960,485,cs),
(882,485,o),
(817,467,o),
(763,430,c),
(779,458,o),
(787,491,o),
(787,530,cs),
(787,618,o),
(703,685,o),
(582,685,cs),
(429,685,o),
(341,597,o),
(341,454,cs),
(341,439,o),
(344,417,o),
(349,389,cs),
(354,360,o),
(357,338,o),
(357,323,cs),
(357,236,o),
(313,184,o),
(228,184,cs),
(171,184,o),
(121,244,o),
(116,269,c),
(131,280,o),
(144,306,o),
(144,324,cs),
(144,356,o),
(126,372,o),
(97,372,cs),
(68,372,o),
(51,349,o),
(51,316,cs),
(51,267,o),
(77,218,o),
(129,169,cs),
(232,72,o),
(417,2,o),
(573,2,cs)
);
},
{
closed = 1;
nodes = (
(1037,102,o),
(1012,128,o),
(1012,169,cs),
(1012,199,o),
(1024,239,o),
(1047,288,cs),
(1070,336,o),
(1084,370,o),
(1092,388,c),
(1131,348,o),
(1157,285,o),
(1157,224,cs),
(1157,148,o),
(1127,102,o),
(1078,102,cs)
);
}
);
userData = {
public.verticalOrigin = 1069;
};
width = 1321;
}
);
unicode = 9753;
}
{
glyphname = rightBlackIndex;
layers = (
{
layerId = "6E183CFB-E55F-4C96-8804-AC4D4AF4B24B";
shapes = (
{
closed = 1;
nodes = (
(711,-6,o),
(777,10,o),
(777,65,cs),
(777,89,o),
(784,97,o),
(799,102,cs),
(824,110,o),
(836,128,o),
(836,154,cs),
(836,172,o),
(828,182,o),
(826,201,cs),
(825,213,o),
(837,223,o),
(850,229,cs),
(875,240,o),
(883,255,o),
(883,278,cs),
(883,310,o),
(875,324,o),
(846,353,c),
(885,353,o),
(930,358,o),
(977,358,cs),
(1020,358,o),
(1066,355,o),
(1089,355,cs),
(1147,355,o),
(1169,372,o),
(1169,406,cs),
(1169,451,o),
(1124,462,o),
(1067,469,cs),
(1027,474,o),
(972,479,o),
(922,486,cs),
(871,493,o),
(795,492,o),
(759,505,c),
(589,464,l),
(607,445,o),
(723,415,o),
(765,415,cs),
(804,415,o),
(835,446,o),
(835,486,cs),
(835,495,o),
(815,505,o),
(802,508,cs),
(783,512,o),
(749,522,o),
(702,542,cs),
(659,560,o),
(602,567,o),
(542,567,cs),
(484,567,o),
(448,551,o),
(391,506,cs),
(333,460,o),
(315,455,o),
(275,455,cs),
(263,455,o),
(241,456,o),
(228,457,c),
(203,422,o),
(184,352,o),
(184,283,cs),
(184,192,o),
(199,129,o),
(228,94,c),
(299,94,l),
(386,24,o),
(522,-6,o),
(632,-6,cs)
);
},
{
closed = 1;
nodes = (
(209,43,ls),
(224,43,o),
(229,52,o),
(229,63,cs),
(229,70,l),
(225,63,o),
(221,60,o),
(214,60,cs),
(161,60,o),
(143,184,o),
(143,276,cs),
(143,366,o),
(158,491,o),
(214,491,cs),
(221,491,o),
(224,490,o),
(229,484,c),
(229,486,ls),
(229,501,o),
(221,510,o),
(209,510,cs),
(134,510,ls),
(70,510,o),
(51,367,o),
(51,276,cs),
(51,184,o),
(69,43,o),
(134,43,cs)
);
}
);
userData = {
public.verticalOrigin = 1069;
};
width = 1220;
}
);
note = uni261B;
unicode = 9755;
}
{
glyphname = leftWhiteIndex;
layers = (
{
layerId = "6E183CFB-E55F-4C96-8804-AC4D4AF4B24B";
shapes = (
{
closed = 1;
nodes = (
(702,-24,o),
(840,7,o),
(931,76,c),
(1004,76,l),
(1040,114,o),
(1058,184,o),
(1058,283,cs),
(1058,358,o),
(1036,440,o),
(1005,475,c),
(1002,476,o),
(965,473,o),
(949,473,cs),
(914,473,o),
(901,475,o),
(844,520,cs),
(782,569,o),
(742,585,o),
(682,585,cs),
(613,585,o),
(557,576,o),
(515,559,cs),
(471,541,o),
(436,531,o),
(418,526,cs),
(406,523,o),
(394,517,o),
(386,511,c),
(357,509,o),
(328,507,o),
(299,504,cs),
(253,499,o),
(195,492,o),
(154,487,cs),
(72,477,o),
(37,454,o),
(37,406,cs),
(37,359,o),
(70,337,o),
(135,337,cs),
(158,337,o),
(205,340,o),
(247,340,cs),
(279,340,o),
(310,338,o),
(339,336,c),
(327,319,o),
(323,302,o),
(323,278,cs),
(323,246,o),
(337,227,o),
(366,214,cs),
(375,210,o),
(380,206,o),
(380,199,cs),
(380,188,o),
(370,173,o),
(370,154,cs),
(370,120,o),
(387,96,o),
(419,85,cs),
(428,82,o),
(429,80,o),
(429,65,cs),
(429,5,o),
(486,-24,o),
(592,-24,cs)
);
},
{
closed = 1;
nodes = (
(464,34,o),
(459,59,o),
(459,74,cs),
(459,76,o),
(459,78,o),
(460,80,c),
(467,80,ls),
(522,80,o),
(572,105,o),
(609,120,cs),
(625,127,o),
(646,136,o),
(666,146,c),
(672,140,o),
(677,130,o),
(678,121,c),
(667,106,o),
(641,85,o),
(614,70,cs),
(578,50,o),
(557,34,o),
(496,34,cs)
);
},
{
closed = 1;
nodes = (
(470,361,o),
(441,373,o),
(412,373,cs),
(394,373,o),
(384,372,o),
(375,370,c),
(335,372,o),
(286,376,o),
(247,376,cs),
(204,376,o),
(157,373,o),
(135,373,cs),
(87,373,o),
(73,383,o),
(73,406,cs),
(73,431,o),
(94,441,o),
(159,451,cs),
(199,457,o),
(254,463,o),
(304,468,cs),
(322,470,o),
(344,471,o),
(367,473,c),
(367,468,ls),
(367,410,o),
(407,377,o),
(453,377,cs),
(479,377,o),
(522,383,o),
(561,392,c),
(566,382,o),
(572,373,o),
(578,364,c),
(577,364,l),
(560,358,o),
(529,345,o),
(477,337,c)
);
},
{
closed = 1;
nodes = (
(427,111,o),
(402,122,o),
(402,150,cs),
(402,166,o),
(406,181,o),
(410,191,c),
(420,187,o),
(427,186,o),
(437,186,cs),
(460,186,o),
(520,195,o),
(563,209,cs),
(609,224,o),
(652,245,o),
(684,265,c),
(692,268,o),
(699,270,o),
(706,270,cs),
(724,270,o),
(735,254,o),
(735,237,cs),
(735,229,o),
(732,220,o),
(728,214,c),
(709,200,o),
(643,166,o),
(599,149,cs),
(540,126,o),
(496,111,o),
(458,111,cs)
);
},
{
closed = 1;
nodes = (
(426,222,o),
(411,228,o),
(385,244,cs),
(363,258,o),
(359,261,o),
(359,275,cs),
(359,299,o),
(362,322,o),
(381,337,c),
(388,338,o),
(394,338,o),
(399,338,cs),
(437,338,o),
(448,323,o),
(448,297,c),
(513,304,o),
(549,317,o),
(586,331,c),
(611,339,o),
(638,358,o),
(660,355,c),
(671,354,o),
(686,348,o),
(686,329,cs),
(686,321,o),
(681,308,o),
(680,305,c),
(661,290,o),
(623,266,o),
(558,243,cs),
(519,229,o),
(468,222,o),
(442,222,cs)
);
},
{
closed = 1;
nodes = (
(568,15,o),
(589,23,o),
(620,39,cs),
(660,60,o),
(694,87,o),
(709,109,c),
(711,114,o),
(712,122,o),
(712,129,cs),
(712,142,o),
(706,154,o),
(699,162,c),
(724,175,o),
(746,188,o),
(757,197,c),
(762,203,o),
(767,214,o),
(768,227,c),
(786,221,o),
(806,219,o),
(829,219,cs),
(845,219,o),
(862,221,o),
(874,224,c),
(874,259,l),
(863,256,o),
(842,255,o),
(829,255,cs),
(801,255,o),
(779,258,o),
(761,267,c),
(752,283,o),
(736,294,o),
(716,296,c),
(719,305,o),
(721,315,o),
(721,325,cs),
(721,359,o),
(699,388,o),
(658,388,cs),
(643,388,o),
(628,383,o),
(612,377,c),
(607,384,o),
(601,392,o),
(596,401,c),
(618,407,o),
(635,415,o),
(642,422,c),
(615,446,l),
(603,433,o),
(496,413,o),
(455,413,cs),
(428,413,o),
(402,430,o),
(402,467,cs),
(402,469,o),
(402,473,o),
(402,477,c),
(403,477,l),
(403,480,o),
(416,488,o),
(427,491,cs),
(445,496,o),
(483,507,o),
(529,526,cs),
(566,541,o),
(618,549,o),
(682,549,cs),
(734,549,o),
(766,536,o),
(822,491,cs),
(881,444,o),
(904,437,o),
(949,437,cs),
(959,437,o),
(975,438,o),
(987,439,c),
(1007,404,o),
(1022,341,o),
(1022,283,cs),
(1022,203,o),
(1010,146,o),
(987,112,c),
(919,112,l),
(846,50,o),
(720,10,o),
(592,10,cs),
(552,10,l)
);
},
{
closed = 1;
nodes = (
(1100,43,ls),
(1165,43,o),
(1183,184,o),
(1183,276,cs),
(1183,367,o),
(1164,510,o),
(1100,510,cs),
(1025,510,ls),
(1013,510,o),
(1005,501,o),
(1005,486,cs),
(1005,484,l),
(1010,490,o),
(1013,491,o),
(1020,491,cs),
(1076,491,o),
(1091,366,o),
(1091,276,cs),
(1091,184,o),
(1073,60,o),
(1020,60,cs),
(1013,60,o),
(1009,63,o),
(1005,70,c),
(1005,63,ls),
(1005,52,o),
(1010,43,o),
(1025,43,cs)
);
}
);
userData = {
public.verticalOrigin = 1069;
};
width = 1220;
}
);
note = uni261C;
unicode = 9756;
}
{
glyphname = upWhiteIndex;
layers = (
{
layerId = "6E183CFB-E55F-4C96-8804-AC4D4AF4B24B";
shapes = (
{
closed = 1;
nodes = (
(477,-20,o),
(559,2,o),
(594,33,c),
(595,36,o),
(592,73,o),
(592,89,cs),
(592,124,o),
(594,137,o),
(639,194,cs),
(688,256,o),
(704,296,o),
(704,356,cs),
(704,425,o),
(695,481,o),
(678,523,cs),
(660,567,o),
(650,602,o),
(645,620,cs),
(642,632,o),
(636,644,o),
(630,652,c),
(628,681,o),
(626,710,o),
(623,739,cs),
(618,785,o),
(611,843,o),
(606,884,cs),
(596,966,o),
(573,1001,o),
(525,1001,cs),
(478,1001,o),
(456,968,o),
(456,903,cs),
(456,880,o),
(459,833,o),
(459,791,cs),
(459,759,o),
(457,728,o),
(455,699,c),
(438,711,o),
(421,715,o),
(397,715,cs),
(365,715,o),
(346,701,o),
(333,672,cs),
(329,663,o),
(325,658,o),
(318,658,cs),
(307,658,o),
(292,668,o),
(273,668,cs),
(239,668,o),
(215,651,o),
(204,619,cs),
(201,610,o),
(199,609,o),
(184,609,cs),
(124,609,o),
(95,552,o),
(95,446,cs),
(95,336,o),
(126,198,o),
(195,107,c),
(195,34,l),
(233,-2,o),
(303,-20,o),
(402,-20,cs)
);
},
{
closed = 1;
nodes = (
(486,-145,o),
(629,-126,o),
(629,-62,cs),
(629,13,ls),
(629,25,o),
(620,33,o),
(605,33,cs),
(603,33,l),
(609,28,o),
(610,25,o),
(610,18,cs),
(610,-38,o),
(485,-53,o),
(395,-53,cs),
(303,-53,o),
(179,-35,o),
(179,18,cs),
(179,25,o),
(182,29,o),
(189,33,c),
(182,33,ls),
(171,33,o),
(162,28,o),
(162,13,cs),
(162,-62,ls),
(162,-127,o),
(303,-145,o),
(395,-145,cs)
);
},
{
closed = 1;
nodes = (
(225,371,o),
(204,397,o),
(189,424,cs),
(169,460,o),
(153,481,o),
(153,542,cs),
(153,574,o),
(178,579,o),
(193,579,cs),
(195,579,o),
(197,579,o),
(199,578,c),
(199,571,ls),
(199,516,o),
(224,466,o),
(239,429,cs),
(246,413,o),
(255,392,o),
(265,372,c),
(259,366,o),
(249,361,o),
(240,360,c)
);
},
{
closed = 1;
nodes = (
(322,16,o),
(265,28,o),
(231,51,c),
(231,119,l),
(169,192,o),
(129,318,o),
(129,446,cs),
(129,486,l),
(134,470,o),
(142,449,o),
(158,418,cs),
(179,378,o),
(206,344,o),
(228,329,c),
(233,327,o),
(241,326,o),
(248,326,cs),
(261,326,o),
(273,332,o),
(281,339,c),
(294,314,o),
(307,292,o),
(316,281,c),
(322,276,o),
(333,271,o),
(346,270,c),
(340,252,o),
(338,232,o),
(338,209,cs),
(338,193,o),
(340,176,o),
(343,164,c),
(378,164,l),
(375,175,o),
(374,196,o),
(374,209,cs),
(374,237,o),
(377,259,o),
(386,277,c),
(402,286,o),
(413,302,o),
(415,322,c),
(424,319,o),
(434,317,o),
(444,317,cs),
(478,317,o),
(507,339,o),
(507,380,cs),
(507,395,o),
(502,410,o),
(496,426,c),
(503,431,o),
(511,437,o),
(520,442,c),
(526,420,o),
(534,403,o),
(541,396,c),
(565,423,l),
(552,435,o),
(532,542,o),
(532,583,cs),
(532,610,o),
(549,636,o),
(586,636,cs),
(588,636,o),
(592,636,o),
(596,636,c),
(596,635,l),
(599,635,o),
(607,622,o),
(610,611,cs),
(615,593,o),
(626,555,o),
(645,509,cs),
(660,472,o),
(668,420,o),
(668,356,cs),
(668,304,o),
(655,272,o),
(610,216,cs),
(563,157,o),
(556,134,o),
(556,89,cs),
(556,79,o),
(557,63,o),
(558,51,c),
(523,31,o),
(460,16,o),
(402,16,cs)
);
},
{
closed = 1;
nodes = (
(348,303,o),
(339,306,o),
(333,310,c),
(319,329,o),
(285,395,o),
(268,439,cs),
(245,498,o),
(230,542,o),
(230,580,cs),
(230,611,o),
(241,636,o),
(269,636,cs),
(285,636,o),
(300,632,o),
(310,628,c),
(306,618,o),
(305,611,o),
(305,601,cs),
(305,578,o),
(314,518,o),
(328,475,cs),
(343,429,o),
(364,386,o),
(384,354,c),
(387,346,o),
(389,339,o),
(389,332,cs),
(389,314,o),
(373,303,o),
(356,303,cs)
);
},
{
closed = 1;
nodes = (
(440,352,o),
(427,357,o),
(424,358,c),
(409,377,o),
(385,415,o),
(362,480,cs),
(348,519,o),
(341,570,o),
(341,596,cs),
(341,612,o),
(347,627,o),
(363,653,cs),
(377,675,o),
(380,679,o),
(394,679,cs),
(418,679,o),
(441,676,o),
(456,657,c),
(457,650,o),
(457,644,o),
(457,639,cs),
(457,601,o),
(442,590,o),
(416,590,c),
(423,525,o),
(436,489,o),
(449,453,cs),
(458,427,o),
(477,400,o),
(477,382,cs),
(477,362,o),
(467,352,o),
(448,352,cs)
);
},
{
closed = 1;
nodes = (
(483,461,l),
(477,478,o),
(464,509,o),
(456,561,c),
(480,568,o),
(492,597,o),
(492,626,cs),
(492,644,o),
(491,654,o),
(489,663,c),
(491,703,o),
(495,752,o),
(495,791,cs),
(495,834,o),
(492,881,o),
(492,903,cs),
(492,951,o),
(502,965,o),
(525,965,cs),
(550,965,o),
(560,944,o),
(570,879,cs),
(576,839,o),
(582,784,o),
(587,734,cs),
(589,716,o),
(590,694,o),
(592,671,c),
(587,671,ls),
(529,671,o),
(496,631,o),
(496,585,cs),
(496,559,o),
(502,516,o),
(511,477,c),
(501,472,o),
(492,466,o),
(483,460,c)
);
}
);
userData = {
public.verticalOrigin = 1069;
};
width = 800;
}
);
unicode = 9757;
}
{
glyphname = rightWhiteIndex;
layers = (
{
layerId = "6E183CFB-E55F-4C96-8804-AC4D4AF4B24B";
shapes = (
{
closed = 1;
nodes = (
(734,-24,o),
(791,5,o),
(791,65,cs),
(791,80,o),
(792,82,o),
(801,85,cs),
(833,96,o),
(850,120,o),
(850,154,cs),
(850,173,o),
(840,188,o),
(840,199,cs),
(840,206,o),
(845,210,o),
(854,214,cs),
(883,227,o),
(897,246,o),
(897,278,cs),
(897,302,o),
(893,319,o),
(881,336,c),
(910,338,o),
(941,340,o),
(973,340,cs),
(1015,340,o),
(1062,337,o),
(1085,337,cs),
(1150,337,o),
(1183,359,o),
(1183,406,cs),
(1183,454,o),
(1148,477,o),
(1066,487,cs),
(1025,492,o),
(967,499,o),
(921,504,cs),
(892,507,o),
(863,509,o),
(834,511,c),
(826,517,o),
(814,523,o),
(802,526,cs),
(784,531,o),
(749,541,o),
(705,559,cs),
(663,576,o),
(607,585,o),
(538,585,cs),
(478,585,o),
(438,569,o),
(376,520,cs),
(319,475,o),
(306,473,o),
(271,473,cs),
(255,473,o),
(218,476,o),
(215,475,c),
(184,440,o),
(162,358,o),
(162,283,cs),
(162,184,o),
(180,114,o),
(216,76,c),
(289,76,l),
(380,7,o),
(518,-24,o),
(628,-24,cs)
);
},
{
closed = 1;
nodes = (
(195,43,ls),
(210,43,o),
(215,52,o),
(215,63,cs),
(215,70,l),
(211,63,o),
(207,60,o),
(200,60,cs),
(147,60,o),
(129,184,o),
(129,276,cs),
(129,366,o),
(144,491,o),
(200,491,cs),
(207,491,o),
(210,490,o),
(215,484,c),
(215,486,ls),
(215,501,o),
(207,510,o),
(195,510,cs),
(120,510,ls),
(56,510,o),
(37,367,o),
(37,276,cs),
(37,184,o),
(55,43,o),
(120,43,cs)
);
},
{
closed = 1;
nodes = (
(663,34,o),
(642,50,o),
(606,70,cs),
(579,85,o),
(553,106,o),
(542,121,c),
(543,130,o),
(548,140,o),
(554,146,c),
(574,136,o),
(595,127,o),
(611,120,cs),
(648,105,o),
(698,80,o),
(753,80,cs),
(760,80,l),
(761,78,o),
(761,76,o),
(761,74,cs),
(761,59,o),
(756,34,o),
(724,34,cs)
);
},
{
closed = 1;
nodes = (
(500,10,o),
(374,50,o),
(301,112,c),
(233,112,l),
(210,146,o),
(198,203,o),
(198,283,cs),
(198,341,o),
(213,404,o),
(233,439,c),
(245,438,o),
(261,437,o),
(271,437,cs),
(316,437,o),
(339,444,o),
(398,491,cs),
(454,536,o),
(486,549,o),
(538,549,cs),
(602,549,o),
(654,541,o),
(691,526,cs),
(737,507,o),
(775,496,o),
(793,491,cs),
(804,488,o),
(817,480,o),
(817,477,c),
(817,477,o),
(817,477,o),
(818,477,c),
(818,467,ls),
(818,430,o),
(792,413,o),
(765,413,cs),
(724,413,o),
(617,433,o),
(605,446,c),
(578,422,l),
(585,415,o),
(602,407,o),
(624,401,c),
(619,392,o),
(613,384,o),
(608,377,c),
(592,383,o),
(577,388,o),
(562,388,cs),
(521,388,o),
(499,359,o),
(499,325,cs),
(499,315,o),
(501,305,o),
(504,296,c),
(484,294,o),
(468,283,o),
(459,267,c),
(441,258,o),
(419,255,o),
(391,255,cs),
(378,255,o),
(357,256,o),
(346,259,c),
(346,224,l),
(358,221,o),
(375,219,o),
(391,219,cs),
(414,219,o),
(434,221,o),
(452,227,c),
(453,214,o),
(458,203,o),
(463,197,c),
(474,188,o),
(496,175,o),
(521,162,c),
(514,154,o),
(508,142,o),
(508,129,cs),
(508,122,o),
(509,114,o),
(511,109,c),
(526,87,o),
(560,60,o),
(600,39,cs),
(631,23,o),
(652,15,o),
(668,10,c),
(628,10,ls)
);
},
{
closed = 1;
nodes = (
(724,111,o),
(680,126,o),
(621,149,cs),
(577,166,o),
(511,200,o),
(492,214,c),
(488,220,o),
(485,229,o),
(485,237,cs),
(485,254,o),
(496,270,o),
(514,270,cs),
(521,270,o),
(528,268,o),
(536,265,c),
(568,245,o),
(611,224,o),
(657,209,cs),
(700,195,o),
(760,186,o),
(783,186,cs),
(793,186,o),
(800,187,o),
(810,191,c),
(814,181,o),
(818,166,o),
(818,150,cs),
(818,122,o),
(793,111,o),
(762,111,cs)
);
},
{
closed = 1;
nodes = (
(752,222,o),
(701,229,o),
(662,243,cs),
(597,266,o),
(559,290,o),
(540,305,c),
(539,308,o),
(534,321,o),
(534,329,cs),
(534,348,o),
(549,354,o),
(560,355,c),
(582,358,o),
(609,339,o),
(634,331,c),
(671,317,o),
(707,304,o),
(772,297,c),
(772,323,o),
(783,338,o),
(821,338,cs),
(826,338,o),
(832,338,o),
(839,337,c),
(858,322,o),
(861,299,o),
(861,275,cs),
(861,261,o),
(857,258,o),
(835,244,cs),
(809,228,o),
(794,222,o),
(778,222,cs)
);
},
{
closed = 1;
nodes = (
(691,345,o),
(660,358,o),
(643,364,c),
(642,364,l),
(648,373,o),
(654,382,o),
(659,392,c),
(698,383,o),
(741,377,o),
(767,377,cs),
(813,377,o),
(853,410,o),
(853,468,cs),
(853,473,l),
(876,471,o),
(898,470,o),
(916,468,cs),
(966,463,o),
(1021,457,o),
(1061,451,cs),
(1126,441,o),
(1147,431,o),
(1147,406,cs),
(1147,383,o),
(1133,373,o),
(1085,373,cs),
(1063,373,o),
(1016,376,o),
(973,376,cs),
(934,376,o),
(885,372,o),
(845,370,c),
(836,372,o),
(826,373,o),
(808,373,cs),
(779,373,o),
(750,361,o),
(743,337,c)
);
}
);
userData = {
public.verticalOrigin = 1069;
};
width = 1220;
}
);
note = uni261E;
unicode = 9758;
}
{
glyphname = downWhiteIndex;
layers = (
{
layerId = "6E183CFB-E55F-4C96-8804-AC4D4AF4B24B";
shapes = (
{
closed = 1;
nodes = (
(573,-145,o),
(596,-110,o),
(606,-28,cs),
(611,13,o),
(618,71,o),
(623,117,cs),
(626,146,o),
(628,175,o),
(630,204,c),
(636,212,o),
(642,224,o),
(645,236,cs),
(650,254,o),
(660,289,o),
(678,333,cs),
(695,375,o),
(704,431,o),
(704,500,cs),
(704,560,o),
(688,600,o),
(639,662,cs),
(594,719,o),
(592,732,o),
(592,767,cs),
(592,783,o),
(595,820,o),
(594,823,c),
(559,854,o),
(477,876,o),
(402,876,cs),
(303,876,o),
(233,858,o),
(195,822,c),
(195,749,l),
(126,658,o),
(95,520,o),
(95,410,cs),
(95,304,o),
(124,247,o),
(184,247,cs),
(199,247,o),
(201,246,o),
(204,237,cs),
(215,205,o),
(239,188,o),
(273,188,cs),
(292,188,o),
(307,198,o),
(318,198,cs),
(325,198,o),
(329,193,o),
(333,184,cs),
(346,155,o),
(365,141,o),
(397,141,cs),
(421,141,o),
(438,145,o),
(455,157,c),
(457,128,o),
(459,97,o),
(459,65,cs),
(459,23,o),
(456,-24,o),
(456,-47,cs),
(456,-112,o),
(478,-145,o),
(525,-145,cs)
);
},
{
closed = 1;
nodes = (
(178,277,o),
(153,282,o),
(153,314,cs),
(153,375,o),
(169,396,o),
(189,432,cs),
(204,459,o),
(225,485,o),
(240,496,c),
(249,495,o),
(259,490,o),
(265,484,c),
(255,464,o),
(246,443,o),
(239,427,cs),
(224,390,o),
(199,340,o),
(199,285,cs),
(199,278,l),
(197,277,o),
(195,277,o),
(193,277,cs)
);
},
{
closed = 1;
nodes = (
(502,-109,o),
(492,-95,o),
(492,-47,cs),
(492,-25,o),
(495,22,o),
(495,65,cs),
(495,104,o),
(491,153,o),
(489,193,c),
(491,202,o),
(492,212,o),
(492,230,cs),
(492,259,o),
(480,288,o),
(456,295,c),
(464,347,o),
(477,378,o),
(483,395,c),
(483,396,l),
(492,390,o),
(501,384,o),
(511,379,c),
(502,340,o),
(496,297,o),
(496,271,cs),
(496,225,o),
(529,185,o),
(587,185,cs),
(592,185,l),
(590,162,o),
(589,140,o),
(587,122,cs),
(582,72,o),
(576,17,o),
(570,-23,cs),
(560,-88,o),
(550,-109,o),
(525,-109,cs)
);
},
{
closed = 1;
nodes = (
(241,220,o),
(230,245,o),
(230,276,cs),
(230,314,o),
(245,358,o),
(268,417,cs),
(285,461,o),
(319,527,o),
(333,546,c),
(339,550,o),
(348,553,o),
(356,553,cs),
(373,553,o),
(389,542,o),
(389,524,cs),
(389,517,o),
(387,510,o),
(384,502,c),
(364,470,o),
(343,427,o),
(328,381,cs),
(314,338,o),
(305,278,o),
(305,255,cs),
(305,245,o),
(306,238,o),
(310,228,c),
(300,224,o),
(285,220,o),
(269,220,cs)
);
},
{
closed = 1;
nodes = (
(380,177,o),
(377,181,o),
(363,203,cs),
(347,229,o),
(341,244,o),
(341,260,cs),
(341,286,o),
(348,337,o),
(362,376,cs),
(385,441,o),
(409,479,o),
(424,498,c),
(427,499,o),
(440,504,o),
(448,504,cs),
(467,504,o),
(473,489,o),
(474,478,c),
(477,456,o),
(458,429,o),
(450,404,c),
(436,367,o),
(423,331,o),
(416,266,c),
(442,266,o),
(457,255,o),
(457,217,cs),
(457,212,o),
(457,206,o),
(456,199,c),
(441,180,o),
(418,177,o),
(394,177,cs)
);
},
{
closed = 1;
nodes = (
(549,220,o),
(532,246,o),
(532,273,cs),
(532,314,o),
(552,421,o),
(565,433,c),
(541,460,l),
(534,453,o),
(526,436,o),
(520,414,c),
(511,419,o),
(503,425,o),
(496,430,c),
(502,446,o),
(507,461,o),
(507,476,cs),
(507,517,o),
(478,539,o),
(444,539,cs),
(434,539,o),
(424,537,o),
(415,534,c),
(413,554,o),
(402,570,o),
(386,579,c),
(377,597,o),
(374,619,o),
(374,647,cs),
(374,660,o),
(375,681,o),
(378,692,c),
(343,692,l),
(340,680,o),
(338,663,o),
(338,647,cs),
(338,624,o),
(340,604,o),
(346,586,c),
(333,585,o),
(322,580,o),
(316,575,c),
(307,564,o),
(294,542,o),
(281,517,c),
(273,524,o),
(261,530,o),
(248,530,cs),
(241,530,o),
(233,529,o),
(228,527,c),
(206,512,o),
(179,478,o),
(158,438,cs),
(142,407,o),
(134,386,o),
(129,370,c),
(129,410,ls),
(129,538,o),
(169,664,o),
(231,737,c),
(231,805,l),
(265,828,o),
(322,840,o),
(402,840,cs),
(460,840,o),
(523,825,o),
(558,805,c),
(557,793,o),
(556,777,o),
(556,767,cs),
(556,722,o),
(563,699,o),
(610,640,cs),
(655,584,o),
(668,552,o),
(668,500,cs),
(668,436,o),
(660,384,o),
(645,347,cs),
(626,301,o),
(615,263,o),
(610,245,cs),
(607,234,o),
(599,221,o),
(596,221,cs),
(596,221,o),
(596,221,o),
(596,220,c),
(586,220,ls)
);
},
{
closed = 1;
nodes = (
(189,823,l),
(182,827,o),
(179,831,o),
(179,838,cs),
(179,891,o),
(303,909,o),
(395,909,cs),
(485,909,o),
(610,894,o),
(610,838,cs),
(610,831,o),
(609,828,o),
(603,823,c),
(605,823,ls),
(620,823,o),
(629,831,o),
(629,843,cs),
(629,918,ls),
(629,982,o),
(486,1001,o),
(395,1001,cs),
(303,1001,o),
(162,983,o),
(162,918,cs),
(162,843,ls),
(162,828,o),
(171,823,o),
(182,823,cs)
);
}
);
userData = {
public.verticalOrigin = 1069;
};
width = 800;
}
);
note = uni261F;
unicode = 9759;
}
{
glyphname = skullAndCrossbones;
layers = (
{
layerId = "6E183CFB-E55F-4C96-8804-AC4D4AF4B24B";
shapes = (
{
closed = 1;
nodes = (
(251,-61,o),
(269,-49,o),
(269,-30,cs),
(269,-23,o),
(267,-17,o),
(265,-11,cs),
(263,-5,o),
(261,0,o),
(261,6,cs),
(261,16,o),
(303,74,o),
(313,80,c),
(316,78,l),
(324,57,o),
(337,42,o),
(357,33,c),
(356,33,l),
(405,6,o),
(425,2,o),
(466,2,cs),
(509,2,o),
(530,7,o),
(576,33,c),
(575,33,l),
(595,42,o),
(609,57,o),
(615,77,c),
(619,80,l),
(631,70,o),
(664,22,o),
(664,13,cs),
(664,6,o),
(663,0,o),
(661,-5,cs),
(659,-11,o),
(657,-18,o),
(657,-24,cs),
(657,-43,o),
(674,-55,o),
(692,-55,cs),
(714,-55,o),
(737,-35,o),
(752,-7,c),
(765,-8,l),
(803,-8,o),
(822,11,o),
(822,50,cs),
(822,81,o),
(790,111,o),
(758,111,cs),
(743,111,o),
(730,98,o),
(724,85,c),
(710,101,o),
(696,118,o),
(681,134,cs),
(666,150,o),
(652,167,o),
(640,184,c),
(639,212,l),
(639,242,o),
(663,262,o),
(687,280,cs),
(699,289,o),
(705,300,o),
(705,313,cs),
(705,325,o),
(699,342,o),
(690,350,c),
(700,381,o),
(704,412,o),
(704,445,cs),
(704,468,o),
(701,490,o),
(697,512,c),
(708,528,o),
(721,543,o),
(735,557,cs),
(749,571,o),
(761,586,o),
(773,601,c),
(778,585,o),
(794,569,o),
(810,569,cs),
(837,569,o),
(868,590,o),
(868,618,cs),
(868,661,o),
(838,687,o),
(789,687,c),
(774,719,o),
(753,736,o),
(732,736,cs),
(714,736,o),
(697,725,o),
(697,706,cs),
(697,700,o),
(698,693,o),
(701,688,cs),
(704,683,o),
(704,676,o),
(704,669,cs),
(704,660,o),
(672,613,o),
(662,606,c),
(619,680,o),
(550,712,o),
(466,712,cs),
(376,712,o),
(302,673,o),
(261,593,c),
(253,599,o),
(211,661,o),
(211,667,cs),
(211,673,o),
(212,679,o),
(215,685,cs),
(218,691,o),
(218,697,o),
(218,704,cs),
(218,723,o),
(201,734,o),
(183,734,cs),
(161,734,o),
(138,715,o),
(123,687,c),
(79,686,o),
(51,660,o),
(51,615,cs),
(51,583,o),
(68,573,o),
(100,573,cs),
(119,573,o),
(136,583,o),
(146,599,c),
(159,583,o),
(174,566,o),
(189,549,cs),
(205,531,o),
(219,515,o),
(231,498,c),
(228,480,o),
(227,462,o),
(227,445,cs),
(227,408,o),
(233,367,o),
(243,350,c),
(231,344,o),
(227,326,o),
(227,314,cs),
(227,299,o),
(238,283,o),
(260,267,cs),
(282,251,o),
(293,233,o),
(293,212,c),
(292,199,l),
(291,186,l),
(278,167,o),
(262,149,o),
(245,132,cs),
(219,105,ls),
(211,97,o),
(203,88,o),
(196,79,c),
(190,92,o),
(177,105,o),
(162,105,cs),
(134,105,o),
(101,86,o),
(101,63,cs),
(101,18,o),
(130,-9,o),
(173,-13,c),
(189,-42,o),
(211,-61,o),
(233,-61,cs)
);
},
{
closed = 1;
nodes = (
(207,-29,o),
(191,-6,o),
(187,11,c),
(155,11,o),
(125,25,o),
(125,50,cs),
(125,65,o),
(139,76,o),
(164,76,cs),
(178,76,o),
(191,65,o),
(198,54,c),
(220,71,o),
(240,93,o),
(254,116,c),
(268,126,o),
(282,139,o),
(291,154,c),
(291,137,ls),
(291,132,o),
(290,126,o),
(291,121,cs),
(293,105,l),
(300,93,l),
(292,87,o),
(239,26,o),
(239,22,cs),
(239,18,o),
(241,12,o),
(244,7,cs),
(248,1,o),
(249,-4,o),
(249,-10,cs),
(249,-23,o),
(234,-29,o),
(223,-29,cs)
);
},
{
closed = 1;
nodes = (
(470,76,o),
(477,78,o),
(482,81,c),
(488,84,o),
(494,86,o),
(500,86,cs),
(512,86,o),
(523,83,o),
(534,77,c),
(535,77,o),
(537,78,o),
(537,79,cs),
(537,80,o),
(528,84,o),
(525,85,c),
(517,88,l),
(515,89,o),
(513,90,o),
(512,90,cs),
(493,90,ls),
(488,90,o),
(483,89,o),
(479,87,c),
(474,85,o),
(469,84,o),
(464,84,cs),
(452,84,o),
(437,89,o),
(426,94,c),
(418,93,o),
(411,90,o),
(405,86,c),
(406,84,l),
(414,85,o),
(420,86,o),
(425,86,cs),
(429,86,l),
(436,85,o),
(441,83,o),
(446,81,cs),
(451,79,o),
(457,76,o),
(464,76,cs)
);
},
{
closed = 1;
nodes = (
(527,104,o),
(518,106,o),
(496,126,c),
(488,119,l),
(484,114,o),
(478,111,o),
(472,111,cs),
(464,111,o),
(458,118,o),
(455,125,c),
(443,109,l),
(434,119,l),
(420,127,l),
(409,113,l),
(396,120,l),
(385,106,l),
(376,115,l),
(365,110,l),
(362,123,l),
(365,126,o),
(370,128,o),
(374,130,c),
(375,125,o),
(379,118,o),
(385,116,c),
(390,135,l),
(392,135,l),
(397,135,o),
(400,127,o),
(402,123,c),
(405,123,l),
(408,138,l),
(420,149,l),
(426,128,l),
(430,128,l),
(428,152,l),
(453,155,l),
(456,129,l),
(460,129,l),
(461,155,l),
(478,152,l),
(480,125,l),
(488,127,l),
(488,154,l),
(492,153,o),
(496,152,o),
(500,151,c),
(503,150,o),
(508,149,o),
(511,148,c),
(511,126,l),
(517,123,l),
(519,149,l),
(530,145,o),
(543,137,o),
(543,129,cs),
(543,125,o),
(542,121,o),
(540,116,c),
(555,122,l),
(561,109,l),
(550,104,l)
);
},
{
closed = 1;
nodes = (
(568,89,o),
(581,92,o),
(581,101,cs),
(581,106,o),
(579,110,o),
(575,114,c),
(577,130,ls),
(577,132,o),
(577,141,o),
(577,146,cs),
(577,154,l),
(555,183,l),
(521,205,o),
(500,210,o),
(465,210,cs),
(444,210,o),
(428,207,o),
(416,201,cs),
(403,194,o),
(394,189,o),
(385,186,c),
(369,179,o),
(350,164,o),
(350,156,cs),
(350,151,o),
(350,146,o),
(351,141,cs),
(354,127,l),
(353,120,l),
(351,114,o),
(351,108,o),
(351,103,c),
(351,100,l),
(351,97,o),
(352,95,o),
(353,94,c),
(356,95,o),
(361,96,o),
(367,98,c),
(385,101,ls),
(397,103,o),
(410,105,o),
(417,105,cs),
(425,105,o),
(433,104,o),
(441,102,c),
(449,99,o),
(457,97,o),
(465,97,cs),
(472,97,o),
(480,98,o),
(488,99,cs),
(510,103,l),
(526,96,o),
(544,89,o),
(561,89,cs)
);
},
{
closed = 1;
nodes = (
(550,134,l),
(545,144,l),
(547,171,l),
(541,172,l),
(542,147,l),
(538,152,o),
(532,154,o),
(525,154,c),
(518,153,l),
(519,180,l),
(514,181,l),
(512,152,l),
(506,152,l),
(493,159,l),
(496,184,l),
(487,186,l),
(485,161,l),
(471,160,l),
(471,188,l),
(464,188,l),
(464,159,l),
(455,160,l),
(449,186,l),
(443,183,l),
(446,160,l),
(429,157,l),
(423,183,l),
(417,181,l),
(417,161,l),
(414,157,o),
(408,154,o),
(403,153,c),
(389,142,l),
(388,168,l),
(383,164,l),
(382,148,l),
(376,136,l),
(362,131,l),
(359,157,l),
(371,160,l),
(378,169,l),
(389,173,l),
(399,172,l),
(399,179,o),
(402,188,o),
(410,188,cs),
(414,188,o),
(416,186,o),
(419,184,c),
(431,190,l),
(436,190,ls),
(438,190,o),
(439,190,o),
(439,192,c),
(447,194,l),
(449,194,o),
(452,195,o),
(454,195,cs),
(475,195,o),
(497,191,o),
(503,183,c),
(507,186,o),
(513,187,o),
(519,187,cs),
(520,187,ls),
(525,187,o),
(529,185,o),
(531,179,c),
(539,175,l),
(546,176,l),
(561,165,l),
(563,153,ls),
(564,149,o),
(565,145,o),
(565,141,cs),
(565,122,l)
);
},
{
closed = 1;
nodes = (
(376,316,l),
(423,360,l),
(425,370,l),
(411,356,o),
(401,346,o),
(390,339,cs),
(380,333,o),
(368,329,o),
(348,329,cs),
(340,329,o),
(329,332,o),
(315,337,c),
(301,341,o),
(292,345,o),
(289,346,c),
(289,340,l),
(292,337,o),
(296,334,o),
(299,332,c),
(309,322,l),
(340,312,l)
);
},
{
closed = 1;
nodes = (
(409,20,o),
(356,42,o),
(344,79,c),
(319,106,l),
(314,122,o),
(312,138,o),
(312,155,cs),
(312,167,o),
(312,179,o),
(318,189,c),
(317,203,l),
(316,208,o),
(316,212,o),
(316,217,cs),
(316,225,o),
(327,229,o),
(338,231,c),
(346,232,l),
(338,240,o),
(324,249,o),
(304,259,cs),
(284,269,o),
(267,287,o),
(252,311,c),
(259,325,l),
(259,329,ls),
(259,334,o),
(260,339,o),
(262,344,cs),
(265,352,l),
(265,354,o),
(266,357,o),
(266,361,cs),
(266,365,o),
(265,368,o),
(263,372,c),
(256,382,ls),
(252,388,o),
(247,397,o),
(247,410,c),
(248,422,l),
(261,429,ls),
(266,432,o),
(270,434,o),
(272,438,c),
(279,440,o),
(292,448,o),
(313,460,cs),
(333,472,o),
(348,478,o),
(358,478,cs),
(373,478,o),
(393,473,o),
(416,463,cs),
(439,453,o),
(458,448,o),
(473,448,cs),
(484,448,o),
(499,453,o),
(519,463,cs),
(539,473,o),
(557,477,o),
(573,477,cs),
(593,477,o),
(608,470,o),
(620,463,c),
(640,452,ls),
(646,449,o),
(654,445,o),
(662,443,c),
(678,423,l),
(678,414,l),
(678,409,o),
(678,404,o),
(679,398,c),
(680,392,o),
(680,386,o),
(680,378,cs),
(680,372,o),
(678,365,o),
(673,357,c),
(668,349,o),
(666,342,o),
(666,337,cs),
(666,336,o),
(666,334,o),
(668,332,c),
(672,324,l),
(680,310,l),
(673,295,o),
(663,282,o),
(652,271,cs),
(640,259,o),
(628,248,o),
(617,237,c),
(608,236,o),
(600,234,o),
(593,230,c),
(599,221,o),
(608,213,o),
(617,206,c),
(621,191,o),
(623,176,o),
(623,160,cs),
(623,80,o),
(550,20,o),
(466,20,cs)
);
},
{
closed = 1;
nodes = (
(380,345,o),
(396,362,o),
(407,383,c),
(420,390,o),
(435,403,o),
(435,419,cs),
(435,446,o),
(402,463,o),
(368,463,cs),
(329,463,o),
(282,440,o),
(282,408,cs),
(282,366,o),
(302,345,o),
(355,345,cs)
);
},
{
closed = 1;
nodes = (
(450,236,o),
(460,240,o),
(466,246,c),
(472,240,o),
(482,236,o),
(490,236,cs),
(501,236,o),
(514,257,o),
(514,269,cs),
(514,282,o),
(506,299,o),
(498,308,c),
(494,330,o),
(479,357,o),
(466,357,cs),
(451,357,o),
(418,287,o),
(418,269,cs),
(418,257,o),
(430,236,o),
(442,236,cs)
);
},
{
closed = 1;
nodes = (
(227,539,o),
(219,549,o),
(214,553,c),
(208,557,o),
(201,566,o),
(191,581,cs),
(181,596,o),
(166,610,o),
(148,624,c),
(141,613,o),
(128,603,o),
(114,603,cs),
(94,603,o),
(76,609,o),
(76,629,cs),
(76,650,o),
(100,663,o),
(132,663,cs),
(137,663,l),
(144,687,o),
(159,703,o),
(176,703,cs),
(187,703,o),
(199,696,o),
(199,685,cs),
(199,681,o),
(199,678,o),
(198,675,c),
(191,659,l),
(189,656,o),
(189,653,o),
(189,650,cs),
(189,649,o),
(191,647,o),
(193,645,cs),
(205,632,l),
(209,626,o),
(214,621,o),
(219,615,cs),
(247,585,ls),
(250,581,o),
(252,579,o),
(254,578,c),
(247,560,o),
(241,541,o),
(236,522,c)
);
},
{
closed = 1;
nodes = (
(690,-22,o),
(676,-18,o),
(676,-4,cs),
(676,1,o),
(678,7,o),
(681,13,c),
(685,19,o),
(686,23,o),
(686,28,cs),
(686,32,o),
(638,84,o),
(630,92,c),
(638,105,o),
(642,118,o),
(642,133,cs),
(642,136,l),
(642,140,o),
(641,147,o),
(641,153,c),
(649,139,o),
(659,123,o),
(673,114,c),
(686,94,o),
(702,73,o),
(722,60,c),
(729,71,o),
(742,82,o),
(756,82,cs),
(781,82,o),
(797,62,o),
(797,38,cs),
(797,21,o),
(785,13,o),
(765,13,cs),
(757,13,o),
(745,15,o),
(738,17,c),
(733,-1,o),
(717,-22,o),
(701,-22,cs)
);
},
{
closed = 1;
nodes = (
(251,460,o),
(250,470,o),
(250,479,cs),
(250,517,o),
(266,550,o),
(283,581,c),
(287,565,l),
(288,560,o),
(288,555,o),
(288,550,cs),
(288,506,o),
(275,453,o),
(253,451,c)
);
},
{
closed = 1;
nodes = (
(600,317,l),
(615,325,ls),
(625,330,o),
(635,336,o),
(639,340,c),
(639,346,l),
(613,337,l),
(599,332,o),
(588,329,o),
(580,329,cs),
(553,329,o),
(542,333,o),
(528,346,cs),
(511,361,l),
(512,356,l),
(548,326,l),
(588,312,l)
);
},
{
closed = 1;
nodes = (
(630,345,o),
(650,366,o),
(650,408,cs),
(650,440,o),
(603,463,o),
(564,463,cs),
(530,463,o),
(497,446,o),
(497,419,cs),
(497,393,o),
(540,345,o),
(577,345,cs)
);
},
{
closed = 1;
nodes = (
(488,481,o),
(509,486,o),
(535,498,cs),
(561,510,o),
(582,514,o),
(599,514,cs),
(603,514,o),
(604,515,o),
(605,516,c),
(603,517,o),
(601,518,o),
(599,518,c),
(592,519,l),
(591,519,o),
(587,517,o),
(582,516,cs),
(562,511,l),
(510,499,ls),
(501,497,o),
(494,495,o),
(489,494,c),
(483,493,o),
(480,492,o),
(479,492,cs),
(467,492,o),
(448,496,o),
(429,501,cs),
(401,509,l),
(378,516,l),
(377,517,l),
(375,517,o),
(374,515,o),
(374,514,cs),
(374,506,o),
(457,481,o),
(473,481,cs)
);
},
{
closed = 1;
nodes = (
(463,457,o),
(447,463,o),
(425,475,cs),
(403,487,o),
(381,492,o),
(359,492,cs),
(337,492,o),
(312,477,o),
(296,463,c),
(289,472,l),
(294,489,o),
(299,507,o),
(299,524,cs),
(299,538,o),
(298,551,o),
(296,564,cs),
(294,577,o),
(293,590,o),
(293,603,c),
(321,660,o),
(386,694,o),
(466,694,cs),
(548,694,o),
(613,656,o),
(640,599,c),
(634,582,o),
(633,562,o),
(633,543,cs),
(633,518,o),
(637,496,o),
(644,471,c),
(637,462,l),
(634,464,o),
(630,466,o),
(626,469,c),
(615,478,ls),
(607,484,o),
(598,488,o),
(590,488,cs),
(566,488,o),
(542,481,o),
(522,473,cs),
(495,462,ls),
(487,459,o),
(480,457,o),
(475,457,cs)
);
},
{
closed = 1;
nodes = (
(677,458,o),
(674,464,o),
(670,470,cs),
(658,487,ls),
(650,499,o),
(644,510,o),
(644,521,cs),
(644,531,o),
(645,541,o),
(647,550,cs),
(653,579,l),
(672,550,o),
(679,518,o),
(679,482,cs),
(679,463,l),
(679,453,l)
);
},
{
closed = 1;
nodes = (
(686,555,o),
(680,574,o),
(670,592,c),
(676,595,o),
(726,650,o),
(726,652,cs),
(726,655,o),
(726,658,o),
(725,661,c),
(718,677,l),
(716,680,o),
(716,683,o),
(716,687,cs),
(716,698,o),
(728,705,o),
(738,705,cs),
(755,705,o),
(770,687,o),
(775,663,c),
(783,663,ls),
(818,663,o),
(843,652,o),
(843,630,cs),
(843,609,o),
(828,600,o),
(807,600,cs),
(791,600,o),
(778,614,o),
(771,626,c),
(752,615,o),
(736,594,o),
(725,576,c),
(710,566,o),
(700,550,o),
(691,535,c)
);
}
);
userData = {
public.verticalOrigin = 1069;
};
width = 919;
}
);
note = uni2620;
unicode = 9760;
}
{
glyphname = radioactive;
layers = (
{
layerId = "6E183CFB-E55F-4C96-8804-AC4D4AF4B24B";
shapes = (
{
closed = 1;
nodes = (
(639,1,o),
(809,171,o),
(809,380,cs),
(809,590,o),
(639,759,o),
(430,759,cs),
(223,759,o),
(51,590,o),
(51,380,cs),
(51,171,o),
(222,1,o),
(430,1,cs)
);
},
{
closed = 1;
nodes = (
(485,73,o),
(537,87,o),
(583,114,c),
(492,267,l),
(484,263,o),
(459,251,o),
(430,251,cs),
(405,251,o),
(380,259,o),
(368,267,c),
(277,114,l),
(323,87,o),
(375,73,o),
(430,73,cs)
);
},
{
closed = 1;
nodes = (
(301,381,l),
(301,423,o),
(330,472,o),
(363,488,c),
(276,644,l),
(184,591,o),
(123,489,o),
(123,378,c)
);
},
{
closed = 1;
nodes = (
(248,46,o),
(96,194,o),
(96,380,cs),
(96,562,o),
(245,714,o),
(430,714,cs),
(614,714,o),
(764,564,o),
(764,380,cs),
(764,196,o),
(614,46,o),
(430,46,cs)
);
},
{
closed = 1;
nodes = (
(485,279,o),
(531,323,o),
(531,380,cs),
(531,436,o),
(487,481,o),
(430,481,cs),
(374,481,o),
(329,437,o),
(329,380,cs),
(329,323,o),
(375,279,o),
(430,279,cs)
);
},
{
closed = 1;
nodes = (
(737,490,o),
(676,590,o),
(584,644,c),
(497,488,l),
(527,472,o),
(559,427,o),
(559,381,c),
(737,378,l)
);
}
);
userData = {
public.verticalOrigin = 1069;
};
width = 860;
}
);
note = uni2622;
unicode = 9762;
}
{
glyphname = biohazard;
layers = (
{
layerId = "6E183CFB-E55F-4C96-8804-AC4D4AF4B24B";
shapes = (
{
closed = 1;
nodes = (
(850,180,o),
(851,193,o),
(851,211,cs),
(851,329,o),
(760,426,o),
(639,426,cs),
(627,426,l),
(650,461,o),
(662,500,o),
(662,541,cs),
(662,632,o),
(604,713,o),
(518,742,c),
(511,719,l),
(578,696,o),
(617,638,o),
(617,560,cs),
(617,474,o),
(550,409,o),
(462,404,c),
(525,298,l),
(554,343,o),
(601,371,o),
(662,371,cs),
(752,371,o),
(827,292,o),
(827,210,cs),
(827,195,o),
(826,184,o),
(824,178,c),
(848,173,l)
);
},
{
closed = 1;
nodes = (
(380,194,l),
(325,224,o),
(303,275,o),
(303,325,c),
(266,324,l),
(266,251,o),
(308,190,o),
(359,164,c)
);
},
{
closed = 1;
nodes = (
(346,1,o),
(417,47,o),
(450,114,c),
(487,45,o),
(557,1,o),
(640,1,cs),
(690,1,o),
(741,20,o),
(779,53,c),
(763,73,l),
(733,46,o),
(700,33,o),
(662,33,cs),
(570,33,o),
(495,108,o),
(495,192,cs),
(495,221,o),
(501,249,o),
(513,276,c),
(389,276,l),
(401,249,o),
(407,221,o),
(407,192,cs),
(407,108,o),
(333,33,o),
(240,33,cs),
(202,33,o),
(168,46,o),
(139,73,c),
(123,53,l),
(162,20,o),
(211,1,o),
(262,1,cs)
);
},
{
closed = 1;
nodes = (
(78,178,l),
(76,184,o),
(75,195,o),
(75,210,cs),
(75,292,o),
(150,371,o),
(240,371,cs),
(299,371,o),
(348,343,o),
(376,299,c),
(438,404,l),
(348,409,o),
(281,474,o),
(281,560,cs),
(281,638,o),
(319,696,o),
(388,719,c),
(380,742,l),
(294,712,o),
(237,631,o),
(237,541,cs),
(237,500,o),
(248,461,o),
(270,426,c),
(263,426,ls),
(143,426,o),
(51,329,o),
(51,211,cs),
(51,194,o),
(52,182,o),
(54,173,c)
);
},
{
closed = 1;
nodes = (
(591,190,o),
(635,250,o),
(635,324,c),
(598,325,l),
(598,274,o),
(570,220,o),
(521,194,c),
(541,164,l)
);
},
{
closed = 1;
nodes = (
(395,459,o),
(420,467,o),
(450,467,cs),
(476,467,o),
(501,460,o),
(525,446,c),
(543,480,l),
(514,496,o),
(483,504,o),
(450,504,cs),
(416,504,o),
(385,495,o),
(357,478,c),
(374,445,l)
);
}
);
userData = {
public.verticalOrigin = 1069;
};
width = 902;
}
);
note = uni2623;
unicode = 9763;
}
{
glyphname = earthTrigram;
layers = (
{
layerId = "6E183CFB-E55F-4C96-8804-AC4D4AF4B24B";
shapes = (
{
closed = 1;
nodes = (
(842,523,l),
(842,634,l),
(546,634,l),
(546,523,l)
);
},
{
closed = 1;
nodes = (
(394,67,l),
(394,178,l),
(98,178,l),
(98,67,l)
);
},
{
closed = 1;
nodes = (
(394,295,l),
(394,406,l),
(98,406,l),
(98,295,l)
);
},
{
closed = 1;
nodes = (
(842,67,l),
(842,178,l),
(546,178,l),
(546,67,l)
);
},
{
closed = 1;
nodes = (
(394,523,l),
(394,634,l),
(98,634,l),
(98,523,l)
);
},
{
closed = 1;
nodes = (
(842,295,l),
(842,406,l),
(546,406,l),
(546,295,l)
);
}
);
userData = {
public.verticalOrigin = 1069;
};
width = 940;
}
);
note = uni2637;
unicode = 9783;
}
{
glyphname = kingWhiteChess;
layers = (
{
layerId = "6E183CFB-E55F-4C96-8804-AC4D4AF4B24B";
shapes = (
{
closed = 1;
nodes = (
(562,-34,o),
(610,-29,o),
(647,-19,cs),
(683,-9,o),
(701,6,o),
(701,24,c),
(687,227,l),
(768,314,o),
(797,379,o),
(797,436,cs),
(797,520,o),
(751,573,o),
(675,573,cs),
(630,573,o),
(592,557,o),
(561,525,c),
(565,589,ls),
(567,616,o),
(549,631,o),
(517,636,c),
(517,692,l),
(558,692,l),
(558,716,l),
(517,716,l),
(517,753,l),
(483,753,l),
(483,716,l),
(442,716,l),
(442,692,l),
(483,692,l),
(483,636,l),
(451,631,o),
(433,616,o),
(435,591,cs),
(439,525,l),
(407,557,o),
(369,573,o),
(325,573,cs),
(249,573,o),
(203,520,o),
(203,436,cs),
(203,375,o),
(239,305,o),
(313,227,c),
(299,24,l),
(299,6,o),
(317,-8,o),
(353,-18,cs),
(389,-28,o),
(438,-34,o),
(500,-34,cs)
);
},
{
closed = 1;
nodes = (
(395,-5,o),
(342,5,o),
(342,26,cs),
(342,35,o),
(356,43,o),
(384,49,cs),
(412,55,o),
(450,57,o),
(500,57,cs),
(550,57,o),
(589,54,o),
(617,49,cs),
(644,44,o),
(658,35,o),
(658,26,cs),
(658,5,o),
(605,-5,o),
(500,-5,cs)
);
},
{
closed = 1;
nodes = (
(351,123,l),
(388,134,o),
(447,143,o),
(500,143,cs),
(553,143,o),
(603,136,o),
(649,123,c),
(652,68,l),
(616,80,o),
(566,86,o),
(500,86,cs),
(434,86,o),
(383,80,o),
(348,68,c)
);
},
{
closed = 1;
nodes = (
(358,213,l),
(401,224,o),
(448,230,o),
(500,230,cs),
(551,230,o),
(598,224,o),
(642,213,c),
(647,155,l),
(625,163,o),
(555,172,o),
(500,172,cs),
(441,172,o),
(373,163,o),
(353,155,c)
);
},
{
closed = 1;
nodes = (
(290,306,o),
(248,380,o),
(248,431,cs),
(248,494,o),
(277,531,o),
(327,531,cs),
(412,531,o),
(479,410,o),
(479,294,cs),
(479,262,l),
(442,262,o),
(397,257,o),
(347,247,c)
);
},
{
closed = 1;
nodes = (
(490,448,o),
(481,468,o),
(472,483,c),
(472,578,ls),
(472,600,o),
(481,611,o),
(500,611,cs),
(518,611,o),
(528,602,o),
(528,578,cs),
(528,483,l),
(518,468,o),
(508,447,o),
(500,422,c)
);
},
{
closed = 1;
nodes = (
(610,255,o),
(553,262,o),
(521,262,c),
(521,298,ls),
(521,408,o),
(587,531,o),
(673,531,cs),
(725,531,o),
(752,491,o),
(752,431,cs),
(752,380,o),
(712,308,o),
(653,247,c)
);
}
);
userData = {
public.verticalOrigin = 1069;
};
width = 1000;
}
);
note = uni2654;
unicode = 9812;
}
{
glyphname = queenWhiteChess;
layers = (
{
layerId = "6E183CFB-E55F-4C96-8804-AC4D4AF4B24B";
shapes = (
{
closed = 1;
nodes = (
(562,-34,o),
(611,-29,o),
(647,-19,cs),
(683,-9,o),
(701,6,o),
(701,24,cs),
(698,236,l),
(790,518,l),
(794,517,o),
(800,516,o),
(808,516,cs),
(845,516,o),
(875,544,o),
(875,586,cs),
(875,623,o),
(845,652,o),
(807,652,cs),
(768,652,o),
(739,623,o),
(739,584,cs),
(739,562,o),
(751,538,o),
(769,527,c),
(646,328,l),
(667,598,l),
(669,598,ls),
(704,598,o),
(736,629,o),
(736,666,cs),
(736,703,o),
(707,735,o),
(669,735,cs),
(632,735,o),
(600,706,o),
(600,667,cs),
(600,638,o),
(616,613,o),
(644,603,c),
(554,349,l),
(512,632,l),
(543,637,o),
(568,664,o),
(568,699,cs),
(568,738,o),
(537,767,o),
(500,767,cs),
(462,767,o),
(432,737,o),
(432,699,cs),
(432,664,o),
(457,637,o),
(488,632,c),
(446,349,l),
(356,603,l),
(384,613,o),
(400,638,o),
(400,667,cs),
(400,706,o),
(368,735,o),
(331,735,cs),
(293,735,o),
(264,703,o),
(264,666,cs),
(264,628,o),
(296,598,o),
(331,598,cs),
(333,598,l),
(354,328,l),
(231,527,l),
(249,538,o),
(261,562,o),
(261,584,cs),
(261,623,o),
(232,652,o),
(193,652,cs),
(156,652,o),
(125,623,o),
(125,586,cs),
(125,545,o),
(154,516,o),
(192,516,cs),
(200,516,o),
(206,517,o),
(210,518,c),
(302,236,l),
(299,24,ls),
(299,6,o),
(317,-8,o),
(353,-18,cs),
(389,-28,o),
(438,-34,o),
(500,-34,cs)
);
},
{
closed = 1;
nodes = (
(396,-5,o),
(344,5,o),
(344,26,cs),
(344,36,o),
(358,43,o),
(386,49,cs),
(413,55,o),
(451,57,o),
(500,57,cs),
(549,57,o),
(587,54,o),
(615,49,cs),
(642,44,o),
(656,35,o),
(656,26,cs),
(656,5,o),
(604,-5,o),
(500,-5,cs)
);
},
{
closed = 1;
nodes = (
(346,99,l),
(379,110,o),
(445,119,o),
(500,119,cs),
(557,119,o),
(621,110,o),
(654,99,c),
(654,68,l),
(618,80,o),
(567,86,o),
(500,86,cs),
(433,86,o),
(382,80,o),
(346,68,c)
);
},
{
closed = 1;
nodes = (
(268,421,l),
(364,254,l),
(328,245,l)
);
},
{
closed = 1;
nodes = (
(347,159,l),
(381,170,o),
(446,179,o),
(500,179,cs),
(552,179,o),
(620,170,o),
(653,159,c),
(653,126,l),
(614,139,o),
(563,146,o),
(500,146,cs),
(437,146,o),
(387,139,o),
(347,126,c)
);
},
{
closed = 1;
nodes = (
(348,219,l),
(379,229,o),
(447,239,o),
(500,239,cs),
(555,239,o),
(620,229,o),
(652,219,c),
(652,186,l),
(613,199,o),
(562,206,o),
(500,206,cs),
(438,206,o),
(387,199,o),
(348,186,c)
);
},
{
closed = 1;
nodes = (
(171,547,o),
(156,563,o),
(156,585,cs),
(156,605,o),
(172,620,o),
(191,620,cs),
(215,620,o),
(229,604,o),
(229,583,cs),
(229,563,o),
(214,547,o),
(193,547,cs)
);
},
{
closed = 1;
nodes = (
(366,495,l),
(436,264,l),
(420,263,o),
(406,261,o),
(393,259,c)
);
},
{
closed = 1;
nodes = (
(500,548,l),
(533,266,l),
(522,267,o),
(511,267,o),
(500,267,cs),
(489,267,o),
(478,267,o),
(467,266,c)
);
},
{
closed = 1;
nodes = (
(594,261,o),
(580,263,o),
(564,264,c),
(634,495,l),
(607,259,l)
);
},
{
closed = 1;
nodes = (
(311,629,o),
(296,645,o),
(296,667,cs),
(296,687,o),
(312,702,o),
(331,702,cs),
(355,702,o),
(369,686,o),
(369,665,cs),
(369,645,o),
(354,629,o),
(333,629,cs)
);
},
{
closed = 1;
nodes = (
(636,254,l),
(732,421,l),
(672,245,l)
);
},
{
closed = 1;
nodes = (
(479,662,o),
(464,678,o),
(464,700,cs),
(464,720,o),
(480,735,o),
(499,735,cs),
(520,735,o),
(536,720,o),
(536,700,cs),
(536,678,o),
(520,662,o),
(501,662,cs)
);
},
{
closed = 1;
nodes = (
(646,629,o),
(631,645,o),
(631,665,cs),
(631,686,o),
(644,702,o),
(669,702,cs),
(688,702,o),
(704,687,o),
(704,667,cs),
(704,645,o),
(690,629,o),
(667,629,cs)
);
},
{
closed = 1;
nodes = (
(786,547,o),
(771,563,o),
(771,583,cs),
(771,604,o),
(785,620,o),
(809,620,cs),
(828,620,o),
(844,605,o),
(844,585,cs),
(844,563,o),
(829,547,o),
(807,547,cs)
);
}
);
userData = {
public.verticalOrigin = 1069;
};
width = 1000;
}
);
note = uni2655;
unicode = 9813;
}
{
glyphname = rookWhiteChess;
layers = (
{
layerId = "6E183CFB-E55F-4C96-8804-AC4D4AF4B24B";
shapes = (
{
closed = 1;
nodes = (
(825,0,l),
(825,91,l),
(765,91,l),
(765,159,l),
(722,159,l),
(685,227,l),
(685,531,l),
(722,599,l),
(765,599,l),
(765,719,l),
(641,719,l),
(641,690,l),
(581,690,l),
(581,715,l),
(420,715,l),
(420,690,l),
(360,690,l),
(360,719,l),
(236,719,l),
(236,599,l),
(278,599,l),
(316,531,l),
(316,227,l),
(278,159,l),
(236,159,l),
(236,91,l),
(176,91,l),
(176,0,l)
);
},
{
closed = 1;
nodes = (
(219,63,l),
(782,63,l),
(782,28,l),
(219,28,l)
);
},
{
closed = 1;
nodes = (
(279,131,l),
(722,131,l),
(722,96,l),
(279,96,l)
);
},
{
closed = 1;
nodes = (
(343,199,l),
(657,199,l),
(677,164,l),
(324,164,l)
);
},
{
closed = 1;
nodes = (
(359,526,l),
(642,526,l),
(642,232,l),
(359,232,l)
);
},
{
closed = 1;
nodes = (
(324,594,l),
(677,594,l),
(658,559,l),
(345,559,l)
);
},
{
closed = 1;
nodes = (
(279,686,l),
(334,686,l),
(334,657,l),
(446,657,l),
(446,682,l),
(555,682,l),
(555,657,l),
(667,657,l),
(667,686,l),
(722,686,l),
(722,627,l),
(279,627,l)
);
}
);
userData = {
public.verticalOrigin = 1069;
};
width = 1000;
}
);
note = uni2656;
unicode = 9814;
}
{
glyphname = knightWhiteChess;
layers = (
{
layerId = "6E183CFB-E55F-4C96-8804-AC4D4AF4B24B";
shapes = (
{
closed = 1;
nodes = (
(840,0,l),
(840,9,ls),
(840,114,o),
(831,212,o),
(812,304,cs),
(774,488,o),
(660,612,o),
(537,647,c),
(537,698,o),
(511,745,o),
(471,767,c),
(436,767,l),
(437,758,o),
(438,745,o),
(438,733,cs),
(438,714,o),
(435,680,o),
(430,668,c),
(424,668,l),
(417,701,o),
(395,725,o),
(360,738,c),
(336,738,l),
(341,717,o),
(344,696,o),
(344,675,cs),
(344,654,o),
(341,633,o),
(335,614,c),
(279,583,o),
(272,563,o),
(256,505,cs),
(248,476,o),
(238,454,o),
(227,440,cs),
(216,426,o),
(203,402,o),
(191,367,cs),
(179,333,o),
(169,306,o),
(160,289,c),
(205,218,ls),
(218,197,o),
(239,190,o),
(274,190,cs),
(290,190,o),
(308,203,o),
(328,229,cs),
(348,256,o),
(366,274,o),
(382,285,c),
(413,288,o),
(435,291,o),
(448,295,cs),
(475,303,o),
(494,328,o),
(496,339,c),
(500,339,l),
(501,335,o),
(502,326,o),
(502,321,cs),
(502,293,o),
(486,270,o),
(443,227,cs),
(407,191,o),
(385,166,o),
(375,152,cs),
(355,124,o),
(336,65,o),
(336,0,c)
);
},
{
closed = 1;
nodes = (
(262,297,o),
(276,325,o),
(303,344,c),
(299,349,l),
(262,347,o),
(238,329,o),
(231,301,c),
(236,290,o),
(250,280,o),
(258,279,c)
);
},
{
closed = 1;
nodes = (
(393,58,ls),
(393,109,o),
(420,143,o),
(479,207,cs),
(520,252,ls),
(534,268,o),
(541,291,o),
(543,316,c),
(528,370,l),
(481,370,l),
(480,360,o),
(467,342,o),
(448,335,cs),
(429,328,o),
(374,317,o),
(369,317,c),
(355,305,o),
(329,278,o),
(317,261,cs),
(299,234,o),
(287,230,o),
(274,230,cs),
(239,230,o),
(237,232,o),
(212,279,cs),
(203,296,l),
(210,308,o),
(220,333,o),
(232,366,cs),
(244,399,o),
(256,422,o),
(264,431,cs),
(273,441,o),
(280,453,o),
(285,469,cs),
(302,522,o),
(310,545,o),
(330,562,cs),
(342,572,o),
(351,579,o),
(355,582,cs),
(364,589,o),
(374,623,o),
(374,662,cs),
(374,677,o),
(373,689,o),
(370,700,c),
(391,683,o),
(397,669,o),
(397,637,cs),
(397,627,l),
(443,627,l),
(455,642,o),
(465,679,o),
(465,713,cs),
(465,720,o),
(465,726,o),
(464,733,c),
(484,713,o),
(494,689,o),
(494,662,cs),
(494,651,o),
(493,640,o),
(491,627,c),
(642,584,o),
(778,434,o),
(778,81,cs),
(778,54,l),
(393,54,l)
);
},
{
closed = 1;
nodes = (
(367,494,o),
(376,498,o),
(383,504,cs),
(390,510,o),
(398,514,o),
(408,514,cs),
(416,513,l),
(416,522,l),
(388,530,ls),
(380,532,o),
(371,534,o),
(363,534,cs),
(341,534,o),
(326,525,o),
(326,511,cs),
(326,504,l),
(327,500,l),
(332,496,o),
(342,494,o),
(358,494,cs)
);
},
{
closed = 1;
nodes = (
(752,67,l),
(752,146,o),
(746,220,o),
(733,291,cs),
(707,432,o),
(639,515,o),
(577,554,c),
(568,548,l),
(651,478,o),
(693,403,o),
(693,198,cs),
(693,148,o),
(691,104,o),
(686,67,c)
);
}
);
userData = {
public.verticalOrigin = 1069;
};
width = 1000;
}
);
note = uni2658;
unicode = 9816;
}
{
glyphname = pawnWhiteChess;
layers = (
{
layerId = "6E183CFB-E55F-4C96-8804-AC4D4AF4B24B";
shapes = (
{
closed = 1;
nodes = (
(814,0,l),
(814,37,ls),
(814,192,o),
(738,319,o),
(614,360,c),
(659,389,o),
(682,426,o),
(682,473,cs),
(682,543,o),
(635,598,o),
(555,623,c),
(582,632,o),
(601,657,o),
(601,688,cs),
(601,729,o),
(561,755,o),
(500,755,cs),
(438,755,o),
(399,729,o),
(399,688,cs),
(399,657,o),
(417,633,o),
(445,623,c),
(364,598,o),
(318,543,o),
(318,473,cs),
(318,426,o),
(341,389,o),
(386,360,c),
(264,319,o),
(186,193,o),
(186,37,cs),
(186,0,l)
);
},
{
closed = 1;
nodes = (
(246,184,o),
(325,297,o),
(450,338,c),
(450,376,l),
(397,400,o),
(371,433,o),
(371,475,cs),
(371,537,o),
(409,580,o),
(485,606,c),
(485,637,l),
(456,649,o),
(442,667,o),
(442,688,cs),
(442,709,o),
(464,727,o),
(500,727,cs),
(536,727,o),
(558,709,o),
(558,688,cs),
(558,667,o),
(544,649,o),
(515,637,c),
(515,606,l),
(591,580,o),
(629,537,o),
(629,475,cs),
(629,433,o),
(603,400,o),
(550,376,c),
(550,338,l),
(675,297,o),
(754,184,o),
(754,55,c),
(246,55,l)
);
}
);
userData = {
public.verticalOrigin = 1069;
};
width = 1000;
}
);
note = uni2659;
unicode = 9817;
}
{
glyphname = kingBlackChess;
layers = (
{
layerId = "6E183CFB-E55F-4C96-8804-AC4D4AF4B24B";
shapes = (
{
closed = 1;
nodes = (
(562,-34,o),
(611,-28,o),
(647,-18,cs),
(683,-8,o),
(701,6,o),
(701,24,c),
(687,227,l),
(761,305,o),
(797,375,o),
(797,436,cs),
(797,520,o),
(751,573,o),
(675,573,cs),
(631,573,o),
(593,557,o),
(561,525,c),
(565,591,ls),
(567,616,o),
(549,631,o),
(517,636,c),
(517,692,l),
(558,692,l),
(558,716,l),
(517,716,l),
(517,753,l),
(483,753,l),
(483,716,l),
(442,716,l),
(442,692,l),
(483,692,l),
(483,636,l),
(451,631,o),
(433,616,o),
(435,591,cs),
(439,525,l),
(407,557,o),
(369,573,o),
(325,573,cs),
(249,573,o),
(203,520,o),
(203,436,cs),
(203,375,o),
(239,305,o),
(313,227,c),
(299,24,l),
(299,6,o),
(317,-8,o),
(353,-18,cs),
(389,-28,o),
(438,-34,o),
(500,-34,cs)
);
},
{
closed = 1;
nodes = (
(348,98,l),
(385,108,o),
(447,118,o),
(500,118,cs),
(553,118,o),
(615,108,o),
(652,98,c),
(654,72,l),
(619,84,o),
(567,90,o),
(500,90,cs),
(433,90,o),
(381,84,o),
(346,72,c)
);
},
{
closed = 1;
nodes = (
(355,177,l),
(398,188,o),
(446,194,o),
(500,194,cs),
(554,194,o),
(602,188,o),
(645,177,c),
(647,149,l),
(627,157,o),
(559,166,o),
(500,166,cs),
(441,166,o),
(373,157,o),
(353,149,c)
);
},
{
closed = 1;
nodes = (
(290,306,o),
(248,380,o),
(248,431,cs),
(248,494,o),
(277,531,o),
(327,531,cs),
(412,531,o),
(479,410,o),
(479,294,cs),
(479,262,l),
(442,262,o),
(397,257,o),
(347,247,c)
);
},
{
closed = 1;
nodes = (
(396,286,o),
(430,290,o),
(454,290,c),
(454,295,ls),
(454,394,o),
(402,499,o),
(337,499,cs),
(298,499,o),
(279,469,o),
(279,422,cs),
(279,383,o),
(303,335,o),
(351,279,c)
);
},
{
closed = 1;
nodes = (
(490,448,o),
(481,468,o),
(472,483,c),
(472,578,ls),
(472,600,o),
(481,611,o),
(500,611,cs),
(519,611,o),
(528,600,o),
(528,578,cs),
(528,483,l),
(519,468,o),
(510,448,o),
(500,422,c)
);
},
{
closed = 1;
nodes = (
(503,460,o),
(508,477,o),
(513,491,c),
(513,562,ls),
(513,572,o),
(512,585,o),
(500,585,cs),
(488,585,o),
(487,572,o),
(487,562,cs),
(487,491,l),
(492,477,o),
(497,460,o),
(500,448,c)
);
},
{
closed = 1;
nodes = (
(603,257,o),
(558,262,o),
(521,262,c),
(521,294,ls),
(521,410,o),
(588,531,o),
(673,531,cs),
(723,531,o),
(752,494,o),
(752,431,cs),
(752,380,o),
(710,306,o),
(653,247,c)
);
},
{
closed = 1;
nodes = (
(697,335,o),
(721,383,o),
(721,422,cs),
(721,469,o),
(702,499,o),
(663,499,cs),
(598,499,o),
(546,394,o),
(546,295,cs),
(546,290,l),
(570,290,o),
(604,286,o),
(649,279,c)
);
}
);
userData = {
public.verticalOrigin = 1069;
};
width = 1000;
}
);
note = uni265A;
unicode = 9818;
}
